<svg width="174" height="174" viewBox="0 0 174 174" fill="none" xmlns="http://www.w3.org/2000/svg">
<circle cx="87" cy="87" r="87" fill="#D0F5FF"/>
<path opacity="0.2" d="M54.0242 81.4495H35.5625V88.9237H54.0242V81.4495Z" fill="black"/>
<path opacity="0.2" d="M117.829 60.9121H99.3677V68.3863H117.829V60.9121Z" fill="black"/>
<path opacity="0.1" d="M107.718 71.2395H89.2567V78.7136H107.718V71.2395Z" fill="black"/>
<path opacity="0.2" d="M75.68 60.9121H57.2184V68.3863H75.68V60.9121Z" fill="black"/>
<path opacity="0.1" d="M65.5691 71.2395H47.1074V78.7136H65.5691V71.2395Z" fill="black"/>
<path opacity="0.1" d="M86.6713 71.2395H68.2096V78.7136H86.6713V71.2395Z" fill="black"/>
<path opacity="0.2" d="M32.5295 88.3479H14.0679V95.8221H32.5295V88.3479Z" fill="black"/>
<path opacity="0.1" d="M23.4235 71.2395H4.96179V78.7136H23.4235V71.2395Z" fill="black"/>
<path opacity="0.1" d="M44.5255 71.2395H26.0638V78.7136H44.5255V71.2395Z" fill="black"/>
<path opacity="0.2" d="M117.829 18.7371H99.3677V26.2112H117.829V18.7371Z" fill="black"/>
<path opacity="0.1" d="M107.718 29.0645H89.2567V36.5386H107.718V29.0645Z" fill="black"/>
<path opacity="0.2" d="M80.8146 18.7371H62.3529V26.2112H80.8146V18.7371Z" fill="black"/>
<path opacity="0.1" d="M86.6713 49.8402H68.2096V57.3144H86.6713V49.8402Z" fill="black"/>
<path opacity="0.2" d="M139.251 99.053H120.789V106.527H139.251V99.053Z" fill="black"/>
<path opacity="0.2" d="M139.251 119.224H120.789V126.698H139.251V119.224Z" fill="black"/>
<path opacity="0.2" d="M54.0242 119.59H35.5625V127.065H54.0242V119.59Z" fill="black"/>
<path opacity="0.1" d="M170.963 109.384H152.501V116.858H170.963V109.384Z" fill="black"/>
<path opacity="0.1" d="M160.888 119.154H142.427V126.628H160.888V119.154Z" fill="black"/>
<path opacity="0.2" d="M117.829 99.053H99.3677V106.527H117.829V99.053Z" fill="black"/>
<path opacity="0.1" d="M128.817 109.384H110.355V116.858H128.817V109.384Z" fill="black"/>
<path opacity="0.1" d="M120.015 130.655H101.553V138.129H120.015V130.655Z" fill="black"/>
<path opacity="0.1" d="M146.42 140.557H127.959V148.031H146.42V140.557Z" fill="black"/>
<path opacity="0.1" d="M76.74 140.557H58.2783V148.031H76.74V140.557Z" fill="black"/>
<path opacity="0.1" d="M24.0945 140.557H5.63281V148.031H24.0945V140.557Z" fill="black"/>
<path opacity="0.1" d="M91.2151 84.0753H72.7534V91.5495H91.2151V84.0753Z" fill="black"/>
<path opacity="0.1" d="M112.314 84.0753H93.8521V91.5495H112.314V84.0753Z" fill="black"/>
<path opacity="0.2" d="M75.68 99.053H57.2184V106.527H75.68V99.053Z" fill="black"/>
<path opacity="0.1" d="M96.0085 120.386H77.5469V127.86H96.0085V120.386Z" fill="black"/>
<path opacity="0.2" d="M33.5344 99.053H15.0728V106.527H33.5344V99.053Z" fill="black"/>
<path opacity="0.2" d="M32.5295 126.489H14.0679V133.963H32.5295V126.489Z" fill="black"/>
<path opacity="0.1" d="M23.4235 109.384H4.96179V116.858H23.4235V109.384Z" fill="black"/>
<path opacity="0.1" d="M44.5255 109.384H26.0638V116.858H44.5255V109.384Z" fill="black"/>
<path d="M19.4003 67.363L26.669 137.029" stroke="#263238" stroke-width="2" stroke-miterlimit="10"/>
<path d="M25.4993 123.694L22.2023 120.214" stroke="#263238" stroke-width="2" stroke-miterlimit="10"/>
<path d="M23.2035 121.259C23.1973 120.726 23.0773 120.201 22.8515 119.718C22.6257 119.236 22.2993 118.807 21.8942 118.461C21.047 117.705 16.5948 115.831 16.1731 117.401C15.711 119.106 20.2696 122.455 23.2035 121.259Z" fill="#D18757" stroke="#263238" stroke-miterlimit="10"/>
<path d="M23.2034 121.259L18.9639 118.615" stroke="#263238" stroke-width="0.5" stroke-miterlimit="10"/>
<path d="M26.3243 131.619L23.031 128.139" stroke="#263238" stroke-width="2" stroke-miterlimit="10"/>
<path d="M24.0433 129.181C24.0362 128.648 23.9153 128.123 23.6889 127.641C23.4625 127.159 23.1357 126.731 22.7303 126.386C21.8832 125.631 17.431 123.757 17.0092 125.323C16.5398 127.032 21.1094 130.38 24.0433 129.181Z" fill="#D18757" stroke="#263238" stroke-miterlimit="10"/>
<path d="M24.0322 129.181L19.7927 126.54" stroke="#263238" stroke-width="0.5" stroke-miterlimit="10"/>
<path d="M23.4822 104.363L20.1852 100.879" stroke="#263238" stroke-width="2" stroke-miterlimit="10"/>
<path d="M21.1864 101.925C21.18 101.391 21.0596 100.866 20.8331 100.383C20.6066 99.9005 20.2794 99.472 19.8735 99.1263C19.03 98.3708 14.5777 96.5005 14.1523 98.0665C13.6939 99.7865 18.2525 103.124 21.1864 101.925Z" fill="#D18757" stroke="#263238" stroke-miterlimit="10"/>
<path d="M21.1863 101.925L16.9468 99.284" stroke="#263238" stroke-width="0.5" stroke-miterlimit="10"/>
<path d="M24.3072 112.285L21.0103 108.805" stroke="#263238" stroke-width="2" stroke-miterlimit="10"/>
<path d="M22.0152 109.846C22.0081 109.314 21.8873 108.789 21.6609 108.307C21.4344 107.825 21.1076 107.397 20.7023 107.052C19.8551 106.296 15.4029 104.422 14.9812 105.992C14.5081 107.697 19.0776 111.045 22.0152 109.846Z" fill="#D18757" stroke="#263238" stroke-miterlimit="10"/>
<path d="M22.0151 109.846L17.7756 107.206" stroke="#263238" stroke-width="0.5" stroke-miterlimit="10"/>
<path d="M22.1362 91.4909L18.8429 88.0105" stroke="#263238" stroke-width="2" stroke-miterlimit="10"/>
<path d="M19.844 89.052C19.8392 88.5202 19.7205 87.9956 19.496 87.5136C19.2714 87.0315 18.9461 86.6032 18.5421 86.2574C17.6949 85.502 13.2427 83.6279 12.821 85.1976C12.3515 86.9029 16.9064 90.2512 19.844 89.052Z" fill="#D18757" stroke="#263238" stroke-miterlimit="10"/>
<path d="M19.8441 89.052L15.6046 86.4115" stroke="#263238" stroke-width="0.5" stroke-miterlimit="10"/>
<path d="M20.7903 78.5632L17.4933 75.0829" stroke="#263238" stroke-width="2" stroke-miterlimit="10"/>
<path d="M18.4945 76.1282C18.4881 75.595 18.3677 75.0695 18.1412 74.5868C17.9147 74.1041 17.5875 73.6756 17.1816 73.3299C16.3417 72.5744 11.8822 70.7041 11.4604 72.2811C11.002 73.9754 15.5606 77.3274 18.4945 76.1282Z" fill="#D18757" stroke="#263238" stroke-miterlimit="10"/>
<path d="M18.4944 76.1281L14.2549 73.4839" stroke="#263238" stroke-width="0.5" stroke-miterlimit="10"/>
<path d="M24.9456 119.007L27.4504 114.922" stroke="#263238" stroke-width="2" stroke-miterlimit="10"/>
<path d="M26.6875 116.147C26.5835 115.625 26.5926 115.087 26.7141 114.569C26.8355 114.051 27.0666 113.564 27.3916 113.143C28.0664 112.226 32.0345 109.476 32.7717 110.924C33.5785 112.498 29.8047 116.715 26.6875 116.147Z" fill="#D18757" stroke="#263238" stroke-miterlimit="10"/>
<path d="M26.6875 116.147L30.5016 112.501" stroke="#263238" stroke-width="0.5" stroke-miterlimit="10"/>
<path d="M22.7706 98.1582L25.2755 94.0727" stroke="#263238" stroke-width="2" stroke-miterlimit="10"/>
<path d="M24.5091 95.2976C24.4064 94.7754 24.4164 94.2373 24.5385 93.7193C24.6605 93.2013 24.8918 92.7154 25.2169 92.294C25.888 91.3772 29.8598 88.6266 30.5969 90.0936C31.3964 91.6485 27.63 95.866 24.5091 95.2976Z" fill="#D18757" stroke="#263238" stroke-miterlimit="10"/>
<path d="M24.509 95.2976L28.3268 91.6522" stroke="#263238" stroke-width="0.5" stroke-miterlimit="10"/>
<path d="M21.8135 88.997L24.3183 84.9079" stroke="#263238" stroke-width="2" stroke-miterlimit="10"/>
<path d="M23.5555 86.1364C23.4515 85.614 23.4605 85.0753 23.582 84.5566C23.7034 84.0379 23.9345 83.5512 24.2596 83.1292C24.9307 82.216 28.9025 79.4618 29.6397 80.9104C30.4428 82.4837 26.6727 86.7049 23.5555 86.1364Z" fill="#D18757" stroke="#263238" stroke-miterlimit="10"/>
<path d="M23.5555 86.1364L27.3696 82.4874" stroke="#263238" stroke-width="0.5" stroke-miterlimit="10"/>
<path d="M20.4126 75.5633L22.9174 71.4778" stroke="#263238" stroke-width="2" stroke-miterlimit="10"/>
<path d="M22.1508 72.7028C22.0503 72.1829 22.0614 71.6475 22.1835 71.1322C22.3055 70.6169 22.5356 70.1335 22.8586 69.7139C23.5298 68.797 27.5016 66.0465 28.2387 67.4914C29.0382 69.0537 25.2718 73.2712 22.1508 72.7028Z" fill="#D18757" stroke="#263238" stroke-miterlimit="10"/>
<path d="M22.1509 72.7028L25.9686 69.0574" stroke="#263238" stroke-width="0.5" stroke-miterlimit="10"/>
<path d="M19.3379 66.9743C19.2342 66.4515 19.2437 65.9126 19.3658 65.3939C19.4879 64.8752 19.7197 64.3886 20.0457 63.967C20.7169 63.0538 24.685 60.2996 25.4258 61.7482C26.2436 63.3252 22.4589 67.5427 19.3379 66.9743Z" fill="#D18757" stroke="#263238" stroke-miterlimit="10"/>
<path d="M19.338 66.9743L23.1558 63.3253" stroke="#263238" stroke-width="0.5" stroke-miterlimit="10"/>
<path d="M19.5617 67.1466C19.0284 67.198 18.4903 67.1338 17.984 66.9585C17.4777 66.7832 17.0151 66.5009 16.6278 66.1308C15.7879 65.3643 13.4665 61.1285 14.9848 60.549C16.6498 59.8999 20.4529 64.088 19.5617 67.1466Z" fill="#D18757" stroke="#263238" stroke-miterlimit="10"/>
<path d="M19.5618 67.132L16.3308 62.9548" stroke="#263238" stroke-width="0.5" stroke-miterlimit="10"/>
<path d="M38.5771 76.957L31.345 146.626" stroke="#263238" stroke-width="2" stroke-miterlimit="10"/>
<path d="M32.944 133.339L30.4355 129.254" stroke="#263238" stroke-width="2" stroke-miterlimit="10"/>
<path d="M31.2021 130.479C31.3057 129.957 31.2962 129.418 31.1741 128.9C31.052 128.382 30.8202 127.896 30.4943 127.475C29.8232 126.562 25.8514 123.808 25.1142 125.275C24.3111 126.833 28.0775 131.047 31.2021 130.479Z" fill="#D18757" stroke="#263238" stroke-miterlimit="10"/>
<path d="M31.202 130.479L27.5969 127.024" stroke="#263238" stroke-width="0.5" stroke-miterlimit="10"/>
<path d="M34.9501 114.005L32.4417 109.919" stroke="#263238" stroke-width="2" stroke-miterlimit="10"/>
<path d="M33.2118 111.155C33.3154 110.633 33.3059 110.095 33.1838 109.577C33.0617 109.059 32.8299 108.573 32.504 108.152C31.8328 107.235 27.861 104.484 27.1239 105.951C26.3207 107.488 30.0908 111.713 33.2118 111.155Z" fill="#D18757" stroke="#263238" stroke-miterlimit="10"/>
<path d="M33.2081 111.144L29.603 107.686" stroke="#263238" stroke-width="0.5" stroke-miterlimit="10"/>
<path d="M34.1286 121.927L31.6201 117.841" stroke="#263238" stroke-width="2" stroke-miterlimit="10"/>
<path d="M32.3865 119.07C32.4893 118.547 32.4793 118.008 32.3572 117.49C32.2352 116.971 32.0039 116.484 31.6787 116.062C31.0039 115.149 27.0358 112.395 26.2987 113.862C25.5102 115.421 29.2656 119.638 32.3865 119.07Z" fill="#D18757" stroke="#263238" stroke-miterlimit="10"/>
<path d="M32.3865 119.07L28.7815 115.611" stroke="#263238" stroke-width="0.5" stroke-miterlimit="10"/>
<path d="M36.2888 101.132L33.7803 97.0469" stroke="#263238" stroke-width="2" stroke-miterlimit="10"/>
<path d="M34.543 98.2755C34.6467 97.7528 34.6372 97.2139 34.5151 96.6951C34.393 96.1764 34.1612 95.6898 33.8352 95.2682C33.1641 94.3551 29.1923 91.6009 28.4551 93.0678C27.6556 94.6265 31.4257 98.844 34.543 98.2755Z" fill="#D18757" stroke="#263238" stroke-miterlimit="10"/>
<path d="M34.543 98.2755L30.938 94.8171" stroke="#263238" stroke-width="0.5" stroke-miterlimit="10"/>
<path d="M37.6273 88.2049L35.1188 84.1194" stroke="#263238" stroke-width="2" stroke-miterlimit="10"/>
<path d="M35.8854 85.348C35.9891 84.8252 35.9796 84.2863 35.8575 83.7676C35.7354 83.2489 35.5035 82.7623 35.1776 82.3407C34.5064 81.4275 30.5346 78.6733 29.7975 80.1403C28.9943 81.6989 32.7644 85.9164 35.8854 85.348Z" fill="#D18757" stroke="#263238" stroke-miterlimit="10"/>
<path d="M35.8852 85.3479L32.2802 81.8896" stroke="#263238" stroke-width="0.5" stroke-miterlimit="10"/>
<path d="M33.3695 128.638L36.6628 125.154" stroke="#263238" stroke-width="2" stroke-miterlimit="10"/>
<path d="M35.6615 126.192C35.6676 125.659 35.7876 125.134 36.0134 124.651C36.2393 124.168 36.5657 123.74 36.9708 123.393C37.8179 122.638 42.2701 120.76 42.6919 122.33C43.154 124.043 38.5954 127.395 35.6615 126.192Z" fill="#D18757" stroke="#263238" stroke-miterlimit="10"/>
<path d="M35.6615 126.199L40.1467 123.412" stroke="#263238" stroke-width="0.5" stroke-miterlimit="10"/>
<path d="M35.5332 107.785L38.8265 104.305" stroke="#263238" stroke-width="2" stroke-miterlimit="10"/>
<path d="M37.8253 105.346C37.8313 104.814 37.9512 104.289 38.177 103.807C38.4029 103.325 38.7294 102.897 39.1346 102.552C39.9817 101.793 44.434 99.9185 44.8557 101.484C45.3141 103.19 40.7592 106.545 37.8253 105.346Z" fill="#D18757" stroke="#263238" stroke-miterlimit="10"/>
<path d="M37.8253 105.346L42.3105 102.563" stroke="#263238" stroke-width="0.5" stroke-miterlimit="10"/>
<path d="M36.483 98.6239L39.7764 95.1399" stroke="#263238" stroke-width="2" stroke-miterlimit="10"/>
<path d="M38.7751 96.1851C38.7813 95.6523 38.9013 95.127 39.1271 94.6444C39.3529 94.1617 39.6793 93.733 40.0844 93.3869C40.9316 92.6314 45.3838 90.7537 45.8055 92.3233C46.2676 94.0287 41.7127 97.3807 38.7751 96.1851Z" fill="#D18757" stroke="#263238" stroke-miterlimit="10"/>
<path d="M38.7751 96.185L43.2604 93.3978" stroke="#263238" stroke-width="0.5" stroke-miterlimit="10"/>
<path d="M37.8767 85.1903L41.17 81.7062" stroke="#263238" stroke-width="2" stroke-miterlimit="10"/>
<path d="M40.1798 82.7514C40.1862 82.2183 40.3066 81.6927 40.5331 81.2101C40.7596 80.7274 41.0868 80.2988 41.4927 79.9532C42.3362 79.1977 46.7885 77.3237 47.2102 78.8897C47.6613 80.595 43.1137 83.947 40.1798 82.7514Z" fill="#D18757" stroke="#263238" stroke-miterlimit="10"/>
<path d="M40.1688 82.7514L44.6577 79.9679" stroke="#263238" stroke-width="0.5" stroke-miterlimit="10"/>
<path d="M38.5955 76.5645C38.6014 76.0322 38.7213 75.5074 38.9472 75.0253C39.173 74.5433 39.4995 74.1152 39.9047 73.77C40.7519 73.0108 45.2041 71.1368 45.6259 72.7028C46.0879 74.4081 41.533 77.7821 38.5955 76.5645Z" fill="#D18757" stroke="#263238" stroke-miterlimit="10"/>
<path d="M38.5955 76.5646L43.0807 73.781" stroke="#263238" stroke-width="0.5" stroke-miterlimit="10"/>
<path d="M38.7789 76.7662C38.2498 76.7032 37.7402 76.528 37.2842 76.2522C36.8282 75.9765 36.4363 75.6066 36.1347 75.1673C35.4746 74.2467 34.0737 69.6258 35.68 69.3691C37.422 69.0904 40.2789 73.9717 38.7789 76.7662Z" fill="#D18757" stroke="#263238" stroke-miterlimit="10"/>
<path d="M38.7788 76.7663L36.483 72.0096" stroke="#263238" stroke-width="0.5" stroke-miterlimit="10"/>
<path d="M30.2926 48.5859V136.688" stroke="#263238" stroke-width="2" stroke-miterlimit="10"/>
<path d="M30.3622 123.441L27.4467 119.638" stroke="#263238" stroke-width="2" stroke-miterlimit="10"/>
<path d="M28.3341 120.779C28.3827 120.248 28.3172 119.714 28.142 119.211C27.9668 118.708 27.6859 118.248 27.3182 117.863C26.5554 117.023 22.3196 114.698 21.7364 116.213C21.1093 117.863 25.2902 121.666 28.3341 120.779Z" fill="#D18757" stroke="#263238" stroke-miterlimit="10"/>
<path d="M28.3342 120.779L24.3917 117.713" stroke="#263238" stroke-width="0.5" stroke-miterlimit="10"/>
<path d="M30.3622 106.887L27.4467 103.08" stroke="#263238" stroke-width="2" stroke-miterlimit="10"/>
<path d="M28.3341 104.22C28.3827 103.69 28.3172 103.155 28.142 102.652C27.9668 102.15 27.6859 101.69 27.3182 101.305C26.5554 100.465 22.3196 98.1398 21.7364 99.6581C21.1093 101.305 25.2902 105.108 28.3341 104.22Z" fill="#D18757" stroke="#263238" stroke-miterlimit="10"/>
<path d="M28.3342 104.22L24.3917 101.154" stroke="#263238" stroke-width="0.5" stroke-miterlimit="10"/>
<path d="M30.3622 87.4457L27.4467 83.6426" stroke="#263238" stroke-width="2" stroke-miterlimit="10"/>
<path d="M28.3341 84.7831C28.3854 84.2498 28.3213 83.7117 28.146 83.2055C27.9707 82.6992 27.6883 82.2366 27.3182 81.8492C26.5554 81.0094 22.3196 78.6843 21.7364 80.1989C21.1093 81.8676 25.2902 85.6706 28.3341 84.7831Z" fill="#D18757" stroke="#263238" stroke-miterlimit="10"/>
<path d="M28.3342 84.7832L24.3917 81.7172" stroke="#263238" stroke-width="0.5" stroke-miterlimit="10"/>
<path d="M30.3622 74.5071L27.4467 70.7004" stroke="#263238" stroke-width="2" stroke-miterlimit="10"/>
<path d="M28.3341 71.8446C28.3847 71.3114 28.3202 70.7735 28.1449 70.2673C27.9697 69.7611 27.6877 69.2985 27.3182 68.9107C26.5554 68.0709 22.3196 65.7457 21.7364 67.264C21.1093 68.9254 25.2902 72.7321 28.3341 71.8446Z" fill="#D18757" stroke="#263238" stroke-miterlimit="10"/>
<path d="M28.3342 71.8446L24.3917 68.775" stroke="#263238" stroke-width="0.5" stroke-miterlimit="10"/>
<path d="M30.3622 61.5099L27.4467 57.7031" stroke="#263238" stroke-width="2" stroke-miterlimit="10"/>
<path d="M28.3341 58.8474C28.3847 58.3141 28.3202 57.7762 28.1449 57.27C27.9697 56.7639 27.6877 56.3012 27.3182 55.9134C26.5554 55.0736 22.3196 52.7485 21.7364 54.2668C21.1093 55.9281 25.2902 59.7349 28.3341 58.8474Z" fill="#D18757" stroke="#263238" stroke-miterlimit="10"/>
<path d="M28.3342 58.8473L24.3917 55.7777" stroke="#263238" stroke-width="0.5" stroke-miterlimit="10"/>
<path d="M30.2961 128.499L33.2154 124.692" stroke="#263238" stroke-width="2" stroke-miterlimit="10"/>
<path d="M32.3279 125.825C32.2759 125.292 32.3394 124.754 32.514 124.248C32.6887 123.741 32.9705 123.279 33.3401 122.891C34.103 122.051 38.3388 119.726 38.9219 121.244C39.5564 122.917 35.3719 126.723 32.3279 125.825Z" fill="#D18757" stroke="#263238" stroke-miterlimit="10"/>
<path d="M32.3279 125.836L36.5014 122.601" stroke="#263238" stroke-width="0.5" stroke-miterlimit="10"/>
<path d="M30.2961 102.167L33.2154 98.3599" stroke="#263238" stroke-width="2" stroke-miterlimit="10"/>
<path d="M32.3279 99.5004C32.2753 98.9673 32.3386 98.4292 32.5133 97.9228C32.688 97.4164 32.97 96.9538 33.3401 96.5665C34.1029 95.7267 38.3387 93.4015 38.9218 94.9162C39.5563 96.5848 35.3718 100.388 32.3279 99.5004Z" fill="#D18757" stroke="#263238" stroke-miterlimit="10"/>
<path d="M32.3279 99.5004L36.5014 96.2695" stroke="#263238" stroke-width="0.5" stroke-miterlimit="10"/>
<path d="M30.2961 89.1694L33.2154 85.3626" stroke="#263238" stroke-width="2" stroke-miterlimit="10"/>
<path d="M32.3278 86.5032C32.2782 85.9731 32.3429 85.4385 32.5175 84.9355C32.6922 84.4326 32.9726 83.9729 33.34 83.5876C34.1029 82.7477 38.3387 80.4226 38.9218 81.9409C39.5563 83.5876 35.3718 87.3943 32.3278 86.5032Z" fill="#D18757" stroke="#263238" stroke-miterlimit="10"/>
<path d="M32.3279 86.5032L36.5014 83.2722" stroke="#263238" stroke-width="0.5" stroke-miterlimit="10"/>
<path d="M30.2961 71.9913L33.2154 68.1846" stroke="#263238" stroke-width="2" stroke-miterlimit="10"/>
<path d="M32.328 69.3251C32.2781 68.795 32.3427 68.2604 32.5173 67.7574C32.692 67.2544 32.9726 66.7947 33.3402 66.4095C34.103 65.5697 38.3388 63.2446 38.922 64.7629C39.5564 66.4132 35.3719 70.2126 32.328 69.3251Z" fill="#D18757" stroke="#263238" stroke-miterlimit="10"/>
<path d="M32.3279 69.3251L36.5014 66.0941" stroke="#263238" stroke-width="0.5" stroke-miterlimit="10"/>
<path d="M30.2961 58.4843L33.2154 54.6812" stroke="#263238" stroke-width="2" stroke-miterlimit="10"/>
<path d="M32.3279 55.8217C32.2753 55.2886 32.3386 54.7505 32.5133 54.2441C32.688 53.7377 32.97 53.2751 33.3401 52.8878C34.1029 52.048 38.3387 49.7228 38.9218 51.2375C39.5563 52.9061 35.3718 56.7092 32.3279 55.8217Z" fill="#D18757" stroke="#263238" stroke-miterlimit="10"/>
<path d="M32.3279 55.8217L36.5014 52.5908" stroke="#263238" stroke-width="0.5" stroke-miterlimit="10"/>
<path d="M30.1239 49.8329C30.073 49.2999 30.1371 48.7622 30.3117 48.2561C30.4863 47.75 30.7674 47.2872 31.1361 46.899C31.8989 46.0591 36.1347 43.734 36.7178 45.2523C37.3523 46.9137 33.1678 50.7204 30.1239 49.8329Z" fill="#D18757" stroke="#263238" stroke-miterlimit="10"/>
<path d="M30.1238 49.8329L34.2973 46.5983" stroke="#263238" stroke-width="0.5" stroke-miterlimit="10"/>
<path d="M30.3255 50.0126C29.7927 50.0053 29.2677 49.884 28.7856 49.6569C28.3036 49.4298 27.8758 49.1022 27.5309 48.696C26.7754 47.8488 24.9087 43.3929 26.4784 42.9749C28.1837 42.5164 31.5284 47.0787 30.3255 50.0126Z" fill="#D18757" stroke="#263238" stroke-miterlimit="10"/>
<path d="M30.3255 50.0126L27.5493 45.52" stroke="#263238" stroke-width="0.5" stroke-miterlimit="10"/>
<path d="M33.9159 159.539H24.586L23.4198 135.976H35.0821L33.9159 159.539Z" fill="#263238" stroke="#263238" stroke-miterlimit="10"/>
<path d="M88.5783 168C129.695 168 163.026 166.112 163.026 163.782C163.026 161.453 129.695 159.565 88.5783 159.565C47.4618 159.565 14.1302 161.453 14.1302 163.782C14.1302 166.112 47.4618 168 88.5783 168Z" fill="#263238" stroke="#263238" stroke-miterlimit="10"/>
<path d="M161.175 20.7468H124.684V100.59H161.175V20.7468Z" stroke="#263238" stroke-miterlimit="10"/>
<path d="M142.533 20.7981V100.641" stroke="#263238" stroke-miterlimit="10"/>
<path d="M151.823 20.7981V100.641" stroke="#263238" stroke-miterlimit="10"/>
<path d="M133.24 20.7981V100.641" stroke="#263238" stroke-miterlimit="10"/>
<path d="M133.156 21.0622L132.444 22.4595" stroke="#263238" stroke-miterlimit="10"/>
<path d="M124.791 22.4595H133.101" stroke="#263238" stroke-miterlimit="10"/>
<path d="M133.156 22.6611L132.444 24.0584" stroke="#263238" stroke-miterlimit="10"/>
<path d="M124.791 24.0585H133.101" stroke="#263238" stroke-miterlimit="10"/>
<path d="M133.156 24.2565L132.444 25.6537" stroke="#263238" stroke-miterlimit="10"/>
<path d="M124.791 25.6537H133.101" stroke="#263238" stroke-miterlimit="10"/>
<path d="M133.156 25.8518L132.444 27.2491" stroke="#263238" stroke-miterlimit="10"/>
<path d="M124.791 27.2491H133.101" stroke="#263238" stroke-miterlimit="10"/>
<path d="M133.156 27.4507L132.444 28.848" stroke="#263238" stroke-miterlimit="10"/>
<path d="M124.791 28.8481H133.101" stroke="#263238" stroke-miterlimit="10"/>
<path d="M133.156 29.0461L132.444 30.4434" stroke="#263238" stroke-miterlimit="10"/>
<path d="M124.791 30.4434H133.101" stroke="#263238" stroke-miterlimit="10"/>
<path d="M133.156 30.6451L132.444 32.0387" stroke="#263238" stroke-miterlimit="10"/>
<path d="M124.791 32.0387H133.101" stroke="#263238" stroke-miterlimit="10"/>
<path d="M133.156 32.2404L132.444 33.6377" stroke="#263238" stroke-miterlimit="10"/>
<path d="M124.791 33.6376H133.101" stroke="#263238" stroke-miterlimit="10"/>
<path d="M133.156 33.8358L132.444 35.233" stroke="#263238" stroke-miterlimit="10"/>
<path d="M124.791 35.233H133.101" stroke="#263238" stroke-miterlimit="10"/>
<path d="M133.156 35.4347L132.444 36.8283" stroke="#263238" stroke-miterlimit="10"/>
<path d="M124.791 36.8283H133.101" stroke="#263238" stroke-miterlimit="10"/>
<path d="M133.156 37.03L132.444 38.4273" stroke="#263238" stroke-miterlimit="10"/>
<path d="M124.791 38.4273H133.101" stroke="#263238" stroke-miterlimit="10"/>
<path d="M133.156 38.6253L132.444 40.0226" stroke="#263238" stroke-miterlimit="10"/>
<path d="M124.791 40.0226H133.101" stroke="#263238" stroke-miterlimit="10"/>
<path d="M133.156 40.2243L132.444 41.6216" stroke="#263238" stroke-miterlimit="10"/>
<path d="M124.791 41.6216H133.101" stroke="#263238" stroke-miterlimit="10"/>
<path d="M133.156 41.8196L132.444 43.2169" stroke="#263238" stroke-miterlimit="10"/>
<path d="M124.791 43.2169H133.101" stroke="#263238" stroke-miterlimit="10"/>
<path d="M133.156 43.4149L132.444 44.8122" stroke="#263238" stroke-miterlimit="10"/>
<path d="M124.791 44.8122H133.101" stroke="#263238" stroke-miterlimit="10"/>
<path d="M133.156 45.0139L132.444 46.4112" stroke="#263238" stroke-miterlimit="10"/>
<path d="M124.791 46.4112H133.101" stroke="#263238" stroke-miterlimit="10"/>
<path d="M133.156 46.6092L132.444 48.0065" stroke="#263238" stroke-miterlimit="10"/>
<path d="M124.791 48.0065H133.101" stroke="#263238" stroke-miterlimit="10"/>
<path d="M133.156 48.2046L132.444 49.6019" stroke="#263238" stroke-miterlimit="10"/>
<path d="M124.791 49.6018H133.101" stroke="#263238" stroke-miterlimit="10"/>
<path d="M133.156 49.8035L132.444 51.2008" stroke="#263238" stroke-miterlimit="10"/>
<path d="M124.791 51.2008H133.101" stroke="#263238" stroke-miterlimit="10"/>
<path d="M133.156 51.3989L132.444 52.7961" stroke="#263238" stroke-miterlimit="10"/>
<path d="M124.791 52.7961H133.101" stroke="#263238" stroke-miterlimit="10"/>
<path d="M133.156 52.9941L132.444 54.3914" stroke="#263238" stroke-miterlimit="10"/>
<path d="M124.791 54.3915H133.101" stroke="#263238" stroke-miterlimit="10"/>
<path d="M133.156 54.5931L132.444 55.9904" stroke="#263238" stroke-miterlimit="10"/>
<path d="M124.791 55.9904H133.101" stroke="#263238" stroke-miterlimit="10"/>
<path d="M133.156 56.1885L132.444 57.5858" stroke="#263238" stroke-miterlimit="10"/>
<path d="M124.791 57.5858H133.101" stroke="#263238" stroke-miterlimit="10"/>
<path d="M133.156 57.7838L132.444 59.1811" stroke="#263238" stroke-miterlimit="10"/>
<path d="M124.791 59.181H133.101" stroke="#263238" stroke-miterlimit="10"/>
<path d="M133.156 59.3828L132.444 60.7801" stroke="#263238" stroke-miterlimit="10"/>
<path d="M124.791 60.7801H133.101" stroke="#263238" stroke-miterlimit="10"/>
<path d="M133.156 60.9781L132.444 62.3754" stroke="#263238" stroke-miterlimit="10"/>
<path d="M124.791 62.3754H133.101" stroke="#263238" stroke-miterlimit="10"/>
<path d="M133.156 62.5734L132.444 63.9707" stroke="#263238" stroke-miterlimit="10"/>
<path d="M124.791 63.9707H133.101" stroke="#263238" stroke-miterlimit="10"/>
<path d="M133.156 64.1724L132.444 65.5696" stroke="#263238" stroke-miterlimit="10"/>
<path d="M124.791 65.5697H133.101" stroke="#263238" stroke-miterlimit="10"/>
<path d="M133.156 65.7678L132.444 67.165" stroke="#263238" stroke-miterlimit="10"/>
<path d="M124.791 67.165H133.101" stroke="#263238" stroke-miterlimit="10"/>
<path d="M133.156 67.3666L132.444 68.7602" stroke="#263238" stroke-miterlimit="10"/>
<path d="M124.791 68.7603H133.101" stroke="#263238" stroke-miterlimit="10"/>
<path d="M133.156 68.962L132.444 70.3593" stroke="#263238" stroke-miterlimit="10"/>
<path d="M124.791 70.3593H133.101" stroke="#263238" stroke-miterlimit="10"/>
<path d="M133.156 70.5574L132.444 71.9546" stroke="#263238" stroke-miterlimit="10"/>
<path d="M124.791 71.9547H133.101" stroke="#263238" stroke-miterlimit="10"/>
<path d="M133.156 72.1563L132.444 73.5536" stroke="#263238" stroke-miterlimit="10"/>
<path d="M124.791 73.5536H133.101" stroke="#263238" stroke-miterlimit="10"/>
<path d="M133.156 73.7516L132.444 75.1489" stroke="#263238" stroke-miterlimit="10"/>
<path d="M124.791 75.1489H133.101" stroke="#263238" stroke-miterlimit="10"/>
<path d="M133.156 75.3469L132.444 76.7442" stroke="#263238" stroke-miterlimit="10"/>
<path d="M124.791 76.7443H133.101" stroke="#263238" stroke-miterlimit="10"/>
<path d="M133.156 76.946L132.444 78.3433" stroke="#263238" stroke-miterlimit="10"/>
<path d="M124.791 78.3432H133.101" stroke="#263238" stroke-miterlimit="10"/>
<path d="M133.156 78.5413L132.444 79.9385" stroke="#263238" stroke-miterlimit="10"/>
<path d="M124.791 79.9385H133.101" stroke="#263238" stroke-miterlimit="10"/>
<path d="M133.156 80.1365L132.444 81.5338" stroke="#263238" stroke-miterlimit="10"/>
<path d="M124.791 81.5338H133.101" stroke="#263238" stroke-miterlimit="10"/>
<path d="M133.156 81.7355L132.444 83.1328" stroke="#263238" stroke-miterlimit="10"/>
<path d="M124.791 83.1329H133.101" stroke="#263238" stroke-miterlimit="10"/>
<path d="M133.156 83.3309L132.444 84.7281" stroke="#263238" stroke-miterlimit="10"/>
<path d="M124.791 84.7281H133.101" stroke="#263238" stroke-miterlimit="10"/>
<path d="M133.156 84.9262L132.444 86.3235" stroke="#263238" stroke-miterlimit="10"/>
<path d="M124.791 86.3234H133.101" stroke="#263238" stroke-miterlimit="10"/>
<path d="M133.156 86.5251L132.444 87.9224" stroke="#263238" stroke-miterlimit="10"/>
<path d="M124.791 87.9224H133.101" stroke="#263238" stroke-miterlimit="10"/>
<path d="M133.156 88.1205L132.444 89.5178" stroke="#263238" stroke-miterlimit="10"/>
<path d="M124.791 89.5178H133.101" stroke="#263238" stroke-miterlimit="10"/>
<path d="M133.156 89.7158L132.444 91.113" stroke="#263238" stroke-miterlimit="10"/>
<path d="M124.791 91.113H133.101" stroke="#263238" stroke-miterlimit="10"/>
<path d="M133.156 91.3148L132.444 92.712" stroke="#263238" stroke-miterlimit="10"/>
<path d="M124.791 92.712H133.101" stroke="#263238" stroke-miterlimit="10"/>
<path d="M133.156 92.9101L132.444 94.3074" stroke="#263238" stroke-miterlimit="10"/>
<path d="M124.791 94.3074H133.101" stroke="#263238" stroke-miterlimit="10"/>
<path d="M133.156 94.5091L132.444 95.9027" stroke="#263238" stroke-miterlimit="10"/>
<path d="M124.791 95.9026H133.101" stroke="#263238" stroke-miterlimit="10"/>
<path d="M133.156 96.1044L132.444 97.5016" stroke="#263238" stroke-miterlimit="10"/>
<path d="M124.791 97.5017H133.101" stroke="#263238" stroke-miterlimit="10"/>
<path d="M133.156 97.6997L132.444 99.097" stroke="#263238" stroke-miterlimit="10"/>
<path d="M124.791 99.097H133.101" stroke="#263238" stroke-miterlimit="10"/>
<path d="M133.156 99.2987L132.444 100.696" stroke="#263238" stroke-miterlimit="10"/>
<path d="M142.577 20.7981V100.641" stroke="#263238" stroke-miterlimit="10"/>
<path d="M142.489 21.0622L141.778 22.4595" stroke="#263238" stroke-miterlimit="10"/>
<path d="M134.124 22.4595H142.434" stroke="#263238" stroke-miterlimit="10"/>
<path d="M142.489 22.6611L141.778 24.0584" stroke="#263238" stroke-miterlimit="10"/>
<path d="M134.124 24.0585H142.434" stroke="#263238" stroke-miterlimit="10"/>
<path d="M142.489 24.2565L141.778 25.6537" stroke="#263238" stroke-miterlimit="10"/>
<path d="M134.124 25.6537H142.434" stroke="#263238" stroke-miterlimit="10"/>
<path d="M142.489 25.8518L141.778 27.2491" stroke="#263238" stroke-miterlimit="10"/>
<path d="M134.124 27.2491H142.434" stroke="#263238" stroke-miterlimit="10"/>
<path d="M142.489 27.4507L141.778 28.848" stroke="#263238" stroke-miterlimit="10"/>
<path d="M134.124 28.8481H142.434" stroke="#263238" stroke-miterlimit="10"/>
<path d="M142.489 29.0461L141.778 30.4434" stroke="#263238" stroke-miterlimit="10"/>
<path d="M134.124 30.4434H142.434" stroke="#263238" stroke-miterlimit="10"/>
<path d="M142.489 30.6451L141.778 32.0387" stroke="#263238" stroke-miterlimit="10"/>
<path d="M134.124 32.0387H142.434" stroke="#263238" stroke-miterlimit="10"/>
<path d="M142.489 32.2404L141.778 33.6377" stroke="#263238" stroke-miterlimit="10"/>
<path d="M134.124 33.6376H142.434" stroke="#263238" stroke-miterlimit="10"/>
<path d="M142.489 33.8358L141.778 35.233" stroke="#263238" stroke-miterlimit="10"/>
<path d="M134.124 35.233H142.434" stroke="#263238" stroke-miterlimit="10"/>
<path d="M142.489 35.4347L141.778 36.8283" stroke="#263238" stroke-miterlimit="10"/>
<path d="M134.124 36.8283H142.434" stroke="#263238" stroke-miterlimit="10"/>
<path d="M142.489 37.03L141.778 38.4273" stroke="#263238" stroke-miterlimit="10"/>
<path d="M134.124 38.4273H142.434" stroke="#263238" stroke-miterlimit="10"/>
<path d="M142.489 38.6253L141.778 40.0226" stroke="#263238" stroke-miterlimit="10"/>
<path d="M134.124 40.0226H142.434" stroke="#263238" stroke-miterlimit="10"/>
<path d="M142.489 40.2243L141.778 41.6216" stroke="#263238" stroke-miterlimit="10"/>
<path d="M134.124 41.6216H142.434" stroke="#263238" stroke-miterlimit="10"/>
<path d="M142.489 41.8196L141.778 43.2169" stroke="#263238" stroke-miterlimit="10"/>
<path d="M134.124 43.2169H142.434" stroke="#263238" stroke-miterlimit="10"/>
<path d="M142.489 43.4149L141.778 44.8122" stroke="#263238" stroke-miterlimit="10"/>
<path d="M134.124 44.8122H142.434" stroke="#263238" stroke-miterlimit="10"/>
<path d="M142.489 45.0139L141.778 46.4112" stroke="#263238" stroke-miterlimit="10"/>
<path d="M134.124 46.4112H142.434" stroke="#263238" stroke-miterlimit="10"/>
<path d="M142.489 46.6092L141.778 48.0065" stroke="#263238" stroke-miterlimit="10"/>
<path d="M134.124 48.0065H142.434" stroke="#263238" stroke-miterlimit="10"/>
<path d="M142.489 48.2046L141.778 49.6019" stroke="#263238" stroke-miterlimit="10"/>
<path d="M134.124 49.6018H142.434" stroke="#263238" stroke-miterlimit="10"/>
<path d="M142.489 49.8035L141.778 51.2008" stroke="#263238" stroke-miterlimit="10"/>
<path d="M134.124 51.2008H142.434" stroke="#263238" stroke-miterlimit="10"/>
<path d="M142.489 51.3989L141.778 52.7961" stroke="#263238" stroke-miterlimit="10"/>
<path d="M134.124 52.7961H142.434" stroke="#263238" stroke-miterlimit="10"/>
<path d="M142.489 52.9941L141.778 54.3914" stroke="#263238" stroke-miterlimit="10"/>
<path d="M134.124 54.3915H142.434" stroke="#263238" stroke-miterlimit="10"/>
<path d="M142.489 54.5931L141.778 55.9904" stroke="#263238" stroke-miterlimit="10"/>
<path d="M134.124 55.9904H142.434" stroke="#263238" stroke-miterlimit="10"/>
<path d="M142.489 56.1885L141.778 57.5858" stroke="#263238" stroke-miterlimit="10"/>
<path d="M134.124 57.5858H142.434" stroke="#263238" stroke-miterlimit="10"/>
<path d="M142.489 57.7838L141.778 59.1811" stroke="#263238" stroke-miterlimit="10"/>
<path d="M134.124 59.181H142.434" stroke="#263238" stroke-miterlimit="10"/>
<path d="M142.489 59.3828L141.778 60.7801" stroke="#263238" stroke-miterlimit="10"/>
<path d="M134.124 60.7801H142.434" stroke="#263238" stroke-miterlimit="10"/>
<path d="M142.489 60.9781L141.778 62.3754" stroke="#263238" stroke-miterlimit="10"/>
<path d="M134.124 62.3754H142.434" stroke="#263238" stroke-miterlimit="10"/>
<path d="M142.489 62.5734L141.778 63.9707" stroke="#263238" stroke-miterlimit="10"/>
<path d="M134.124 63.9707H142.434" stroke="#263238" stroke-miterlimit="10"/>
<path d="M142.489 64.1724L141.778 65.5696" stroke="#263238" stroke-miterlimit="10"/>
<path d="M134.124 65.5697H142.434" stroke="#263238" stroke-miterlimit="10"/>
<path d="M142.489 65.7678L141.778 67.165" stroke="#263238" stroke-miterlimit="10"/>
<path d="M134.124 67.165H142.434" stroke="#263238" stroke-miterlimit="10"/>
<path d="M142.489 67.3666L141.778 68.7602" stroke="#263238" stroke-miterlimit="10"/>
<path d="M134.124 68.7603H142.434" stroke="#263238" stroke-miterlimit="10"/>
<path d="M142.489 68.962L141.778 70.3593" stroke="#263238" stroke-miterlimit="10"/>
<path d="M134.124 70.3593H142.434" stroke="#263238" stroke-miterlimit="10"/>
<path d="M142.489 70.5574L141.778 71.9546" stroke="#263238" stroke-miterlimit="10"/>
<path d="M134.124 71.9547H142.434" stroke="#263238" stroke-miterlimit="10"/>
<path d="M142.489 72.1563L141.778 73.5536" stroke="#263238" stroke-miterlimit="10"/>
<path d="M134.124 73.5536H142.434" stroke="#263238" stroke-miterlimit="10"/>
<path d="M142.489 73.7516L141.778 75.1489" stroke="#263238" stroke-miterlimit="10"/>
<path d="M134.124 75.1489H142.434" stroke="#263238" stroke-miterlimit="10"/>
<path d="M142.489 75.3469L141.778 76.7442" stroke="#263238" stroke-miterlimit="10"/>
<path d="M134.124 76.7443H142.434" stroke="#263238" stroke-miterlimit="10"/>
<path d="M142.489 76.946L141.778 78.3433" stroke="#263238" stroke-miterlimit="10"/>
<path d="M134.124 78.3432H142.434" stroke="#263238" stroke-miterlimit="10"/>
<path d="M142.489 78.5413L141.778 79.9385" stroke="#263238" stroke-miterlimit="10"/>
<path d="M134.124 79.9385H142.434" stroke="#263238" stroke-miterlimit="10"/>
<path d="M142.489 80.1365L141.778 81.5338" stroke="#263238" stroke-miterlimit="10"/>
<path d="M134.124 81.5338H142.434" stroke="#263238" stroke-miterlimit="10"/>
<path d="M142.489 81.7355L141.778 83.1328" stroke="#263238" stroke-miterlimit="10"/>
<path d="M134.124 83.1329H142.434" stroke="#263238" stroke-miterlimit="10"/>
<path d="M142.489 83.3309L141.778 84.7281" stroke="#263238" stroke-miterlimit="10"/>
<path d="M134.124 84.7281H142.434" stroke="#263238" stroke-miterlimit="10"/>
<path d="M142.489 84.9262L141.778 86.3235" stroke="#263238" stroke-miterlimit="10"/>
<path d="M134.124 86.3234H142.434" stroke="#263238" stroke-miterlimit="10"/>
<path d="M142.489 86.5251L141.778 87.9224" stroke="#263238" stroke-miterlimit="10"/>
<path d="M134.124 87.9224H142.434" stroke="#263238" stroke-miterlimit="10"/>
<path d="M142.489 88.1205L141.778 89.5178" stroke="#263238" stroke-miterlimit="10"/>
<path d="M134.124 89.5178H142.434" stroke="#263238" stroke-miterlimit="10"/>
<path d="M142.489 89.7158L141.778 91.113" stroke="#263238" stroke-miterlimit="10"/>
<path d="M134.124 91.113H142.434" stroke="#263238" stroke-miterlimit="10"/>
<path d="M142.489 91.3148L141.778 92.712" stroke="#263238" stroke-miterlimit="10"/>
<path d="M134.124 92.712H142.434" stroke="#263238" stroke-miterlimit="10"/>
<path d="M142.489 92.9101L141.778 94.3074" stroke="#263238" stroke-miterlimit="10"/>
<path d="M134.124 94.3074H142.434" stroke="#263238" stroke-miterlimit="10"/>
<path d="M142.489 94.5091L141.778 95.9027" stroke="#263238" stroke-miterlimit="10"/>
<path d="M134.124 95.9026H142.434" stroke="#263238" stroke-miterlimit="10"/>
<path d="M142.489 96.1044L141.778 97.5016" stroke="#263238" stroke-miterlimit="10"/>
<path d="M134.124 97.5017H142.434" stroke="#263238" stroke-miterlimit="10"/>
<path d="M142.489 97.6997L141.778 99.097" stroke="#263238" stroke-miterlimit="10"/>
<path d="M134.124 99.097H142.434" stroke="#263238" stroke-miterlimit="10"/>
<path d="M142.489 99.2987L141.778 100.696" stroke="#263238" stroke-miterlimit="10"/>
<path d="M151.915 20.7981V100.641" stroke="#263238" stroke-miterlimit="10"/>
<path d="M151.826 21.0622L151.115 22.4595" stroke="#263238" stroke-miterlimit="10"/>
<path d="M143.461 22.4595H151.771" stroke="#263238" stroke-miterlimit="10"/>
<path d="M151.826 22.6611L151.115 24.0584" stroke="#263238" stroke-miterlimit="10"/>
<path d="M143.461 24.0585H151.771" stroke="#263238" stroke-miterlimit="10"/>
<path d="M151.826 24.2565L151.115 25.6537" stroke="#263238" stroke-miterlimit="10"/>
<path d="M143.461 25.6537H151.771" stroke="#263238" stroke-miterlimit="10"/>
<path d="M151.826 25.8518L151.115 27.2491" stroke="#263238" stroke-miterlimit="10"/>
<path d="M143.461 27.2491H151.771" stroke="#263238" stroke-miterlimit="10"/>
<path d="M151.826 27.4507L151.115 28.848" stroke="#263238" stroke-miterlimit="10"/>
<path d="M143.461 28.8481H151.771" stroke="#263238" stroke-miterlimit="10"/>
<path d="M151.826 29.0461L151.115 30.4434" stroke="#263238" stroke-miterlimit="10"/>
<path d="M143.461 30.4434H151.771" stroke="#263238" stroke-miterlimit="10"/>
<path d="M151.826 30.6451L151.115 32.0387" stroke="#263238" stroke-miterlimit="10"/>
<path d="M143.461 32.0387H151.771" stroke="#263238" stroke-miterlimit="10"/>
<path d="M151.826 32.2404L151.115 33.6377" stroke="#263238" stroke-miterlimit="10"/>
<path d="M143.461 33.6376H151.771" stroke="#263238" stroke-miterlimit="10"/>
<path d="M151.826 33.8358L151.115 35.233" stroke="#263238" stroke-miterlimit="10"/>
<path d="M143.461 35.233H151.771" stroke="#263238" stroke-miterlimit="10"/>
<path d="M151.826 35.4347L151.115 36.8283" stroke="#263238" stroke-miterlimit="10"/>
<path d="M143.461 36.8283H151.771" stroke="#263238" stroke-miterlimit="10"/>
<path d="M151.826 37.03L151.115 38.4273" stroke="#263238" stroke-miterlimit="10"/>
<path d="M143.461 38.4273H151.771" stroke="#263238" stroke-miterlimit="10"/>
<path d="M151.826 38.6253L151.115 40.0226" stroke="#263238" stroke-miterlimit="10"/>
<path d="M143.461 40.0226H151.771" stroke="#263238" stroke-miterlimit="10"/>
<path d="M151.826 40.2243L151.115 41.6216" stroke="#263238" stroke-miterlimit="10"/>
<path d="M143.461 41.6216H151.771" stroke="#263238" stroke-miterlimit="10"/>
<path d="M151.826 41.8196L151.115 43.2169" stroke="#263238" stroke-miterlimit="10"/>
<path d="M143.461 43.2169H151.771" stroke="#263238" stroke-miterlimit="10"/>
<path d="M151.826 43.4149L151.115 44.8122" stroke="#263238" stroke-miterlimit="10"/>
<path d="M143.461 44.8122H151.771" stroke="#263238" stroke-miterlimit="10"/>
<path d="M151.826 45.0139L151.115 46.4112" stroke="#263238" stroke-miterlimit="10"/>
<path d="M143.461 46.4112H151.771" stroke="#263238" stroke-miterlimit="10"/>
<path d="M151.826 46.6092L151.115 48.0065" stroke="#263238" stroke-miterlimit="10"/>
<path d="M143.461 48.0065H151.771" stroke="#263238" stroke-miterlimit="10"/>
<path d="M151.826 48.2046L151.115 49.6019" stroke="#263238" stroke-miterlimit="10"/>
<path d="M143.461 49.6018H151.771" stroke="#263238" stroke-miterlimit="10"/>
<path d="M151.826 49.8035L151.115 51.2008" stroke="#263238" stroke-miterlimit="10"/>
<path d="M143.461 51.2008H151.771" stroke="#263238" stroke-miterlimit="10"/>
<path d="M151.826 51.3989L151.115 52.7961" stroke="#263238" stroke-miterlimit="10"/>
<path d="M143.461 52.7961H151.771" stroke="#263238" stroke-miterlimit="10"/>
<path d="M151.826 52.9941L151.115 54.3914" stroke="#263238" stroke-miterlimit="10"/>
<path d="M143.461 54.3915H151.771" stroke="#263238" stroke-miterlimit="10"/>
<path d="M151.826 54.5931L151.115 55.9904" stroke="#263238" stroke-miterlimit="10"/>
<path d="M143.461 55.9904H151.771" stroke="#263238" stroke-miterlimit="10"/>
<path d="M151.826 56.1885L151.115 57.5858" stroke="#263238" stroke-miterlimit="10"/>
<path d="M143.461 57.5858H151.771" stroke="#263238" stroke-miterlimit="10"/>
<path d="M151.826 57.7838L151.115 59.1811" stroke="#263238" stroke-miterlimit="10"/>
<path d="M143.461 59.181H151.771" stroke="#263238" stroke-miterlimit="10"/>
<path d="M151.826 59.3828L151.115 60.7801" stroke="#263238" stroke-miterlimit="10"/>
<path d="M143.461 60.7801H151.771" stroke="#263238" stroke-miterlimit="10"/>
<path d="M151.826 60.9781L151.115 62.3754" stroke="#263238" stroke-miterlimit="10"/>
<path d="M143.461 62.3754H151.771" stroke="#263238" stroke-miterlimit="10"/>
<path d="M151.826 62.5734L151.115 63.9707" stroke="#263238" stroke-miterlimit="10"/>
<path d="M143.461 63.9707H151.771" stroke="#263238" stroke-miterlimit="10"/>
<path d="M151.826 64.1724L151.115 65.5696" stroke="#263238" stroke-miterlimit="10"/>
<path d="M143.461 65.5697H151.771" stroke="#263238" stroke-miterlimit="10"/>
<path d="M151.826 65.7678L151.115 67.165" stroke="#263238" stroke-miterlimit="10"/>
<path d="M143.461 67.165H151.771" stroke="#263238" stroke-miterlimit="10"/>
<path d="M151.826 67.3666L151.115 68.7602" stroke="#263238" stroke-miterlimit="10"/>
<path d="M143.461 68.7603H151.771" stroke="#263238" stroke-miterlimit="10"/>
<path d="M151.826 68.962L151.115 70.3593" stroke="#263238" stroke-miterlimit="10"/>
<path d="M143.461 70.3593H151.771" stroke="#263238" stroke-miterlimit="10"/>
<path d="M151.826 70.5574L151.115 71.9546" stroke="#263238" stroke-miterlimit="10"/>
<path d="M143.461 71.9547H151.771" stroke="#263238" stroke-miterlimit="10"/>
<path d="M151.826 72.1563L151.115 73.5536" stroke="#263238" stroke-miterlimit="10"/>
<path d="M143.461 73.5536H151.771" stroke="#263238" stroke-miterlimit="10"/>
<path d="M151.826 73.7516L151.115 75.1489" stroke="#263238" stroke-miterlimit="10"/>
<path d="M143.461 75.1489H151.771" stroke="#263238" stroke-miterlimit="10"/>
<path d="M151.826 75.3469L151.115 76.7442" stroke="#263238" stroke-miterlimit="10"/>
<path d="M143.461 76.7443H151.771" stroke="#263238" stroke-miterlimit="10"/>
<path d="M151.826 76.946L151.115 78.3433" stroke="#263238" stroke-miterlimit="10"/>
<path d="M143.461 78.3432H151.771" stroke="#263238" stroke-miterlimit="10"/>
<path d="M151.826 78.5413L151.115 79.9385" stroke="#263238" stroke-miterlimit="10"/>
<path d="M143.461 79.9385H151.771" stroke="#263238" stroke-miterlimit="10"/>
<path d="M151.826 80.1365L151.115 81.5338" stroke="#263238" stroke-miterlimit="10"/>
<path d="M143.461 81.5338H151.771" stroke="#263238" stroke-miterlimit="10"/>
<path d="M151.826 81.7355L151.115 83.1328" stroke="#263238" stroke-miterlimit="10"/>
<path d="M143.461 83.1329H151.771" stroke="#263238" stroke-miterlimit="10"/>
<path d="M151.826 83.3309L151.115 84.7281" stroke="#263238" stroke-miterlimit="10"/>
<path d="M143.461 84.7281H151.771" stroke="#263238" stroke-miterlimit="10"/>
<path d="M151.826 84.9262L151.115 86.3235" stroke="#263238" stroke-miterlimit="10"/>
<path d="M143.461 86.3234H151.771" stroke="#263238" stroke-miterlimit="10"/>
<path d="M151.826 86.5251L151.115 87.9224" stroke="#263238" stroke-miterlimit="10"/>
<path d="M143.461 87.9224H151.771" stroke="#263238" stroke-miterlimit="10"/>
<path d="M151.826 88.1205L151.115 89.5178" stroke="#263238" stroke-miterlimit="10"/>
<path d="M143.461 89.5178H151.771" stroke="#263238" stroke-miterlimit="10"/>
<path d="M151.826 89.7158L151.115 91.113" stroke="#263238" stroke-miterlimit="10"/>
<path d="M143.461 91.113H151.771" stroke="#263238" stroke-miterlimit="10"/>
<path d="M151.826 91.3148L151.115 92.712" stroke="#263238" stroke-miterlimit="10"/>
<path d="M143.461 92.712H151.771" stroke="#263238" stroke-miterlimit="10"/>
<path d="M151.826 92.9101L151.115 94.3074" stroke="#263238" stroke-miterlimit="10"/>
<path d="M143.461 94.3074H151.771" stroke="#263238" stroke-miterlimit="10"/>
<path d="M151.826 94.5091L151.115 95.9027" stroke="#263238" stroke-miterlimit="10"/>
<path d="M143.461 95.9026H151.771" stroke="#263238" stroke-miterlimit="10"/>
<path d="M151.826 96.1044L151.115 97.5016" stroke="#263238" stroke-miterlimit="10"/>
<path d="M143.461 97.5017H151.771" stroke="#263238" stroke-miterlimit="10"/>
<path d="M151.826 97.6997L151.115 99.097" stroke="#263238" stroke-miterlimit="10"/>
<path d="M143.461 99.097H151.771" stroke="#263238" stroke-miterlimit="10"/>
<path d="M151.826 99.2987L151.115 100.696" stroke="#263238" stroke-miterlimit="10"/>
<path d="M161.16 21.0622L160.452 22.4595" stroke="#263238" stroke-miterlimit="10"/>
<path d="M152.798 22.4595H161.108" stroke="#263238" stroke-miterlimit="10"/>
<path d="M161.16 22.6611L160.452 24.0584" stroke="#263238" stroke-miterlimit="10"/>
<path d="M152.798 24.0585H161.108" stroke="#263238" stroke-miterlimit="10"/>
<path d="M161.16 24.2565L160.452 25.6537" stroke="#263238" stroke-miterlimit="10"/>
<path d="M152.798 25.6537H161.108" stroke="#263238" stroke-miterlimit="10"/>
<path d="M161.16 25.8518L160.452 27.2491" stroke="#263238" stroke-miterlimit="10"/>
<path d="M152.798 27.2491H161.108" stroke="#263238" stroke-miterlimit="10"/>
<path d="M161.16 27.4507L160.452 28.848" stroke="#263238" stroke-miterlimit="10"/>
<path d="M152.798 28.8481H161.108" stroke="#263238" stroke-miterlimit="10"/>
<path d="M161.16 29.0461L160.452 30.4434" stroke="#263238" stroke-miterlimit="10"/>
<path d="M152.798 30.4434H161.108" stroke="#263238" stroke-miterlimit="10"/>
<path d="M161.16 30.6451L160.452 32.0387" stroke="#263238" stroke-miterlimit="10"/>
<path d="M152.798 32.0387H161.108" stroke="#263238" stroke-miterlimit="10"/>
<path d="M161.16 32.2404L160.452 33.6377" stroke="#263238" stroke-miterlimit="10"/>
<path d="M152.798 33.6376H161.108" stroke="#263238" stroke-miterlimit="10"/>
<path d="M161.16 33.8358L160.452 35.233" stroke="#263238" stroke-miterlimit="10"/>
<path d="M152.798 35.233H161.108" stroke="#263238" stroke-miterlimit="10"/>
<path d="M161.16 35.4347L160.452 36.8283" stroke="#263238" stroke-miterlimit="10"/>
<path d="M152.798 36.8283H161.108" stroke="#263238" stroke-miterlimit="10"/>
<path d="M161.16 37.03L160.452 38.4273" stroke="#263238" stroke-miterlimit="10"/>
<path d="M152.798 38.4273H161.108" stroke="#263238" stroke-miterlimit="10"/>
<path d="M161.16 38.6253L160.452 40.0226" stroke="#263238" stroke-miterlimit="10"/>
<path d="M152.798 40.0226H161.108" stroke="#263238" stroke-miterlimit="10"/>
<path d="M161.16 40.2243L160.452 41.6216" stroke="#263238" stroke-miterlimit="10"/>
<path d="M152.798 41.6216H161.108" stroke="#263238" stroke-miterlimit="10"/>
<path d="M161.16 41.8196L160.452 43.2169" stroke="#263238" stroke-miterlimit="10"/>
<path d="M152.798 43.2169H161.108" stroke="#263238" stroke-miterlimit="10"/>
<path d="M161.16 43.4149L160.452 44.8122" stroke="#263238" stroke-miterlimit="10"/>
<path d="M152.798 44.8122H161.108" stroke="#263238" stroke-miterlimit="10"/>
<path d="M161.16 45.0139L160.452 46.4112" stroke="#263238" stroke-miterlimit="10"/>
<path d="M152.798 46.4112H161.108" stroke="#263238" stroke-miterlimit="10"/>
<path d="M161.16 46.6092L160.452 48.0065" stroke="#263238" stroke-miterlimit="10"/>
<path d="M152.798 48.0065H161.108" stroke="#263238" stroke-miterlimit="10"/>
<path d="M161.16 48.2046L160.452 49.6019" stroke="#263238" stroke-miterlimit="10"/>
<path d="M152.798 49.6018H161.108" stroke="#263238" stroke-miterlimit="10"/>
<path d="M161.16 49.8035L160.452 51.2008" stroke="#263238" stroke-miterlimit="10"/>
<path d="M152.798 51.2008H161.108" stroke="#263238" stroke-miterlimit="10"/>
<path d="M161.16 51.3989L160.452 52.7961" stroke="#263238" stroke-miterlimit="10"/>
<path d="M152.798 52.7961H161.108" stroke="#263238" stroke-miterlimit="10"/>
<path d="M161.16 52.9941L160.452 54.3914" stroke="#263238" stroke-miterlimit="10"/>
<path d="M152.798 54.3915H161.108" stroke="#263238" stroke-miterlimit="10"/>
<path d="M161.16 54.5931L160.452 55.9904" stroke="#263238" stroke-miterlimit="10"/>
<path d="M152.798 55.9904H161.108" stroke="#263238" stroke-miterlimit="10"/>
<path d="M161.16 56.1885L160.452 57.5858" stroke="#263238" stroke-miterlimit="10"/>
<path d="M152.798 57.5858H161.108" stroke="#263238" stroke-miterlimit="10"/>
<path d="M161.16 57.7838L160.452 59.1811" stroke="#263238" stroke-miterlimit="10"/>
<path d="M152.798 59.181H161.108" stroke="#263238" stroke-miterlimit="10"/>
<path d="M161.16 59.3828L160.452 60.7801" stroke="#263238" stroke-miterlimit="10"/>
<path d="M152.798 60.7801H161.108" stroke="#263238" stroke-miterlimit="10"/>
<path d="M161.16 60.9781L160.452 62.3754" stroke="#263238" stroke-miterlimit="10"/>
<path d="M152.798 62.3754H161.108" stroke="#263238" stroke-miterlimit="10"/>
<path d="M161.16 62.5734L160.452 63.9707" stroke="#263238" stroke-miterlimit="10"/>
<path d="M152.798 63.9707H161.108" stroke="#263238" stroke-miterlimit="10"/>
<path d="M161.16 64.1724L160.452 65.5696" stroke="#263238" stroke-miterlimit="10"/>
<path d="M152.798 65.5697H161.108" stroke="#263238" stroke-miterlimit="10"/>
<path d="M161.16 65.7678L160.452 67.165" stroke="#263238" stroke-miterlimit="10"/>
<path d="M152.798 67.165H161.108" stroke="#263238" stroke-miterlimit="10"/>
<path d="M161.16 67.3666L160.452 68.7602" stroke="#263238" stroke-miterlimit="10"/>
<path d="M152.798 68.7603H161.108" stroke="#263238" stroke-miterlimit="10"/>
<path d="M161.16 68.962L160.452 70.3593" stroke="#263238" stroke-miterlimit="10"/>
<path d="M152.798 70.3593H161.108" stroke="#263238" stroke-miterlimit="10"/>
<path d="M161.16 70.5574L160.452 71.9546" stroke="#263238" stroke-miterlimit="10"/>
<path d="M152.798 71.9547H161.108" stroke="#263238" stroke-miterlimit="10"/>
<path d="M161.16 72.1563L160.452 73.5536" stroke="#263238" stroke-miterlimit="10"/>
<path d="M152.798 73.5536H161.108" stroke="#263238" stroke-miterlimit="10"/>
<path d="M161.16 73.7516L160.452 75.1489" stroke="#263238" stroke-miterlimit="10"/>
<path d="M152.798 75.1489H161.108" stroke="#263238" stroke-miterlimit="10"/>
<path d="M161.16 75.3469L160.452 76.7442" stroke="#263238" stroke-miterlimit="10"/>
<path d="M152.798 76.7443H161.108" stroke="#263238" stroke-miterlimit="10"/>
<path d="M161.16 76.946L160.452 78.3433" stroke="#263238" stroke-miterlimit="10"/>
<path d="M152.798 78.3432H161.108" stroke="#263238" stroke-miterlimit="10"/>
<path d="M161.16 78.5413L160.452 79.9385" stroke="#263238" stroke-miterlimit="10"/>
<path d="M152.798 79.9385H161.108" stroke="#263238" stroke-miterlimit="10"/>
<path d="M161.16 80.1365L160.452 81.5338" stroke="#263238" stroke-miterlimit="10"/>
<path d="M152.798 81.5338H161.108" stroke="#263238" stroke-miterlimit="10"/>
<path d="M161.16 81.7355L160.452 83.1328" stroke="#263238" stroke-miterlimit="10"/>
<path d="M152.798 83.1329H161.108" stroke="#263238" stroke-miterlimit="10"/>
<path d="M161.16 83.3309L160.452 84.7281" stroke="#263238" stroke-miterlimit="10"/>
<path d="M152.798 84.7281H161.108" stroke="#263238" stroke-miterlimit="10"/>
<path d="M161.16 84.9262L160.452 86.3235" stroke="#263238" stroke-miterlimit="10"/>
<path d="M152.798 86.3234H161.108" stroke="#263238" stroke-miterlimit="10"/>
<path d="M161.16 86.5251L160.452 87.9224" stroke="#263238" stroke-miterlimit="10"/>
<path d="M152.798 87.9224H161.108" stroke="#263238" stroke-miterlimit="10"/>
<path d="M161.16 88.1205L160.452 89.5178" stroke="#263238" stroke-miterlimit="10"/>
<path d="M152.798 89.5178H161.108" stroke="#263238" stroke-miterlimit="10"/>
<path d="M161.16 89.7158L160.452 91.113" stroke="#263238" stroke-miterlimit="10"/>
<path d="M152.798 91.113H161.108" stroke="#263238" stroke-miterlimit="10"/>
<path d="M161.16 91.3148L160.452 92.712" stroke="#263238" stroke-miterlimit="10"/>
<path d="M152.798 92.712H161.108" stroke="#263238" stroke-miterlimit="10"/>
<path d="M161.16 92.9101L160.452 94.3074" stroke="#263238" stroke-miterlimit="10"/>
<path d="M152.798 94.3074H161.108" stroke="#263238" stroke-miterlimit="10"/>
<path d="M161.16 94.5091L160.452 95.9027" stroke="#263238" stroke-miterlimit="10"/>
<path d="M152.798 95.9026H161.108" stroke="#263238" stroke-miterlimit="10"/>
<path d="M161.16 96.1044L160.452 97.5016" stroke="#263238" stroke-miterlimit="10"/>
<path d="M152.798 97.5017H161.108" stroke="#263238" stroke-miterlimit="10"/>
<path d="M161.16 97.6997L160.452 99.097" stroke="#263238" stroke-miterlimit="10"/>
<path d="M152.798 99.097H161.108" stroke="#263238" stroke-miterlimit="10"/>
<path d="M161.16 99.2987L160.452 100.696" stroke="#263238" stroke-miterlimit="10"/>
<path d="M132.25 35.4164H125.652V43.2536H132.25V35.4164Z" fill="white" stroke="#263238" stroke-miterlimit="10"/>
<path d="M132.25 24.3115H125.652V32.1487H132.25V24.3115Z" fill="white" stroke="#263238" stroke-miterlimit="10"/>
<path d="M141.015 25.6978H134.417V33.535H141.015V25.6978Z" fill="white" stroke="#263238" stroke-miterlimit="10"/>
<path d="M141.015 32.1194H134.417V39.9566H141.015V32.1194Z" fill="white" stroke="#263238" stroke-miterlimit="10"/>
<path d="M141.015 36.9787H134.417V44.8159H141.015V36.9787Z" fill="white" stroke="#263238" stroke-miterlimit="10"/>
<path d="M141.015 38.6253H134.417V46.4625H141.015V38.6253Z" fill="white" stroke="#263238" stroke-miterlimit="10"/>
<path d="M141.015 40.1876H134.417V48.0248H141.015V40.1876Z" fill="white" stroke="#263238" stroke-miterlimit="10"/>
<path d="M141.015 49.6459H134.417V57.4831H141.015V49.6459Z" fill="white" stroke="#263238" stroke-miterlimit="10"/>
<path d="M141.015 52.8548H134.417V60.692H141.015V52.8548Z" fill="white" stroke="#263238" stroke-miterlimit="10"/>
<path d="M141.015 62.4854H134.417V70.3226H141.015V62.4854Z" fill="white" stroke="#263238" stroke-miterlimit="10"/>
<path d="M141.015 70.4656H134.417V78.3029H141.015V70.4656Z" fill="white" stroke="#263238" stroke-miterlimit="10"/>
<path d="M141.015 78.4496H134.417V86.2868H141.015V78.4496Z" fill="white" stroke="#263238" stroke-miterlimit="10"/>
<path d="M141.015 80.0962H134.417V87.9334H141.015V80.0962Z" fill="white" stroke="#263238" stroke-miterlimit="10"/>
<path d="M141.015 81.7465H134.417V89.5837H141.015V81.7465Z" fill="white" stroke="#263238" stroke-miterlimit="10"/>
<path d="M141.015 83.3932H134.417V91.2304H141.015V83.3932Z" fill="white" stroke="#263238" stroke-miterlimit="10"/>
<path d="M132.25 38.5593H125.652V46.3965H132.25V38.5593Z" fill="white" stroke="#263238" stroke-miterlimit="10"/>
<path d="M132.25 44.9992H125.652V52.8364H132.25V44.9992Z" fill="white" stroke="#263238" stroke-miterlimit="10"/>
<path d="M132.25 60.8314H125.652V68.6686H132.25V60.8314Z" fill="white" stroke="#263238" stroke-miterlimit="10"/>
<path d="M132.25 62.4634H125.652V70.3006H132.25V62.4634Z" fill="white" stroke="#263238" stroke-miterlimit="10"/>
<path d="M132.25 64.0917H125.652V71.929H132.25V64.0917Z" fill="white" stroke="#263238" stroke-miterlimit="10"/>
<path d="M132.25 65.72H125.652V73.5573H132.25V65.72Z" fill="white" stroke="#263238" stroke-miterlimit="10"/>
<path d="M132.25 72.0059H125.652V79.8431H132.25V72.0059Z" fill="white" stroke="#263238" stroke-miterlimit="10"/>
<path d="M132.25 83.2612H125.652V91.0984H132.25V83.2612Z" fill="white" stroke="#263238" stroke-miterlimit="10"/>
<path d="M150.433 35.4164H143.835V43.2536H150.433V35.4164Z" fill="white" stroke="#263238" stroke-miterlimit="10"/>
<path d="M150.433 24.3115H143.835V32.1487H150.433V24.3115Z" fill="white" stroke="#263238" stroke-miterlimit="10"/>
<path d="M150.433 38.5593H143.835V46.3965H150.433V38.5593Z" fill="white" stroke="#263238" stroke-miterlimit="10"/>
<path d="M150.433 44.9992H143.835V52.8364H150.433V44.9992Z" fill="white" stroke="#263238" stroke-miterlimit="10"/>
<path d="M150.433 60.8314H143.835V68.6686H150.433V60.8314Z" fill="white" stroke="#263238" stroke-miterlimit="10"/>
<path d="M150.433 62.4634H143.835V70.3006H150.433V62.4634Z" fill="white" stroke="#263238" stroke-miterlimit="10"/>
<path d="M150.433 64.0917H143.835V71.929H150.433V64.0917Z" fill="white" stroke="#263238" stroke-miterlimit="10"/>
<path d="M150.433 65.72H143.835V73.5573H150.433V65.72Z" fill="white" stroke="#263238" stroke-miterlimit="10"/>
<path d="M150.433 72.0059H143.835V79.8431H150.433V72.0059Z" fill="white" stroke="#263238" stroke-miterlimit="10"/>
<path d="M150.433 83.2612H143.835V91.0984H150.433V83.2612Z" fill="white" stroke="#263238" stroke-miterlimit="10"/>
<path d="M159.759 35.4164H153.161V43.2536H159.759V35.4164Z" fill="white" stroke="#263238" stroke-miterlimit="10"/>
<path d="M159.759 24.3115H153.161V32.1487H159.759V24.3115Z" fill="white" stroke="#263238" stroke-miterlimit="10"/>
<path d="M159.759 44.9992H153.161V52.8364H159.759V44.9992Z" fill="white" stroke="#263238" stroke-miterlimit="10"/>
<path d="M159.759 64.0917H153.161V71.929H159.759V64.0917Z" fill="white" stroke="#263238" stroke-miterlimit="10"/>
<path d="M159.759 65.72H153.161V73.5573H159.759V65.72Z" fill="white" stroke="#263238" stroke-miterlimit="10"/>
<path d="M159.759 72.0059H153.161V79.8431H159.759V72.0059Z" fill="white" stroke="#263238" stroke-miterlimit="10"/>
<path d="M159.759 83.2612H153.161V91.0984H159.759V83.2612Z" fill="white" stroke="#263238" stroke-miterlimit="10"/>
<path d="M71.9652 128.392C71.9652 128.392 74.9541 134.374 76.7951 137.597C78.6362 140.821 84.1593 147.499 86.0003 149.791C87.8413 152.084 91.0613 156.235 91.175 156.811C91.2887 157.387 89.9097 158.766 88.4171 160.478C86.9245 162.191 85.0798 162.312 84.9624 163.357C84.8451 164.402 89.796 164.391 91.406 164.278C93.016 164.164 95.2018 161.516 96.2397 160.823C97.2775 160.13 98.3081 159.33 98.1944 158.065C98.0807 156.8 96.3607 155.648 95.6639 154.398C94.9671 153.147 91.175 143.469 89.3376 138.866C87.5003 134.264 85.4245 131.044 84.9624 130.123C84.5003 129.203 83.5835 127.593 83.5835 127.593L83.3524 125.29L71.3894 127.49L71.9652 128.392Z" fill="white" stroke="#263238" stroke-miterlimit="10"/>
<path d="M98.1942 158.098C98.1209 157.277 97.3691 156.503 96.6612 155.718C95.5586 157.022 94.2505 158.137 92.7885 159.019C92.7885 159.019 91.9816 157.981 91.6369 157.636C91.4209 157.409 91.2624 157.134 91.1748 156.833C91.2922 157.405 89.9096 158.787 88.4169 160.5C86.9243 162.213 85.0796 162.334 84.9623 163.379C84.8449 164.424 89.7959 164.413 91.4059 164.3C93.0159 164.186 95.2016 161.538 96.2395 160.845C97.2774 160.152 98.3079 159.349 98.1942 158.098Z" fill="#D18757" stroke="#263238" stroke-miterlimit="10"/>
<path d="M98.1943 158.098C98.1847 158.006 98.1675 157.916 98.143 157.827C97.6226 158.373 97.0543 158.871 96.445 159.316C94.6956 160.533 92.4549 163.203 90.9182 163.511C89.62 163.772 86.1249 163.225 85.0797 163.049C85.0164 163.153 84.9763 163.269 84.9624 163.39C84.8487 164.424 89.796 164.424 91.406 164.311C93.016 164.197 95.2017 161.549 96.2396 160.856C97.2775 160.163 98.308 159.349 98.1943 158.098Z" fill="white" stroke="#263238" stroke-miterlimit="10"/>
<path d="M70.3551 127.021C70.3551 127.021 69.5482 129.665 69.0861 132.082C68.6241 134.498 67.0177 149.109 66.2109 152.674C65.4041 156.239 64.9457 158.197 64.9457 158.197C64.9457 158.197 59.4226 158.655 57.9299 157.966C56.4373 157.277 55.1684 157.739 55.5131 158.887C55.8578 160.034 59.8847 162.682 62.3015 163.72C64.7183 164.758 68.0519 165.444 68.7414 164.754C69.4309 164.065 70.0067 159.576 70.124 158.773C70.2414 157.97 76.9124 146.806 78.1923 142.666C79.4722 138.525 79.2265 134.267 79.5712 132.764C79.916 131.26 81.8707 127.013 81.8707 127.013L70.3551 127.021Z" fill="white" stroke="#263238" stroke-miterlimit="10"/>
<path d="M57.93 157.966C56.4338 157.277 55.1685 157.739 55.5132 158.886C55.858 160.034 59.8848 162.682 62.3016 163.72C64.7184 164.758 68.0521 165.444 68.7415 164.754C69.2256 164.27 69.6547 161.919 69.9041 160.284C67.9133 160.589 65.8767 160.341 64.0179 159.565L64.9384 158.186C64.9384 158.186 59.4227 158.655 57.93 157.966Z" fill="#D18757" stroke="#263238" stroke-miterlimit="10"/>
<path d="M68.7415 164.754C68.9087 164.546 69.0333 164.307 69.1082 164.05C66.4631 164.032 63.8651 163.348 61.5534 162.062C57.9777 160.053 56.2503 158.696 55.5718 158.105C55.5075 158.224 55.4692 158.355 55.4597 158.49C55.4502 158.625 55.4697 158.76 55.5168 158.887C55.8616 160.038 59.8884 162.682 62.3052 163.72C64.722 164.758 68.052 165.433 68.7415 164.754Z" fill="white" stroke="#263238" stroke-miterlimit="10"/>
<path d="M62.0706 92.9651C62.0706 92.9651 62.0706 102.284 62.76 107.693C63.4495 113.103 63.5669 124.49 63.5669 125.638C63.5669 126.786 70.2378 129.305 76.4504 129.305C82.663 129.305 89.4513 127.472 90.9476 127.006C91.6996 126.79 92.4349 126.521 93.1481 126.199C93.1481 126.199 94.2959 112.971 94.2959 105.607C94.2959 98.2425 90.6286 91.2268 89.5797 89.9615C88.5308 88.6963 87.1629 87.2 87.1629 87.2C87.1629 87.2 78.5225 91.3514 72.3099 91.5862C66.0974 91.8209 62.6463 91.2414 62.6463 91.2414L62.0706 92.9651Z" fill="#263238" stroke="#263238" stroke-miterlimit="10"/>
<path d="M68.228 57.7948C68.228 57.7948 62.5546 59.6835 58.9092 60.6297C55.2638 61.5759 55.2638 67.7884 54.9924 69.9485C54.447 73.4416 53.5878 76.8784 52.4252 80.2172C51.0756 84.134 50.6722 87.1046 53.1 87.9188C55.5278 88.7329 57.1525 87.3797 58.6378 86.2978C60.1231 85.2159 61.8797 83.0595 61.8797 83.0595C61.8797 83.0595 61.0693 92.3783 61.8797 93.8636C62.6902 95.3489 67.1498 95.888 72.6876 95.7523C78.2253 95.6166 84.5699 92.3783 86.1909 89.9468C87.8119 87.5153 88.0833 86.7049 87.5442 83.7343C87.0051 80.7637 82.2741 68.3312 77.8182 62.5294C73.3624 56.7276 68.228 57.7948 68.228 57.7948Z" fill="#D18757" stroke="#263238" stroke-miterlimit="10"/>
<path d="M59.3456 74.1147C59.2013 73.4696 59.102 72.8152 59.0486 72.1563" stroke="#263238" stroke-miterlimit="10"/>
<path d="M61.6158 82.4287C61.6158 82.4287 60.4386 78.7209 59.6794 75.5927" stroke="#263238" stroke-miterlimit="10"/>
<path d="M68.228 57.7948C68.228 57.7948 63.4604 59.3828 59.8553 60.362C59.9287 62.225 60.5228 66.6552 64.4469 67.5024C69.2145 68.5329 71.415 61.0954 71.7084 58.0588C70.5829 57.7099 69.3932 57.6197 68.228 57.7948Z" fill="white" stroke="#263238" stroke-miterlimit="10"/>
<path d="M62.4483 64.1614L61.6818 59.7092L59.9838 60.9377C57.9887 61.7042 55.0695 58.3266 53.3825 55.7154C51.6955 53.1042 49.3887 45.5824 49.3887 45.5824C49.3887 45.5824 49.3887 44.5078 57.0645 41.4345C64.7404 38.3613 68.2757 38.673 70.2671 39.9016C71.1487 40.4003 71.8654 41.1456 72.3292 42.046C72.7931 42.9464 72.9839 43.9626 72.8783 44.9699C72.7243 46.965 71.6498 48.6373 70.8833 49.2681C70.2426 49.8637 69.675 50.5334 69.1926 51.2632C68.7562 52.1779 68.5462 53.1842 68.5801 54.1971C68.5801 56.0308 69.3466 60.9524 69.3466 60.9524" fill="white"/>
<path d="M62.4483 64.1614L61.6818 59.7092L59.9838 60.9378C57.9887 61.7042 55.0695 58.3266 53.3825 55.7154C51.6955 53.1042 49.3887 45.5824 49.3887 45.5824C49.3887 45.5824 49.3887 44.5078 57.0645 41.4345C64.7404 38.3613 68.2757 38.673 70.2671 39.9016C71.1487 40.4003 71.8654 41.1456 72.3292 42.046C72.7931 42.9464 72.9839 43.9626 72.8783 44.9699C72.7243 46.965 71.6498 48.6373 70.8833 49.2681C70.2426 49.8637 69.675 50.5334 69.1926 51.2632C68.7562 52.1779 68.5462 53.1842 68.5801 54.1971C68.5801 56.0308 69.3466 60.9524 69.3466 60.9524" stroke="#263238" stroke-miterlimit="10"/>
<path d="M55.8469 49.4222L56.4594 54.0284L58.15 53.5663" stroke="#263238" stroke-miterlimit="10"/>
<path d="M59.2246 50.1886C59.8026 50.489 60.4538 50.6194 61.1029 50.5649C61.7519 50.5104 62.3722 50.2731 62.892 49.8806" stroke="#263238" stroke-miterlimit="10"/>
<path d="M52.0988 50.8121C52.0988 50.8121 53.2246 51.6959 54.9116 50.8928" stroke="#263238" stroke-miterlimit="10"/>
<path d="M60.2992 50.57C60.2992 50.57 60.4569 51.3732 61.0327 51.3035C61.6085 51.2338 61.6745 50.57 61.6745 50.57C61.2171 50.6141 60.7566 50.6141 60.2992 50.57Z" fill="#263238" stroke="#263238" stroke-miterlimit="10"/>
<path d="M52.8251 51.2119C52.8251 51.2119 52.9828 52.015 53.5586 51.9453C54.1343 51.8757 54.2003 51.2119 54.2003 51.2119C53.743 51.2559 53.2824 51.2559 52.8251 51.2119Z" fill="#263238" stroke="#263238" stroke-miterlimit="10"/>
<path d="M58.6891 47.1961C58.6891 47.1961 60.9409 46.6313 62.9506 47.6765" stroke="#263238" stroke-width="2" stroke-miterlimit="10" stroke-linecap="round"/>
<path d="M54.754 47.5958C54.754 47.5958 52.5022 47.4344 51.215 48.5603" stroke="#263238" stroke-width="2" stroke-miterlimit="10" stroke-linecap="round"/>
<path d="M61.6232 59.5918L65.4629 56.4782L62.1696 62.2654L61.6232 59.5918Z" fill="#263238"/>
<path d="M57.215 56.878L58.4399 56.6323" stroke="#263238" stroke-miterlimit="10"/>
<path d="M75.0201 38.3393C73.4834 32.2037 69.1523 32.0057 68.9579 32.002L67.2672 31.9397L68.9175 31.6279C69.0239 31.6059 71.5507 31.1365 73.6485 31.7526L73.5458 32.1194C72.4178 31.8344 71.2486 31.7488 70.0911 31.8663C71.6131 32.3394 74.2499 33.7954 75.3648 38.2549L75.0201 38.3393Z" fill="#263238"/>
<path d="M69.7867 54.5491C68.7708 53.2802 69.0128 51.3218 69.0238 51.2485L69.2329 49.6385L69.3869 51.2558C69.4719 51.8635 69.7742 52.4198 70.2377 52.8218C70.5402 53.0379 70.8835 53.19 71.2467 53.2688C71.6099 53.3476 71.9854 53.3515 72.3502 53.2802L72.3978 53.647C71.983 53.7258 71.5564 53.7186 71.1445 53.6259C70.7326 53.5332 70.3441 53.3568 70.003 53.1078C69.7526 52.9041 69.5424 52.6553 69.3832 52.3744C69.4213 53.0796 69.6605 53.7592 70.0727 54.3328L69.7867 54.5491Z" fill="#263238"/>
<path d="M61.7331 29.8199C61.7331 29.8199 54.8677 30.1867 47.797 35.7281C40.7263 41.2695 42.6333 47.4234 44.9364 47.8855C47.2396 48.3476 50.6172 46.5029 50.6172 46.5029C50.6172 46.5029 54.9154 47.8855 57.6806 46.6569C60.4458 45.4283 64.1316 41.2842 64.1316 41.2842C64.1316 41.2842 63.0534 46.1948 65.3602 46.1948C66.0108 46.2103 66.6581 46.0964 67.2643 45.8597C67.8706 45.6229 68.4238 45.2682 68.8919 44.8159C68.8919 44.8159 70.4248 41.2842 71.0409 42.0507C71.6571 42.8172 72.8746 44.5078 71.8074 46.0445C71.1629 46.9621 70.2511 47.6588 69.1962 48.0395C69.1962 48.0395 68.2757 50.1886 69.1962 51.2632C70.1168 52.3377 72.5739 50.3427 73.4981 48.3476C74.4223 46.3525 73.9565 41.1302 73.19 38.3649C72.4236 35.5997 71.096 33.0472 68.9432 31.8186C69.5173 31.8083 70.0713 31.6057 70.5168 31.2434C70.9622 30.8811 71.2733 30.3799 71.4004 29.8199C71.8624 27.8249 69.4053 24.7552 65.7196 24.6012C62.0338 24.4472 58.1941 26.1342 58.9642 28.1329C59.1647 28.6873 59.5484 29.1567 60.0519 29.4635C60.5554 29.7702 61.1485 29.896 61.7331 29.8199Z" fill="#263238" stroke="#263238" stroke-miterlimit="10"/>
<path d="M62.9616 94.6521C62.9616 94.6521 62.2281 92.6974 61.7404 92.4517C61.2526 92.206 58.9495 95.6423 57.0938 97.9528C55.8285 99.5298 54.2809 102.599 55.1391 104.187C55.9972 105.775 60.6402 107 62.4739 106.388C64.3076 105.775 64.4286 103.821 64.4286 101.62C64.4286 99.4197 64.6743 96.3648 64.3076 95.5066C64.1835 95.2542 63.9922 95.0409 63.7548 94.8901C63.5173 94.7394 63.2429 94.657 62.9616 94.6521Z" fill="#999999" stroke="#263238" stroke-miterlimit="10"/>
<path d="M59.0485 105.409C59.3162 105.874 59.9433 106.267 60.7135 106.527C61.3038 106.592 61.901 106.544 62.4738 106.388C64.3075 105.775 64.4286 103.821 64.4286 101.62C64.4286 99.4197 64.6743 96.3648 64.3075 95.5066C64.1835 95.2542 63.9922 95.0408 63.7547 94.8901C63.5173 94.7393 63.2428 94.657 62.9616 94.6521C62.9616 94.6521 58.5607 104.554 59.0485 105.409Z" fill="#999999" stroke="#263238" stroke-miterlimit="10"/>
<path d="M71.2756 57.4904C71.2756 57.4904 63.8162 85.8504 63.4494 88.0508C63.0827 90.2512 62.7159 97.3403 62.7159 97.3403H63.4494L64.1829 88.1718L72.3759 57.7325L71.2756 57.4904Z" fill="#999999" stroke="#263238" stroke-miterlimit="10"/>
<path d="M55.8469 82.9164C57.8713 82.3773 64.0436 79.6671 64.0436 79.6671C64.1921 80.7472 64.1462 81.8452 63.9079 82.9091C63.5008 84.3944 59.1769 89.3417 56.3384 90.794C52.4289 92.7964 50.4705 89.7341 50.6796 87.5814C50.8011 86.1472 51.0929 84.7327 51.5487 83.3675" fill="#D18757"/>
<path d="M55.8469 82.9164C57.8713 82.3773 64.0436 79.6671 64.0436 79.6671C64.1921 80.7472 64.1462 81.8452 63.9079 82.9091C63.5008 84.3944 59.1769 89.3417 56.3384 90.794C52.4289 92.7964 50.4705 89.7341 50.6796 87.5814C50.8011 86.1472 51.0929 84.7327 51.5487 83.3675" stroke="#263238" stroke-miterlimit="10"/>
<path d="M68.9176 77.0743C68.9176 77.0743 70.5019 77.0743 70.7513 77.3897C71.0006 77.7051 71.0703 79.3664 70.5936 79.5901C70.1168 79.8138 69.5667 79.2747 69.5667 78.798C69.5667 78.3212 68.6938 78.5632 68.6938 78.5632L68.9176 77.0743Z" fill="white" stroke="#263238" stroke-miterlimit="10"/>
<path d="M62.6903 80.6207C62.6903 80.6207 63.9079 77.6464 64.447 76.4325C64.9861 75.2186 65.9323 74.8115 66.3394 74.8115C66.7464 74.8115 69.4456 76.2785 69.4456 76.8359C69.4456 77.3934 68.4995 81.5632 67.8247 81.9703C67.1499 82.3774 67.0142 82.7808 66.2037 82.9165C65.3932 83.0522 63.0974 82.2417 63.0974 82.2417C63.0974 82.2417 62.6903 82.106 62.6903 80.6207Z" fill="white" stroke="#263238" stroke-miterlimit="10"/>
<path d="M69.0386 78.3248L65.5289 76.7039" stroke="#263238" stroke-miterlimit="10"/>
<path d="M65.1217 79.1354L68.6351 80.2136" stroke="#263238" stroke-miterlimit="10"/>
<path d="M65.2794 80.9507L67.8246 81.9702" stroke="#263238" stroke-miterlimit="10"/>
<path d="M80.7889 65.4926C80.7889 65.4926 75.5225 56.4415 72.2806 56.9843C69.0386 57.5271 69.31 62.5221 71.3344 67.517C73.3588 72.512 78.6288 83.9946 79.0359 84.8051C79.0359 84.8051 71.6058 85.0765 70.3919 84.9408C69.6081 84.8451 68.8371 84.6643 68.0924 84.4017C68.0924 84.4017 66.068 82.9164 64.5827 81.8346C63.0974 80.7527 62.2869 81.6989 62.2869 82.2416C62.2934 82.6049 62.3389 82.9663 62.4226 83.3198C62.0207 84.0707 61.7891 84.9009 61.7441 85.7513C61.7441 86.9689 62.1512 87.3723 62.9617 87.7794C63.7722 88.1865 66.3394 87.7794 68.0961 87.7794C69.8527 87.7794 71.8808 89.129 71.8808 89.129C71.8808 89.129 77.0152 91.9639 81.3354 91.9639C85.6555 91.9639 88.2227 90.2072 88.3547 85.4836C88.4868 80.76 80.7889 65.4926 80.7889 65.4926Z" fill="white" stroke="#263238" stroke-miterlimit="10"/>
<path d="M80.789 65.4926C80.789 65.4926 75.5226 56.4415 72.2806 56.9843C69.0386 57.5271 69.31 62.5221 71.3344 67.517C73.3588 72.512 78.6289 83.9946 79.036 84.8051C79.036 84.8051 73.1131 85.0215 70.9677 84.9702L70.4249 88.3625C70.925 88.5791 71.407 88.8354 71.8662 89.129C71.8662 89.129 77.0005 91.9639 81.3207 91.9639C85.6409 91.9639 88.2228 90.2072 88.3548 85.4836C88.4868 80.76 80.789 65.4926 80.789 65.4926Z" fill="#D18757" stroke="#263238" stroke-miterlimit="10"/>
<path d="M80.0627 87.244L80.4442 88.1425" stroke="#263238" stroke-miterlimit="10"/>
<path d="M79.0359 84.8051L79.773 86.5581" stroke="#263238" stroke-miterlimit="10"/>
<path d="M73.3 84.9629C72.3795 84.9629 71.547 84.9849 70.9786 84.9629L70.4358 88.3552C70.9359 88.5718 71.4179 88.8281 71.8771 89.1217C71.8771 89.1217 72.1045 89.2464 72.5042 89.4444L73.3 84.9629Z" fill="white" stroke="#263238" stroke-miterlimit="10"/>
<path d="M96.0783 74.045H94.1235V77.9582H96.0783V74.045Z" fill="#263238" stroke="#263238" stroke-miterlimit="10"/>
<path d="M113.19 74.045H111.236V77.9582H113.19V74.045Z" fill="#263238" stroke="#263238" stroke-miterlimit="10"/>
<path d="M116.458 50.207H91.6956C90.2292 50.207 89.0404 51.3957 89.0404 52.8622V71.7566C89.0404 73.223 90.2292 74.4118 91.6956 74.4118H116.458C117.924 74.4118 119.113 73.223 119.113 71.7566V52.8622C119.113 51.3957 117.924 50.207 116.458 50.207Z" fill="#D18757" stroke="#263238" stroke-miterlimit="10"/>
<path d="M115.262 53.5076H92.8911V67.4437H115.262V53.5076Z" fill="white" stroke="#263238" stroke-miterlimit="10"/>
<path d="M102.313 63.3913L104.077 60.6847V55.8658" stroke="#263238" stroke-miterlimit="10"/>
<path d="M104.077 54.1017V54.9232" stroke="#263238" stroke-miterlimit="10"/>
<path d="M104.077 66.0941V66.9193" stroke="#263238" stroke-miterlimit="10"/>
<path d="M110.484 60.5087H109.662" stroke="#263238" stroke-miterlimit="10"/>
<path d="M98.4914 60.5087H97.6663" stroke="#263238" stroke-miterlimit="10"/>
<path d="M107.278 54.9599L106.868 55.6714" stroke="#263238" stroke-miterlimit="10"/>
<path d="M101.282 65.3459L100.871 66.0574" stroke="#263238" stroke-miterlimit="10"/>
<path d="M109.651 57.351L108.936 57.7544" stroke="#263238" stroke-miterlimit="10"/>
<path d="M99.2174 63.2629L98.4985 63.67" stroke="#263238" stroke-miterlimit="10"/>
<path d="M98.5244 57.3034L99.2396 57.7178" stroke="#263238" stroke-miterlimit="10"/>
<path d="M108.91 63.3033L109.626 63.714" stroke="#263238" stroke-miterlimit="10"/>
<path d="M100.916 54.9343L101.323 55.6494" stroke="#263238" stroke-miterlimit="10"/>
<path d="M106.827 65.368L107.234 66.0831" stroke="#263238" stroke-miterlimit="10"/>
<path d="M116.872 26.3689H91.4463V45.1936H116.872V26.3689Z" fill="white" stroke="#263238" stroke-miterlimit="10"/>
<path d="M114.232 29.7906H94.0869V42.5054H114.232V29.7906Z" fill="#D18757"/>
<path d="M100.816 39.2744H100.123L99.0488 34.1401V39.2744H98.4216V32.8125H99.4302L100.49 37.9762L101.517 32.8125H102.525V39.2744H101.84V34.0778L100.816 39.2744Z" fill="#263238"/>
<path d="M103.208 34.3748C103.208 33.3846 103.699 32.7465 104.674 32.7465C105.65 32.7465 106.163 33.3846 106.163 34.3748V37.7195C106.163 38.6987 105.672 39.3442 104.674 39.3442C103.677 39.3442 103.208 38.6987 103.208 37.7195V34.3748ZM103.919 37.7562C103.919 38.3466 104.168 38.6877 104.685 38.6877C105.203 38.6877 105.452 38.3466 105.452 37.7562V34.3382C105.452 33.7551 105.214 33.403 104.685 33.403C104.157 33.403 103.919 33.7697 103.919 34.3382V37.7562Z" fill="#263238"/>
<path d="M107.495 39.2744H106.849V32.8125H107.763L109.259 37.4884V32.8125H109.897V39.2744H109.163L107.509 34.0484L107.495 39.2744Z" fill="#263238"/>
<path d="M95.3595 23.6807H93.8926V28.0816H95.3595V23.6807Z" fill="#263238"/>
<path d="M101.715 23.6807H100.248V28.0816H101.715V23.6807Z" fill="#263238"/>
<path d="M108.07 23.6807H106.604V28.0816H108.07V23.6807Z" fill="#263238"/>
<path d="M114.43 23.6807H112.963V28.0816H114.43V23.6807Z" fill="#263238"/>
</svg>
