<svg width="194" height="174" viewBox="0 0 194 174" fill="none" xmlns="http://www.w3.org/2000/svg">
<circle cx="93" cy="87" r="87" fill="#D0F5FF"/>
<path d="M1 138.209H190.368" stroke="#263238" stroke-linecap="round" stroke-linejoin="round"/>
<path d="M174.886 104.296C174.888 104.29 174.888 104.282 174.885 104.275C174.882 104.269 174.876 104.264 174.87 104.261C174.863 104.259 174.855 104.259 174.848 104.262C174.842 104.265 174.837 104.271 174.834 104.277C174.048 106.162 173.426 108.111 172.976 110.103C172.521 112.096 172.179 114.114 171.95 116.146L171.806 117.672C171.781 117.928 171.754 118.181 171.738 118.437L171.694 119.204C171.672 119.713 171.643 120.224 171.626 120.736V122.271L171.645 123.038C171.645 123.294 171.675 123.549 171.692 123.805C171.73 124.314 171.762 124.826 171.809 125.334C171.906 126.352 172.059 127.364 172.217 128.371C172.218 128.377 172.221 128.383 172.226 128.387C172.231 128.391 172.238 128.393 172.244 128.393C172.247 128.393 172.251 128.392 172.254 128.39C172.257 128.389 172.26 128.387 172.262 128.384C172.265 128.382 172.266 128.379 172.267 128.376C172.268 128.372 172.269 128.369 172.268 128.365C172.268 127.854 172.247 127.345 172.233 126.836C172.219 126.327 172.176 125.821 172.181 125.313C172.187 124.804 172.181 124.295 172.165 123.789V123.027V122.268V120.747L172.208 119.226V118.467C172.208 118.211 172.238 117.961 172.252 117.708L172.345 116.187C172.519 114.164 172.807 112.153 173.207 110.163C173.596 108.163 174.158 106.2 174.886 104.296Z" fill="#263238"/>
<path d="M175.106 112.247C175.107 112.24 175.106 112.233 175.103 112.227C175.099 112.221 175.094 112.217 175.087 112.214C175.084 112.213 175.081 112.212 175.077 112.213C175.074 112.213 175.07 112.214 175.067 112.215C175.064 112.217 175.061 112.219 175.059 112.221C175.057 112.224 175.055 112.227 175.055 112.231C174.185 114.767 173.607 117.394 173.332 120.061C173.196 121.392 173.06 122.725 173.03 124.064C172.997 125.402 173.044 126.741 173.172 128.074C173.172 128.088 173.172 128.099 173.196 128.099C173.2 128.1 173.204 128.1 173.207 128.099C173.211 128.098 173.214 128.096 173.217 128.094C173.22 128.091 173.222 128.088 173.224 128.085C173.225 128.082 173.226 128.078 173.226 128.074C173.381 126.744 173.474 125.413 173.566 124.085C173.659 122.758 173.675 121.427 173.762 120.097C173.945 117.442 174.396 114.812 175.106 112.247Z" fill="#263238"/>
<path d="M179.514 115.044C179.509 115.04 179.502 115.037 179.495 115.037C179.488 115.037 179.481 115.04 179.476 115.044C178.374 115.753 177.381 116.619 176.529 117.615C176.1 118.116 175.714 118.652 175.376 119.218L175.139 119.664L174.954 120.129C174.89 120.282 174.836 120.44 174.793 120.6C174.744 120.758 174.69 120.916 174.649 121.076C174.31 122.347 174.106 123.65 174.04 124.964C173.973 126.271 174.022 127.581 174.184 128.88C174.185 128.886 174.188 128.891 174.193 128.895C174.197 128.9 174.202 128.903 174.208 128.904C174.212 128.904 174.216 128.904 174.22 128.903C174.223 128.902 174.227 128.9 174.229 128.897C174.232 128.895 174.234 128.891 174.236 128.888C174.238 128.884 174.238 128.881 174.238 128.877L174.576 125.002C174.668 123.724 174.831 122.453 175.065 121.193C175.101 121.035 175.144 120.883 175.185 120.728C175.222 120.574 175.268 120.422 175.321 120.273L175.479 119.825L175.68 119.4C175.988 118.838 176.341 118.302 176.736 117.797C177.524 116.77 178.457 115.862 179.506 115.104C179.514 115.105 179.522 115.103 179.528 115.098C179.535 115.093 179.539 115.086 179.54 115.078C179.541 115.07 179.539 115.062 179.534 115.056C179.529 115.049 179.522 115.045 179.514 115.044Z" fill="#263238"/>
<path d="M177.381 120.026C176.807 120.443 176.346 120.997 176.04 121.637C175.717 122.265 175.465 122.928 175.289 123.612C175.237 123.781 175.193 123.952 175.158 124.124L175.036 124.638C174.97 124.984 174.927 125.334 174.905 125.685C174.905 126.036 174.905 126.387 174.905 126.738C174.93 127.09 174.975 127.44 175.041 127.786C175.042 127.791 175.045 127.796 175.049 127.8C175.053 127.804 175.057 127.806 175.063 127.808C175.066 127.808 175.07 127.808 175.074 127.808C175.077 127.807 175.081 127.806 175.084 127.804C175.087 127.802 175.089 127.799 175.091 127.796C175.093 127.793 175.095 127.789 175.095 127.786C175.177 127.446 175.238 127.102 175.28 126.755C175.335 126.414 175.389 126.074 175.43 125.734C175.471 125.394 175.525 125.06 175.55 124.719C175.574 124.379 175.623 124.039 175.697 123.707C175.815 123.037 176.007 122.381 176.271 121.754C176.507 121.111 176.893 120.535 177.397 120.072C177.401 120.067 177.404 120.061 177.404 120.054C177.404 120.048 177.401 120.042 177.397 120.037C177.395 120.034 177.393 120.031 177.39 120.03C177.387 120.028 177.384 120.026 177.381 120.026Z" fill="#263238"/>
<path d="M171.196 123.909C171.052 122.189 170.769 120.483 170.5 118.78C170.23 117.076 169.934 115.379 169.624 113.684C169.314 111.988 168.963 110.301 168.598 108.617C168.596 108.612 168.593 108.607 168.588 108.604C168.583 108.6 168.578 108.599 168.572 108.599C168.566 108.599 168.561 108.6 168.556 108.604C168.552 108.607 168.548 108.612 168.546 108.617C168.84 110.315 169.107 112.016 169.363 113.719C169.618 115.422 169.866 117.123 170.081 118.831C170.296 120.54 170.454 122.249 170.669 123.955L171.297 129.078C171.299 129.085 171.302 129.09 171.307 129.095C171.312 129.099 171.318 129.102 171.324 129.103C171.328 129.103 171.331 129.102 171.335 129.101C171.338 129.099 171.341 129.097 171.344 129.095C171.346 129.092 171.348 129.089 171.349 129.086C171.351 129.083 171.351 129.079 171.351 129.076C171.371 128.643 171.371 128.213 171.381 127.78C171.392 127.348 171.365 126.915 171.357 126.485C171.335 125.631 171.262 124.771 171.196 123.909Z" fill="#263238"/>
<path d="M170.165 123.884C170.073 123.201 169.947 122.524 169.817 121.849L169.577 120.845C169.496 120.51 169.422 120.173 169.324 119.844C168.981 118.508 168.541 117.2 168.007 115.928L167.803 115.455L167.572 114.992C167.428 114.679 167.251 114.383 167.082 114.083C166.745 113.48 166.328 112.926 165.842 112.435C165.836 112.431 165.829 112.428 165.823 112.428C165.816 112.428 165.809 112.431 165.804 112.435C165.799 112.44 165.796 112.447 165.796 112.454C165.796 112.461 165.799 112.468 165.804 112.473C166.256 112.981 166.639 113.547 166.941 114.157C167.091 114.464 167.248 114.764 167.376 115.082L167.578 115.55L167.757 116.026C168.234 117.302 168.616 118.61 168.903 119.942C169.06 120.605 169.175 121.28 169.292 121.947L169.455 122.956C169.512 123.291 169.583 123.623 169.632 123.963C169.738 124.635 169.863 125.304 169.98 125.979C170.097 126.654 170.209 127.34 170.35 128.003C170.352 128.009 170.355 128.015 170.36 128.019C170.365 128.023 170.371 128.025 170.377 128.025C170.384 128.024 170.391 128.021 170.395 128.016C170.4 128.011 170.403 128.005 170.405 127.998C170.405 127.311 170.388 126.623 170.356 125.936C170.307 125.253 170.236 124.57 170.165 123.884Z" fill="#263238"/>
<path d="M168.742 123.971C168.421 123.068 168.054 122.186 167.654 121.318C167.251 120.454 166.797 119.614 166.293 118.804C166.288 118.8 166.282 118.798 166.276 118.798C166.269 118.798 166.263 118.8 166.258 118.804C166.254 118.81 166.251 118.816 166.251 118.823C166.251 118.83 166.254 118.837 166.258 118.842C166.7 119.681 167.091 120.546 167.428 121.433C167.779 122.314 168.092 123.207 168.356 124.113C168.62 125.019 168.818 125.944 169.06 126.855C169.303 127.767 169.49 128.678 169.762 129.598C169.762 129.605 169.765 129.612 169.77 129.617C169.776 129.622 169.782 129.625 169.79 129.625C169.797 129.625 169.804 129.622 169.809 129.617C169.814 129.612 169.817 129.605 169.817 129.598C169.827 128.637 169.736 127.677 169.545 126.736C169.351 125.794 169.083 124.87 168.742 123.971Z" fill="#263238"/>
<path d="M168.674 126.98C168.499 126.417 168.244 125.882 167.915 125.391C167.614 124.892 167.248 124.434 166.827 124.031C166.609 123.834 166.374 123.658 166.125 123.503C165.88 123.343 165.612 123.222 165.33 123.144C165.324 123.142 165.317 123.142 165.311 123.145C165.305 123.147 165.3 123.152 165.298 123.158C165.293 123.162 165.291 123.169 165.291 123.175C165.291 123.182 165.293 123.188 165.298 123.193C165.805 123.438 166.255 123.787 166.617 124.219C166.984 124.64 167.293 125.107 167.537 125.609C167.809 126.104 167.931 126.651 168.16 127.16C168.261 127.432 168.359 127.682 168.476 127.944C168.572 128.216 168.688 128.481 168.821 128.738C168.824 128.742 168.827 128.746 168.832 128.748C168.836 128.75 168.841 128.752 168.846 128.752C168.849 128.752 168.852 128.752 168.856 128.751C168.859 128.75 168.862 128.748 168.865 128.746C168.867 128.743 168.869 128.74 168.871 128.737C168.872 128.734 168.873 128.731 168.873 128.727C168.882 128.433 168.871 128.138 168.84 127.846C168.813 127.552 168.75 127.266 168.674 126.98Z" fill="#263238"/>
<path d="M168.788 111.082C167.928 110.842 167.15 110.372 166.538 109.721C165.926 109.071 165.504 108.266 165.317 107.393C164.666 104.356 166.764 105.66 164.884 100.884C163.004 96.1094 163.436 95.0292 164.087 93.6551C164.737 92.2811 165.102 92.7137 165.678 94.5231C166.255 96.3325 168.356 99.1486 169.15 104.43C169.945 109.711 168.788 111.082 168.788 111.082Z" fill="#D18757"/>
<path d="M174.355 105.948C174.355 105.948 172.483 105.298 172.404 101.742C172.325 98.1853 173.765 98.9227 173.996 94.5122C174.227 90.1016 174.502 86.9916 175.297 86.9182C176.091 86.8447 178.189 89.0949 178.913 94.0061C179.636 98.9173 177.971 102.169 176.526 103.622C175.082 105.075 174.355 105.948 174.355 105.948Z" fill="#D18757"/>
<path d="M167.776 115.346C167.776 115.346 167.341 112.742 166.473 111.512C165.605 110.282 163.728 109.2 162.498 106.813C161.268 104.427 159.894 103.276 159.967 106.669C160.041 110.062 161.556 111.803 163.436 112.96C165.317 114.116 167.776 115.346 167.776 115.346Z" fill="#D18757"/>
<path d="M166.982 119.833C166.982 119.833 165.246 116.505 162.715 114.045C160.185 111.586 158.158 110.359 158.882 111.597C159.605 112.835 160.473 112.753 161.701 114.921C162.928 117.09 162.568 118.682 164.304 119.912C166.04 121.141 166.982 119.833 166.982 119.833Z" fill="#D18757"/>
<path d="M166.77 124.099C166.696 123.881 166.625 122.29 164.166 120.989C161.706 119.688 159.393 120.195 159.682 120.845C159.97 121.495 161.491 122.581 163.009 123.231C164.528 123.881 166.77 124.099 166.77 124.099Z" fill="#D18757"/>
<path d="M174.211 115.493C174.211 115.493 173.123 114.119 173.705 111.227C174.287 108.334 175.585 109.05 177.033 107.54C178.48 106.03 178.189 105.804 179.634 104.212C181.079 102.62 182.382 101.763 182.961 102.405C183.541 103.048 182.673 105.08 181.805 106.236C180.937 107.393 179.563 107.972 178.913 109.42C178.263 110.867 178.551 113.169 176.888 114.258C175.226 115.346 174.211 115.493 174.211 115.493Z" fill="#D18757"/>
<path d="M177.827 116.287C177.827 116.287 180.431 113.324 182.311 111.153C184.191 108.982 184.915 107.322 184.986 108.767C185.057 110.212 185.636 111.371 184.118 113.251C182.6 115.131 177.827 116.287 177.827 116.287Z" fill="#D18757"/>
<path d="M176.453 121.06C176.453 121.06 176.382 119.903 180.502 117.229C184.621 114.554 186.36 114.045 185.927 115.131C185.495 116.217 183.685 117.308 181.732 119.253C179.778 121.199 176.453 121.06 176.453 121.06Z" fill="#D18757"/>
<path d="M168.96 110.775C168.96 110.775 167.994 105.586 166.982 101.899C165.97 98.2126 165.317 95.9679 165.317 95.9679" stroke="#263238" stroke-linecap="round" stroke-linejoin="round"/>
<path d="M174.189 106.002C174.189 106.002 175.947 100.378 176.527 96.98C177.106 93.5816 176.453 91.0512 176.165 89.533" stroke="#263238" stroke-linecap="round" stroke-linejoin="round"/>
<path d="M167.548 115.24C166.768 113.902 165.877 112.632 164.884 111.444C163.292 109.564 162.062 108.552 161.347 106.743" stroke="#263238" stroke-linecap="round" stroke-linejoin="round"/>
<path d="M174.211 115.493C174.211 115.493 174.791 112.021 176.165 110.214C177.539 108.408 180.287 105.589 181.37 103.779" stroke="#263238" stroke-linecap="round" stroke-linejoin="round"/>
<path d="M166.593 124.02C166.593 124.02 164.16 122.434 162.424 121.571" stroke="#263238" stroke-linecap="round" stroke-linejoin="round"/>
<path d="M173.67 139.355H170.486C170.211 139.355 169.941 139.274 169.712 139.121C169.482 138.969 169.303 138.752 169.197 138.498C168.157 136.006 165.387 128.814 167.052 126.774C168.647 124.831 175.512 124.831 177.103 126.774C178.777 128.814 175.999 136.006 174.959 138.498C174.853 138.752 174.673 138.969 174.444 139.121C174.215 139.274 173.945 139.355 173.67 139.355Z" fill="#263238" stroke="#263238" stroke-linecap="round" stroke-linejoin="round"/>
<g opacity="0.3">
<path d="M186.012 30.5089H146.572V94.2292H186.012V30.5089Z" stroke="black" stroke-linecap="round" stroke-linejoin="round"/>
<path d="M183.889 32.6258H148.853V59.6795H183.889V32.6258Z" stroke="black" stroke-linecap="round" stroke-linejoin="round"/>
<path d="M165.836 32.6258V59.6795" stroke="black" stroke-linecap="round" stroke-linejoin="round"/>
<path d="M149.021 46.6546H183.892" stroke="black" stroke-linecap="round" stroke-linejoin="round"/>
<path d="M183.889 64.4056H148.853V91.4593H183.889V64.4056Z" stroke="black" stroke-linecap="round" stroke-linejoin="round"/>
<path d="M165.836 64.4056V91.4566" stroke="black" stroke-linecap="round" stroke-linejoin="round"/>
<path d="M149.021 78.4344H183.892" stroke="black" stroke-linecap="round" stroke-linejoin="round"/>
</g>
<g opacity="0.3">
<path d="M146.611 30.5089H107.171V94.2292H146.611V30.5089Z" stroke="black" stroke-linecap="round" stroke-linejoin="round"/>
<path d="M144.491 32.6258H109.454V59.6795H144.491V32.6258Z" stroke="black" stroke-linecap="round" stroke-linejoin="round"/>
<path d="M126.438 32.6258V59.6795" stroke="black" stroke-linecap="round" stroke-linejoin="round"/>
<path d="M109.623 46.6546H144.491" stroke="black" stroke-linecap="round" stroke-linejoin="round"/>
<path d="M144.491 64.4056H109.454V91.4593H144.491V64.4056Z" stroke="black" stroke-linecap="round" stroke-linejoin="round"/>
<path d="M126.438 64.4056V91.4566" stroke="black" stroke-linecap="round" stroke-linejoin="round"/>
<path d="M109.623 78.4344H144.491" stroke="black" stroke-linecap="round" stroke-linejoin="round"/>
</g>
<g opacity="0.3">
<path d="M39.7753 33.0067H11.1598V72.0785H39.7753V33.0067Z" stroke="black" stroke-linecap="round" stroke-linejoin="round"/>
<path d="M38.4612 34.8052H12.4795V70.28H38.4612V34.8052Z" stroke="black" stroke-linecap="round" stroke-linejoin="round"/>
<path d="M30.6359 45.4874H20.302V59.5978H30.6359V45.4874Z" stroke="black" stroke-linecap="round" stroke-linejoin="round"/>
<path d="M59.4663 47.4546V35.2379H42.7846V47.4546H59.4663Z" stroke="black" stroke-linecap="round" stroke-linejoin="round"/>
<path d="M58.699 46.8941V35.8011H43.5546V46.8941H58.699Z" stroke="black" stroke-linecap="round" stroke-linejoin="round"/>
<path d="M54.1361 43.5528V39.1423H48.1121V43.5528H54.1361Z" stroke="black" stroke-linecap="round" stroke-linejoin="round"/>
<path d="M51.1268 61.8508V49.634H42.7873V61.8508H51.1268Z" stroke="black" stroke-linecap="round" stroke-linejoin="round"/>
<path d="M50.7432 61.2875V50.1945H43.171V61.2875H50.7432Z" stroke="black" stroke-linecap="round" stroke-linejoin="round"/>
<path d="M48.4631 57.9463V53.5357H45.4511V57.9463H48.4631Z" stroke="black" stroke-linecap="round" stroke-linejoin="round"/>
</g>
<path d="M111.462 42.2577L93.1752 44.6412C92.7953 44.6923 92.4302 44.8222 92.1033 45.0224C91.7764 45.2227 91.4949 45.4889 91.2767 45.8041C91.0586 46.1194 90.9086 46.4766 90.8363 46.8531C90.764 47.2296 90.7711 47.617 90.857 47.9906L93.7575 60.6127C93.9115 61.2846 94.312 61.8743 94.8798 62.2652C95.4475 62.6561 96.1412 62.8199 96.8239 62.7241L113.906 60.3297C114.609 60.2313 115.247 59.8651 115.687 59.3075C116.127 58.7498 116.335 58.0439 116.267 57.3368L115.889 53.3289L120.242 52.5127L115.473 49.1959L114.529 44.448C114.391 43.7618 113.998 43.1537 113.428 42.7469C112.859 42.3402 112.156 42.1653 111.462 42.2577Z" fill="#263238" stroke="#263238" stroke-linecap="round" stroke-linejoin="round"/>
<path d="M110.842 40.7939L92.5549 43.1801C92.1741 43.2295 91.8079 43.3581 91.4798 43.5574C91.1516 43.7568 90.8688 44.0226 90.6494 44.3378C90.4301 44.6529 90.2791 45.0105 90.2062 45.3875C90.1332 45.7644 90.1399 46.1525 90.2258 46.5267L93.1263 59.1516C93.2809 59.8237 93.6819 60.4134 94.2501 60.8043C94.8183 61.1952 95.5124 61.3589 96.1954 61.263L113.277 58.8687C113.98 58.769 114.617 58.4023 115.056 57.8449C115.496 57.2875 115.703 56.5822 115.636 55.8757L115.261 51.8597L119.614 51.0434L114.844 47.7239L113.897 42.9896C113.762 42.3039 113.371 41.6954 112.804 41.2876C112.236 40.8798 111.535 40.7033 110.842 40.7939Z" fill="white" stroke="#263238" stroke-linecap="round" stroke-linejoin="round"/>
<path d="M96.0838 51.4814C95.7515 51.5712 95.4004 51.5646 95.0717 51.4624C94.8046 51.3629 94.5793 51.1759 94.4323 50.9318C94.2666 50.6464 94.1489 50.3357 94.084 50.0122L93.6514 48.045C93.5724 47.7147 93.5485 47.3736 93.5806 47.0355C93.6103 46.7545 93.7373 46.4927 93.9398 46.2954C94.1979 46.0678 94.5146 45.917 94.854 45.8601C95.1706 45.7771 95.5033 45.7771 95.8199 45.8601C96.0656 45.9356 96.2767 46.0956 96.4158 46.3118C96.5708 46.5563 96.6788 46.8276 96.7341 47.1117L96.8348 47.5715L95.7464 47.8082L95.6322 47.2967C95.6074 47.1777 95.5747 47.0604 95.5342 46.9457C95.5054 46.8475 95.4464 46.7609 95.3655 46.6981C95.3148 46.669 95.2587 46.6509 95.2006 46.6448C95.1425 46.6387 95.0837 46.6448 95.0281 46.6628C94.9681 46.6702 94.9103 46.69 94.8583 46.7209C94.8063 46.7518 94.7613 46.7932 94.7261 46.8423C94.6736 46.9359 94.65 47.0428 94.6581 47.1498C94.6678 47.2807 94.6869 47.4107 94.7152 47.5389L95.2594 50.0285C95.288 50.1632 95.3309 50.2946 95.3873 50.4203C95.4251 50.5185 95.4951 50.601 95.5859 50.6543C95.6861 50.7024 95.8007 50.7111 95.907 50.6788C95.9642 50.6728 96.0194 50.6543 96.0688 50.6247C96.1181 50.5951 96.1604 50.555 96.1927 50.5074C96.239 50.4129 96.2569 50.3071 96.2444 50.2026C96.234 50.0754 96.215 49.949 96.1872 49.8244L96.0702 49.2802L97.1586 49.0435L97.2565 49.4952C97.325 49.7829 97.3425 50.0803 97.3082 50.374C97.2743 50.6333 97.1546 50.8737 96.9681 51.057C96.719 51.2786 96.4126 51.4257 96.0838 51.4814Z" fill="#263238"/>
<path d="M98.2986 50.9183L97.115 45.4411L98.2306 45.1962L98.723 47.4464L99.6889 47.2369L99.1829 44.984L100.298 44.7391L101.498 50.2163L100.383 50.4611L99.8386 48.0341L98.8727 48.2463L99.4033 50.6734L98.2986 50.9183Z" fill="#263238"/>
<path d="M102.342 50.0448L101.145 44.5677L103.531 44.0453L103.7 44.8153L102.429 45.0874L102.747 46.5403L103.727 46.3254L103.898 47.1036L102.916 47.3185L103.294 49.0354L104.578 48.7633L104.733 49.5007L102.342 50.0448Z" fill="#263238"/>
<path d="M105.305 49.3837L104.105 43.9066L106.494 43.3842L106.663 44.1542L105.389 44.4263L105.708 45.8819L106.69 45.667L106.859 46.4451L105.879 46.6601L106.254 48.377L107.539 48.1049L107.705 48.864L105.305 49.3837Z" fill="#263238"/>
<path d="M108.271 48.7361L107.071 43.259L108.491 42.9461C108.81 42.8683 109.14 42.8407 109.468 42.8645C109.733 42.8803 109.984 42.9903 110.175 43.1746C110.39 43.4059 110.531 43.6957 110.581 44.0072C110.627 44.2072 110.652 44.4115 110.654 44.6167C110.656 44.7882 110.621 44.958 110.551 45.1146C110.474 45.2745 110.357 45.4114 110.211 45.5119L111.552 48.0178L110.409 48.2681L109.237 45.9227L108.845 46.0098L109.389 48.4912L108.271 48.7361ZM108.698 45.3459L109.022 45.2752C109.17 45.2507 109.31 45.1879 109.427 45.0929C109.518 45.0125 109.577 44.9009 109.59 44.78C109.605 44.6268 109.594 44.4723 109.558 44.3228C109.523 44.1186 109.428 43.9292 109.286 43.7787C109.206 43.7196 109.114 43.681 109.016 43.6663C108.918 43.6516 108.818 43.6612 108.725 43.6943L108.347 43.7759L108.698 45.3459Z" fill="#263238"/>
<path d="M101.161 58.5285C100.829 58.6203 100.478 58.6203 100.146 58.5285C99.8863 58.4378 99.6673 58.2574 99.5285 58.0197C99.3589 57.7259 99.2394 57.4059 99.1748 57.0728L98.3585 53.3262L99.4605 53.084L100.315 56.9858C100.344 57.12 100.383 57.2519 100.432 57.3803C100.472 57.4928 100.542 57.5919 100.636 57.666C100.686 57.7004 100.744 57.723 100.804 57.7319C100.864 57.7409 100.926 57.736 100.984 57.7177C101.046 57.7102 101.105 57.689 101.157 57.6555C101.209 57.6221 101.254 57.5773 101.286 57.5245C101.34 57.4179 101.362 57.2978 101.349 57.1789C101.338 57.0426 101.318 56.9071 101.289 56.7735L100.435 52.8718L101.537 52.6296L102.353 56.3763C102.433 56.7055 102.459 57.0455 102.429 57.383C102.403 57.6574 102.28 57.9133 102.081 58.104C101.818 58.3259 101.5 58.4726 101.161 58.5285Z" fill="#263238"/>
<path d="M103.509 57.9354L102.312 52.4583L104.048 52.0774C104.325 52.0016 104.617 52.0016 104.894 52.0774C105.13 52.1582 105.333 52.3115 105.476 52.5154C105.643 52.7619 105.758 53.0396 105.814 53.3317C105.9 53.6469 105.9 53.9796 105.814 54.2949C105.737 54.5355 105.581 54.7428 105.37 54.8826C105.14 55.0351 104.882 55.1413 104.611 55.1955L104.102 55.307L104.622 57.6797L103.509 57.9354ZM103.934 54.5316L104.325 54.4472C104.457 54.4261 104.581 54.3707 104.684 54.2867C104.76 54.2157 104.805 54.1181 104.81 54.0146C104.815 53.8654 104.799 53.7162 104.763 53.5711C104.734 53.4302 104.69 53.2925 104.633 53.1603C104.589 53.0592 104.51 52.9778 104.41 52.9317C104.271 52.8881 104.122 52.8881 103.983 52.9317L103.599 53.0161L103.934 54.5316Z" fill="#263238"/>
<path d="M107.106 57.1463L106.897 56.1804L107.871 55.9682L108.08 56.9341L107.106 57.1463ZM107.125 55.7342L105.925 51.6773L106.946 51.4542L107.49 55.6525L107.125 55.7342Z" fill="#263238"/>
<path d="M108.777 56.7818L108.567 55.8131L109.539 55.6009L109.751 56.5695L108.777 56.7818ZM108.793 55.3669L107.596 51.3155L108.616 51.0924L109.16 55.288L108.793 55.3669Z" fill="#263238"/>
<path d="M115.68 68.2366C115.68 68.2366 117.198 69.1645 117.663 69.8882C118.128 70.612 119.658 73.2485 119.658 73.2485C119.658 73.2485 126.558 76.0836 129.839 76.7095C131.722 77.0713 135.245 80.5867 135.504 81.2588C135.762 81.9308 134.625 83.2205 134.214 83.7892C134.009 84.0487 133.751 84.2613 133.456 84.4124C133.162 84.5635 132.839 84.6498 132.508 84.6653C131.991 84.6653 129.659 83.2504 125.543 80.7391C122.931 79.1446 118.849 76.0265 118.849 76.0265C118.849 76.0265 116.197 75.7245 115.524 75.5177C114.89 75.2746 114.284 74.9625 113.718 74.5872C113.563 74.4838 113.408 69.4175 113.614 69.1645C113.941 68.8839 114.332 68.6885 114.752 68.5958C115.071 68.5028 115.381 68.3827 115.68 68.2366Z" fill="#B5B5B5" stroke="#263238" stroke-linecap="round" stroke-linejoin="round"/>
<path d="M115.125 68.4325C115.125 68.4325 113.62 68.0162 113.454 68.1822C113.288 68.3482 112.534 70.6065 112.507 70.9956C112.48 71.3847 113.538 71.7194 113.538 71.7194C113.538 71.7194 114.929 71.9425 114.986 71.8309C115.043 71.7194 115.125 68.4325 115.125 68.4325Z" fill="#B5B5B5" stroke="#263238" stroke-linecap="round" stroke-linejoin="round"/>
<path d="M115.459 70.0216C115.459 70.0216 113.231 69.4774 113.119 69.6026C112.822 70.2943 112.589 71.0121 112.423 71.7466C112.368 72.1656 113.258 72.5275 113.731 72.6935C114.205 72.8595 114.735 72.8595 114.959 72.6663C115.182 72.4731 115.459 70.0216 115.459 70.0216Z" fill="#B5B5B5" stroke="#263238" stroke-linecap="round" stroke-linejoin="round"/>
<path d="M115.266 70.8541C115.266 70.8541 112.983 70.7997 112.817 70.9956C112.651 71.1915 112.205 72.8322 112.273 72.9437C112.341 73.0553 114.722 73.5287 115.029 73.5559C115.337 73.5832 115.712 70.9956 115.266 70.8541Z" fill="#B5B5B5" stroke="#263238" stroke-linecap="round" stroke-linejoin="round"/>
<path d="M114.257 74.949C114.257 74.949 112.752 74.3069 112.586 74.0022C112.42 73.6974 112.197 73.4172 112.224 73.2512C112.251 73.0852 113.688 71.7819 113.688 71.7819C113.688 71.7819 115.38 72.6526 115.492 72.8703C115.603 73.0879 115.764 73.273 115.565 73.6076C115.367 73.9423 115.263 73.9886 115.04 73.9886C114.809 73.9477 114.585 73.8715 114.376 73.7627" fill="#B5B5B5"/>
<path d="M114.257 74.949C114.257 74.949 112.752 74.3069 112.586 74.0022C112.42 73.6974 112.197 73.4172 112.224 73.2512C112.251 73.0852 113.688 71.7819 113.688 71.7819C113.688 71.7819 115.38 72.6526 115.492 72.8703C115.603 73.0879 115.764 73.273 115.565 73.6076C115.367 73.9423 115.263 73.9886 115.04 73.9886C114.809 73.9477 114.585 73.8715 114.376 73.7627" stroke="#263238" stroke-linecap="round" stroke-linejoin="round"/>
<path d="M115.737 72.1085C116.252 72.6358 116.928 72.9782 117.658 73.0825L115.737 72.1085Z" fill="#B5B5B5"/>
<path d="M115.737 72.1085C116.252 72.6358 116.928 72.9782 117.658 73.0825" stroke="#263238" stroke-linecap="round" stroke-linejoin="round"/>
<path d="M116.093 69.5291C116.093 69.5291 115.731 71.5942 115.576 71.801C115.421 72.0078 114.855 72.0595 114.545 71.9044C114.235 71.7493 114.803 68.1849 114.803 68.1849C114.855 68.1119 114.926 68.0542 115.008 68.0183C115.09 67.9823 115.18 67.9694 115.269 67.9809C115.628 67.9809 116.455 68.7536 116.455 68.7536" fill="#B5B5B5"/>
<path d="M116.093 69.5291C116.093 69.5291 115.731 71.5942 115.576 71.801C115.421 72.0078 114.855 72.0595 114.545 71.9044C114.235 71.7493 114.803 68.1849 114.803 68.1849C114.855 68.1119 114.926 68.0542 115.008 68.0183C115.09 67.9823 115.18 67.9694 115.269 67.9809C115.628 67.9809 116.455 68.7536 116.455 68.7536" stroke="#263238" stroke-linecap="round" stroke-linejoin="round"/>
<path d="M114.349 73.3927L114.131 73.7763" stroke="#263238" stroke-linecap="round" stroke-linejoin="round"/>
<path d="M129.238 66.3701L130.666 74.1573L129.379 75.0769L129.594 76.3639C129.594 77.0768 128.666 75.934 129.094 76.636C129.521 77.338 135.126 81.6043 135.839 80.9622C136.551 80.3201 136.886 76.7748 136.886 76.7748L129.238 66.3701Z" fill="#D18757" stroke="#263238" stroke-linecap="round" stroke-linejoin="round"/>
<path d="M130.628 134.343L127.807 138.152C127.807 138.152 121.995 140.873 121.78 141.102C121.565 141.33 121.508 142.098 121.606 142.315C121.704 142.533 122.474 142.966 124.901 143.132C127.328 143.298 129.412 143.434 130.974 143.132C132.535 142.83 135.18 142.438 136.785 142.438C138.391 142.438 139.128 142.133 139.215 141.57C139.302 141.007 138.434 135.714 138.434 135.714L130.628 134.343Z" fill="white" stroke="#263238" stroke-linecap="round" stroke-linejoin="round"/>
<path d="M139.215 141.586C139.217 141.176 139.185 140.767 139.12 140.362L135.441 141.023C135.441 141.023 130.498 142.283 127.417 142.283C125.459 142.244 123.511 142.002 121.603 141.559C121.549 141.811 121.549 142.071 121.603 142.323C121.69 142.541 122.471 142.974 124.898 143.14C127.325 143.306 129.409 143.442 130.971 143.14C132.533 142.838 135.177 142.446 136.783 142.446C138.388 142.446 139.128 142.149 139.215 141.586Z" fill="white" stroke="#263238" stroke-linecap="round" stroke-linejoin="round"/>
<path d="M154.871 138.03C154.871 138.03 154.055 141.11 154.055 141.456C154.055 141.801 153.579 142.843 152.539 143.972C151.5 145.101 151.149 145.877 151.236 146.228C151.323 146.579 151.93 147.703 155.878 147.961C159.826 148.22 162.209 147.145 162.775 146.057C163.341 144.968 161.654 137.967 161.654 137.967C161.654 137.967 159.045 136.079 157.959 135.733C156.874 135.388 154.871 138.03 154.871 138.03Z" fill="white" stroke="#263238" stroke-linecap="round" stroke-linejoin="round"/>
<path d="M162.767 146.054C162.898 145.801 162.906 145.221 162.843 144.487C161.266 145.788 159.336 146.591 157.301 146.791C154.286 147.115 152.218 146.108 151.364 145.578C151.252 145.775 151.204 146.002 151.228 146.228C151.315 146.573 151.922 147.703 155.87 147.961C159.818 148.22 162.201 147.137 162.767 146.054Z" fill="white" stroke="#263238" stroke-linecap="round" stroke-linejoin="round"/>
<path d="M136.478 90.8281C136.478 90.8281 131.975 98.9908 130.917 100.623C130.174 101.777 125.516 111.572 125.516 112.609C125.516 113.645 130.917 132.39 130.917 132.39L129.689 133.9L130.163 135.219C130.163 135.219 132.34 135.878 133.648 136.161C134.957 136.444 138.745 137.113 138.745 137.113C138.745 137.113 138.557 134 138.472 133.247C138.388 132.493 137.248 131.456 137.248 131.07C137.248 130.684 134.799 113.254 134.799 113.254L143.914 100.727C143.914 100.727 144.385 113.172 144.48 113.926C144.575 114.679 153.625 133.244 153.625 133.244C153.625 133.244 152.869 134.188 152.964 134.659C153.059 135.129 154.849 138.335 154.849 138.335C154.849 138.335 156.452 136.827 157.026 136.827C157.6 136.827 161.652 137.959 161.652 137.959C161.482 137.005 161.262 136.061 160.993 135.129C160.615 133.905 161.426 134.471 160.86 133.244C160.294 132.017 154.762 112.973 154.762 112.973C154.762 112.973 156.751 94.4061 157.127 92.9912C157.502 91.5764 157.505 88.0936 157.505 88.0936L136.954 88.8473L136.478 90.8281Z" fill="#263238" stroke="#263238" stroke-linecap="round" stroke-linejoin="round"/>
<path d="M132.734 59.0673C132.734 59.0673 128.321 62.5609 128.133 63.7418C127.807 65.7416 130.609 73.371 132.81 76.5299C134.228 78.5923 135.537 80.7275 136.731 82.9267C136.731 82.9267 136.388 83.5443 136.459 83.8899C136.53 84.2354 137.077 85.5387 137.077 85.5387L135.564 92.1423C135.564 92.1423 141.952 96.1801 147.593 96.1121C153.233 96.0441 158.038 92.8008 158.174 92.5232C158.31 92.2457 156.542 81.2071 156.403 80.38C156.264 79.5528 151.315 59.7475 150.689 58.5095C150.063 57.2715 147.664 56.1723 146.287 56.1723C144.91 56.1723 138.998 57.2035 138.791 57.2035C138.584 57.2035 132.734 59.0673 132.734 59.0673Z" fill="#D18757" stroke="#263238" stroke-linecap="round" stroke-linejoin="round"/>
<path d="M138.695 83.4437C138.695 83.4437 143.721 86.3169 149.057 86.3169" stroke="#263238" stroke-linecap="round" stroke-linejoin="round"/>
<path d="M151.005 87.827C151.407 87.8125 151.818 87.788 152.237 87.7535" stroke="#263238" stroke-linecap="round" stroke-linejoin="round"/>
<path d="M142.08 86.2135C142.08 86.2135 144.924 87.5739 149.125 87.8025" stroke="#263238" stroke-linecap="round" stroke-linejoin="round"/>
<path d="M127.301 41.3381C126.264 42.4667 125.594 43.8831 125.38 45.4003C125.086 47.8491 126.196 50.2 125.973 51.1604C125.75 52.1209 124.34 53.1548 124.34 53.6718C124.34 54.1888 125.597 54.7057 125.597 54.7057C125.597 54.7057 127.23 58.7299 128.046 58.953C128.862 59.1761 131.148 57.8456 131.148 57.8456L132.402 60.7624C132.402 60.7624 135.284 67.1864 136.168 67.483C137.052 67.7796 139.561 57.2117 139.561 57.2117L137.716 53.1494C137.716 53.1494 140.807 49.6122 140.66 46.6547C140.513 43.6971 138.149 40.598 135.787 39.8525C133.425 39.1069 129.518 39.1913 127.301 41.3381Z" fill="#B5B5B5" stroke="#263238" stroke-linecap="round" stroke-linejoin="round"/>
<path d="M127.488 51.4978C127.709 51.4978 127.888 51.1384 127.888 50.6951C127.888 50.2518 127.709 49.8925 127.488 49.8925C127.267 49.8925 127.088 50.2518 127.088 50.6951C127.088 51.1384 127.267 51.4978 127.488 51.4978Z" fill="#263238"/>
<path d="M126.688 48.8966C126.688 48.8966 127.3 48.1266 128.408 48.8667" stroke="#263238" stroke-width="2" stroke-linecap="round" stroke-linejoin="round"/>
<path d="M127.447 54.9968C127.447 54.9968 129.08 54.6268 129.518 53.4459C129.518 53.4459 129.885 54.9968 129.074 55.7342C128.264 56.4715 127.447 54.9968 127.447 54.9968Z" fill="white" stroke="#263238" stroke-linecap="round" stroke-linejoin="round"/>
<path d="M140.649 46.6546C140.502 43.6998 138.138 40.598 135.776 39.8524C133.414 39.1069 129.518 39.1831 127.29 41.3244C126.802 41.8531 126.393 42.4497 126.076 43.0957L126.182 43.2454C126.182 43.2454 131.942 42.5053 132.459 42.5788C132.976 42.6522 129.801 45.8438 130.318 46.2737C130.835 46.7036 132.682 47.158 132.829 47.528C132.976 47.8981 132.013 49.449 132.609 49.7428C133.205 50.0367 134.084 50.4095 134.084 50.4095C133.893 49.9959 137.098 52.9616 137.893 52.8882C138.472 52.0665 140.782 49.1225 140.649 46.6546Z" fill="#263238" stroke="#263238" stroke-linecap="round" stroke-linejoin="round"/>
<path d="M133.357 50.638C133.357 50.638 134.309 47.9852 135.417 48.1321C136.524 48.279 137.115 49.8299 136.745 51.2339C136.375 52.6379 134.761 53.8133 134.318 53.6664" fill="#B5B5B5"/>
<path d="M133.357 50.638C133.357 50.638 134.309 47.9852 135.417 48.1321C136.524 48.279 137.115 49.8299 136.745 51.2339C136.375 52.6379 134.761 53.8133 134.318 53.6664" stroke="#263238" stroke-linecap="round" stroke-linejoin="round"/>
<path d="M131.142 57.8401L133.654 56.1396L132.397 60.7569L131.142 57.8401Z" fill="#263238" stroke="#263238" stroke-linecap="round" stroke-linejoin="round"/>
<path d="M145.525 66.0137L151.44 74.5328C151.44 74.5328 154.055 77.9012 155.5 78.8644C156.944 79.8276 157.63 79.6807 158.318 79.4086C159.007 79.1365 159.97 77.2074 160.038 76.519C160.106 75.8307 159.35 75.7028 159.494 75.0062C159.638 74.3097 160.038 74.7341 159.698 73.7682C159.358 72.8023 157.842 72.5302 157.842 72.5302C157.842 72.5302 158.185 70.9494 157.704 70.8106C157.241 70.6537 156.786 70.472 156.343 70.2665L150.292 58.0225C150.292 58.0225 148.915 56.3029 146.921 56.3709C146.334 56.3908 145.758 56.5291 145.226 56.7774C144.695 57.0257 144.219 57.3788 143.827 57.8157" fill="#D18757"/>
<path d="M145.525 66.0137L151.44 74.5328C151.44 74.5328 154.055 77.9012 155.5 78.8644C156.944 79.8276 157.63 79.6807 158.318 79.4086C159.007 79.1365 159.97 77.2074 160.038 76.519C160.106 75.8307 159.35 75.7028 159.494 75.0062C159.638 74.3097 160.038 74.7341 159.698 73.7682C159.358 72.8023 157.842 72.5302 157.842 72.5302C157.842 72.5302 158.185 70.9494 157.704 70.8106C157.241 70.6537 156.786 70.472 156.343 70.2665L150.292 58.0225C150.292 58.0225 148.915 56.3029 146.921 56.3709C146.334 56.3908 145.758 56.5291 145.226 56.7774C144.695 57.0257 144.219 57.3788 143.827 57.8157" stroke="#263238" stroke-linecap="round" stroke-linejoin="round"/>
<path d="M155.361 73.2349L156.599 71.7902" stroke="#263238" stroke-linecap="round" stroke-linejoin="round"/>
<path d="M159.211 74.1981C159.211 74.1981 157.08 73.439 156.049 73.6539L159.211 74.1981Z" fill="white"/>
<path d="M159.211 74.1981C159.211 74.1981 157.08 73.439 156.049 73.6539" stroke="#263238" stroke-linecap="round" stroke-linejoin="round"/>
<path d="M144.426 70.0705L142.57 65.5321C142.57 65.5321 140.851 64.3621 140.644 64.2941C140.437 64.2261 139.955 64.6369 139.955 64.6369C139.955 64.6369 138.717 64.2234 138.443 64.705C138.278 64.9977 138.206 65.3336 138.236 65.6681L138.649 66.2123C138.649 66.2123 138.168 68.8951 138.168 69.3087C138.168 69.7223 138.581 70.2011 139.199 70.8895C139.817 71.5779 143.463 72.7479 143.463 72.7479C143.463 72.7479 154.673 80.0371 155.707 80.3663C156.74 80.6956 158.046 80.0942 158.321 79.4059C158.596 78.7175 159.078 76.4483 158.253 75.2103C157.429 73.9723 154.194 73.0091 153.576 72.8023C152.958 72.5955 144.426 70.0705 144.426 70.0705Z" fill="#B5B5B5" stroke="#263238" stroke-linecap="round" stroke-linejoin="round"/>
<path d="M20.038 87.8351H107.566C107.876 87.8351 108.182 87.8961 108.469 88.0146C108.755 88.1332 109.015 88.307 109.234 88.526C109.453 88.7451 109.627 89.0051 109.745 89.2913C109.864 89.5775 109.925 89.8843 109.925 90.1941V114.228H17.6871V90.1914C17.6878 89.5676 17.9356 88.9695 18.3761 88.5279C18.8167 88.0864 19.4142 87.8372 20.038 87.8351Z" fill="#B5B5B5" stroke="#263238" stroke-linecap="round" stroke-linejoin="round"/>
<path d="M24.0349 106.005L29.044 113.768H22.231L24.0349 106.005Z" fill="#263238" stroke="#263238" stroke-linecap="round" stroke-linejoin="round"/>
<path d="M109.925 111.885H17.6816V120.377H109.925V111.885Z" fill="#B5B5B5" stroke="#263238" stroke-linecap="round" stroke-linejoin="round"/>
<path d="M20.0324 140.636H15.7198V143.643H20.0324V140.636Z" fill="#263238" stroke="#263238" stroke-linecap="round" stroke-linejoin="round"/>
<path d="M112.537 140.636H108.224V143.643H112.537V140.636Z" fill="#263238" stroke="#263238" stroke-linecap="round" stroke-linejoin="round"/>
<path d="M109.925 120.252H17.6816V141.997H109.925V120.252Z" fill="#B5B5B5" stroke="#263238" stroke-linecap="round" stroke-linejoin="round"/>
<path d="M106.472 103.97H114.801C115.378 103.97 115.932 104.199 116.34 104.608C116.748 105.016 116.977 105.569 116.977 106.147V141.997H104.298V106.149C104.298 105.864 104.354 105.58 104.463 105.316C104.572 105.052 104.732 104.812 104.934 104.609C105.136 104.407 105.375 104.246 105.639 104.137C105.903 104.027 106.186 103.97 106.472 103.97Z" fill="#B5B5B5" stroke="#263238" stroke-linecap="round" stroke-linejoin="round"/>
<path d="M13.535 103.97H21.8555C22.4328 103.97 22.9864 104.199 23.3946 104.608C23.8028 105.016 24.0322 105.569 24.0322 106.147V141.997H11.3556V106.149C11.3552 105.863 11.4114 105.58 11.5208 105.315C11.6302 105.05 11.7907 104.81 11.9931 104.608C12.1956 104.405 12.436 104.245 12.7006 104.135C12.9651 104.026 13.2487 103.97 13.535 103.97Z" fill="#B5B5B5" stroke="#263238" stroke-linecap="round" stroke-linejoin="round"/>
<path d="M58.7233 77.2536C58.7233 77.2536 54.0978 77.8631 52.566 80.3826C51.0341 82.9022 55.0338 92.0824 55.8963 94.5312C56.7589 96.98 58.9084 98.9581 58.9084 98.9581L57.7411 101.603C57.7411 101.603 67.0275 103.203 72.4338 104.065C77.8402 104.928 80.9828 104.247 80.9828 104.247C80.9828 104.247 79.3231 99.6981 78.4007 97.9132C77.4784 96.1284 76.0009 92.9939 76.0009 92.9939C76.0009 92.9939 76.7383 79.833 75.6336 78.4182C74.5289 77.0033 69.2967 76.6958 67.1445 76.8809C64.9922 77.0659 58.7233 77.2536 58.7233 77.2536Z" fill="#D18757" stroke="#263238" stroke-linecap="round" stroke-linejoin="round"/>
<path d="M63.3462 101.717C63.0741 101.619 62.8238 101.513 62.5681 101.396C61.4307 100.871 58.6146 99.7798 56.2883 100.599C53.2953 101.649 51.1921 113.7 50.7894 116.608C50.3867 119.517 48.444 133.834 47.9569 136.664C47.4699 139.494 47.878 141.113 48.5229 142.974C49.1677 144.835 50.4656 146.206 51.5975 145.803C52.7294 145.401 52.8899 144.266 52.8899 141.679C52.8899 139.091 51.5158 137.393 51.5158 135.614C51.5158 133.834 52.5661 131.247 52.6477 131.005C52.7294 130.762 58.065 119.278 59.7656 115.316C61.4661 111.354 61.5423 111.92 61.5423 111.92H67.852C67.852 111.92 66.799 106.751 65.5882 104.237C64.7094 102.422 63.787 101.878 63.3462 101.717Z" fill="white" stroke="#263238" stroke-linecap="round" stroke-linejoin="round"/>
<path d="M61.5423 111.92H67.852C67.852 111.92 66.799 106.751 65.5882 104.237C64.7094 102.422 63.787 101.878 63.3462 101.717C63.0741 101.619 62.8238 101.513 62.568 101.396C61.4307 100.871 58.6146 99.7798 56.2883 100.599C53.2953 101.649 51.192 113.7 50.7894 116.608C50.5554 118.279 49.818 123.704 49.1405 128.561C50.4427 129.185 51.8652 129.517 53.3089 129.535C54.8054 126.27 58.4187 118.445 59.7601 115.316C61.4715 111.354 61.5423 111.92 61.5423 111.92Z" fill="#263238" stroke="#263238" stroke-linecap="round" stroke-linejoin="round"/>
<path d="M51.5974 145.803C52.7293 145.398 53.1837 145.659 53.1837 143.083C53.1837 142.462 52.8109 140.503 52.6912 139.973C51.007 141.042 48.7677 141.042 48.7677 141.042C48.409 140.258 48.1116 139.447 47.878 138.618C47.8299 138.434 47.798 138.246 47.7828 138.057C47.6222 140.079 47.9895 141.45 48.5228 142.985C49.1704 144.832 50.4655 146.206 51.5974 145.803Z" fill="#263238" stroke="#263238" stroke-linecap="round" stroke-linejoin="round"/>
<path d="M61.7054 111.11C62.179 109.957 62.5558 108.768 62.8319 107.553" stroke="white" stroke-linecap="round" stroke-linejoin="round"/>
<path d="M80.9883 104.25C80.9883 104.25 77.0702 101.083 72.1373 100.759C67.2043 100.436 62.1108 103.186 63.4033 106.987C64.1188 109.088 80.9529 137.475 80.9529 137.475C80.9529 137.475 81.0318 139.899 80.0632 141.436C79.0946 142.974 77.7967 144.508 76.907 145.246C76.0173 145.983 77.1519 146.701 78.6075 146.701C80.0632 146.701 82.8113 145.406 83.5405 144.759C84.2697 144.111 87.7442 139.826 87.9075 138.939C88.0707 138.052 85.3172 136.835 84.0248 134.248C82.7324 131.66 80.4659 125.998 79.5762 122.763C78.73 119.688 76.02 112.007 76.02 112.007H80.6291C80.6291 112.007 82.327 112.331 82.4086 109.178C82.4902 106.024 80.9883 104.25 80.9883 104.25Z" fill="white" stroke="#263238" stroke-linecap="round" stroke-linejoin="round"/>
<path d="M79.5762 122.755C78.73 119.68 76.02 111.999 76.02 111.999H80.6291C80.6291 111.999 82.327 112.323 82.4086 109.17C82.4902 106.016 80.9883 104.25 80.9883 104.25C80.9883 104.25 77.0702 101.083 72.1373 100.759C67.2043 100.436 62.1108 103.186 63.4033 106.987C63.9229 108.511 72.9263 123.881 77.8239 132.196C79.3385 131.512 80.7202 130.565 81.9052 129.399C80.9774 127.062 80.0686 124.54 79.5762 122.755Z" fill="#263238" stroke="#263238" stroke-linecap="round" stroke-linejoin="round"/>
<path d="M70.3579 104.318C70.3579 104.318 74.0774 107.553 75.4541 110.625" stroke="white" stroke-linecap="round" stroke-linejoin="round"/>
<path d="M85.8615 136.623C84.7459 139.401 82.5692 142.408 82.5692 142.408L79.9653 141.591C79.0076 143.08 77.7696 144.541 76.9071 145.246C76.0446 145.95 77.152 146.701 78.6076 146.701C80.0633 146.701 82.8114 145.406 83.5406 144.759C84.2698 144.111 87.7443 139.826 87.9076 138.939C88.0083 138.373 86.9716 137.69 85.8615 136.623Z" fill="#263238" stroke="#263238" stroke-linecap="round" stroke-linejoin="round"/>
<path d="M63.8087 94.123C63.8087 94.123 67.3649 96.9528 68.9022 97.1949" stroke="#263238" stroke-linecap="round" stroke-linejoin="round"/>
<path d="M63.9692 95.1788C64.9347 95.8494 65.9337 96.4706 66.9622 97.0399" stroke="#263238" stroke-linecap="round" stroke-linejoin="round"/>
<path d="M57.5806 82.6464L59.7654 88.9534" stroke="#263238" stroke-linecap="round" stroke-linejoin="round"/>
<path d="M61.368 79.8357C61.368 79.8357 63.6454 85.8625 64.3828 85.4924C65.1201 85.1224 66.4751 79.4657 66.4751 79.4657L61.368 79.8357Z" fill="white" stroke="#263238" stroke-linecap="round" stroke-linejoin="round"/>
<path d="M56.6881 61.8453C56.6881 61.8453 53.2299 62.8221 52.5687 64.588C51.9075 66.3538 53.2761 70.3998 54.1686 71.1453C54.9929 71.7729 55.8582 72.3447 56.7589 72.8567L57.6948 74.2471C57.6948 74.2471 58.0812 76.6142 58.1547 77.0768C58.2281 77.5393 56.952 77.6863 56.952 77.6863C59.3761 78.4223 61.932 78.6183 64.4399 78.2604C68.5484 77.6509 70.0912 77.2101 71.0081 76.2905C71.925 75.3708 72.1645 73.1995 72.1645 73.1995C72.1645 73.1995 70.6408 74.0376 70.2163 72.152C69.7919 70.2664 70.5455 69.0747 71.2802 68.1278C72.0148 67.181 72.6406 65.1784 71.321 62.55C70.0014 59.9217 63.6481 58.047 60.4892 58.6211C57.3302 59.1952 56.3943 60.7678 56.6881 61.8453Z" fill="#263238" stroke="#263238" stroke-linecap="round" stroke-linejoin="round"/>
<path d="M57.8282 65.9185C56.4406 67.1429 54.3782 69.0964 54.6285 69.6624C55.004 70.5031 56.2202 70.7834 56.2202 70.7834" stroke="#B5B5B5" stroke-linecap="round" stroke-linejoin="round"/>
<path d="M59.0228 64.89C59.0228 64.89 58.8405 65.0396 58.5466 65.2899" stroke="#B5B5B5" stroke-linecap="round" stroke-linejoin="round"/>
<path d="M54.7211 65.075L58.5575 63.954C58.5575 63.954 57.4528 62.1636 59.5887 61.7065C62.8293 61.0154 67.6398 63.3391 69.4927 65.0287" stroke="#B5B5B5" stroke-linecap="round" stroke-linejoin="round"/>
<path d="M67.2778 65.7579C67.5819 65.996 67.856 66.2701 68.0941 66.5742" stroke="#B5B5B5" stroke-linecap="round" stroke-linejoin="round"/>
<path d="M59.8689 64.3267C59.8689 64.3267 63.8414 63.7499 66.5895 65.3008" stroke="#B5B5B5" stroke-linecap="round" stroke-linejoin="round"/>
<path d="M70.6571 64.1934C71.0081 64.6941 71.2013 65.1865 71.0979 65.6355" stroke="#B5B5B5" stroke-linecap="round" stroke-linejoin="round"/>
<path d="M65.1094 60.0223C65.1094 60.0223 68.2765 61.6766 70.007 63.4397" stroke="#B5B5B5" stroke-linecap="round" stroke-linejoin="round"/>
<path d="M60.4919 65.611C60.4919 65.611 56.933 71.1153 56.9385 71.4364C56.9439 71.7574 58.922 76.0183 59.4689 76.8455C60.0158 77.6726 62.3612 80.0833 64.6875 80.301C67.0139 80.5187 68.6954 78.3447 69.2532 74.998C69.811 71.6513 67.7295 67.8502 67.7295 67.8502L60.4919 65.611Z" fill="white" stroke="#263238" stroke-linecap="round" stroke-linejoin="round"/>
<path d="M63.5692 76.3802C63.5692 76.3802 64.497 77.0087 65.4058 76.6768" stroke="#263238" stroke-linecap="round" stroke-linejoin="round"/>
<path d="M61.7055 69.744C61.7055 69.744 60.2907 70.3399 59.8009 71.567" stroke="#263238" stroke-linecap="round" stroke-linejoin="round"/>
<path d="M62.2877 72.2635C62.3421 72.6091 62.2279 72.9166 62.032 72.9465C61.8361 72.9764 61.6293 72.7261 61.5721 72.3805C61.515 72.035 61.632 71.7302 61.8279 71.6976C62.0238 71.6649 62.2224 71.918 62.2877 72.2635Z" fill="#263238"/>
<path d="M67.1636 71.284C67.2208 71.6268 67.1065 71.9343 66.9079 71.9669C66.7093 71.9996 66.5052 71.7438 66.4508 71.3983C66.3963 71.0527 66.4807 70.9466 66.6793 70.9139C66.7361 70.8996 66.7955 70.8983 66.8529 70.9101C66.9103 70.9218 66.9643 70.9464 67.0108 70.982C67.0574 71.0176 67.0953 71.0632 67.1218 71.1155C67.1482 71.1678 67.1626 71.2254 67.1636 71.284Z" fill="#263238"/>
<path d="M65.2808 68.8679C65.2808 68.8679 66.565 69.0502 67.3078 69.9236" stroke="#263238" stroke-linecap="round" stroke-linejoin="round"/>
<path d="M62.3748 71.4663L60.696 72.5438" stroke="#263238" stroke-linecap="round" stroke-linejoin="round"/>
<path d="M65.9935 70.6718L67.4737 71.0527" stroke="#263238" stroke-linecap="round" stroke-linejoin="round"/>
<path d="M60.4919 65.611C60.4919 65.611 62.2088 67.3659 63.8413 67.6652C64.9381 67.836 66.056 67.8194 67.1472 67.6162" stroke="#263238" stroke-linecap="round" stroke-linejoin="round"/>
<path d="M57.8637 73.6376C57.8637 73.6376 56.6338 72.6309 56.4787 73.6757C56.3236 74.7205 57.2705 75.4034 57.8256 75.6864C58.3806 75.9694 59.1642 76.4891 59.1642 76.4891L57.8637 73.6376Z" fill="white" stroke="#263238" stroke-linecap="round" stroke-linejoin="round"/>
<path d="M65.2645 70.3562C65.2645 70.3562 64.9461 70.8677 65.1284 71.9887C65.3107 73.1097 66.2549 74.3287 66.1977 74.511C66.1406 74.6933 65.1475 75.1123 64.5652 75.0062" stroke="#263238" stroke-linecap="round" stroke-linejoin="round"/>
<path d="M55.7331 74.5518C55.7331 74.5518 54.7863 77.9557 54.9767 78.1924C55.1672 78.4291 60.3641 81.5472 60.3641 81.5472C60.3641 81.5472 57.2922 94.5449 56.9602 95.9679C56.6283 97.3909 56.9766 98.131 57.2459 98.852C57.8146 100.373 60.2716 101.644 60.696 101.072C60.9681 100.713 62.6006 100.256 63.0577 97.0535C63.2128 95.9651 62.7856 81.7404 62.87 81.5064C63.0136 80.8223 63.0766 80.1237 63.0577 79.4249C63.0115 78.9542 61.1368 78.4454 61.1368 78.4454C61.1368 78.4454 61.4089 77.3924 61.3572 77.2509C61.3055 77.1095 59.9396 76.0238 59.7491 76.0238H59.5668C59.339 75.8531 59.102 75.695 58.8567 75.5504C58.744 75.4995 58.6206 75.4771 58.4972 75.4852C58.3738 75.4932 58.2543 75.5315 58.1493 75.5967C58.1493 75.5967 57.0609 74.5573 56.8732 74.5573H56.6827C56.5512 74.4431 56.3831 74.3798 56.2089 74.3788C56.0348 74.3778 55.866 74.4392 55.7331 74.5518Z" fill="white" stroke="#263238" stroke-linecap="round" stroke-linejoin="round"/>
<path d="M59.5669 76.0184C59.5669 76.0184 58.6962 79.0848 58.7887 79.1311" stroke="#263238" stroke-linecap="round" stroke-linejoin="round"/>
<path d="M58.1439 75.5912C58.1439 75.5912 57.2569 78.3692 57.3031 78.4862" stroke="#263238" stroke-linecap="round" stroke-linejoin="round"/>
<path d="M56.8677 74.5518C56.8677 74.5518 56.0814 77.8386 56.1494 78.1161" stroke="#263238" stroke-linecap="round" stroke-linejoin="round"/>
<path d="M61.2621 78.0019C61.2621 78.0019 61.0689 78.576 60.99 78.576C60.7489 78.473 60.5168 78.3501 60.2961 78.2087L60.5029 77.7216" stroke="#263238" stroke-linecap="round" stroke-linejoin="round"/>
<path d="M54.0516 104.865L52.4354 104.558C52.253 104.523 52.0642 104.554 51.902 104.644C51.7399 104.735 51.6147 104.879 51.5484 105.053L49.0642 111.613C49.0241 111.719 49.0072 111.832 49.0148 111.945C49.0224 112.058 49.0543 112.169 49.1082 112.268C49.1622 112.368 49.237 112.455 49.3275 112.523C49.4181 112.591 49.5222 112.639 49.6329 112.663L52.6259 113.316C52.8138 113.358 53.0106 113.329 53.1787 113.236C53.3468 113.142 53.4745 112.989 53.5374 112.807L55.8528 106.187C55.8893 106.083 55.9034 105.972 55.8942 105.862C55.8849 105.751 55.8525 105.644 55.7992 105.547C55.7458 105.45 55.6726 105.365 55.5843 105.299C55.4961 105.232 55.3947 105.184 55.2869 105.159L54.0516 104.865Z" fill="white" stroke="#263238" stroke-linecap="round" stroke-linejoin="round"/>
<path d="M52.8953 112.402C52.9098 112.486 52.898 112.573 52.8616 112.65C52.8252 112.727 52.7659 112.792 52.6917 112.834C52.6175 112.876 52.5321 112.895 52.447 112.887C52.3619 112.879 52.2812 112.846 52.216 112.79C52.1508 112.735 52.1042 112.661 52.0824 112.579C52.0607 112.496 52.0649 112.409 52.0945 112.328C52.1241 112.248 52.1777 112.179 52.2479 112.13C52.3182 112.082 52.4017 112.056 52.4871 112.056C52.5869 112.049 52.6857 112.081 52.762 112.146C52.8384 112.21 52.8863 112.302 52.8953 112.402Z" fill="#D18757" stroke="#263238" stroke-linecap="round" stroke-linejoin="round"/>
<path d="M50.7186 110.807C50.707 110.908 50.659 111 50.5838 111.067C50.5085 111.134 50.4113 111.171 50.3105 111.171C50.2097 111.171 50.1124 111.134 50.0372 111.067C49.9619 111 49.9139 110.908 49.9023 110.807C49.9139 110.707 49.9619 110.615 50.0372 110.548C50.1124 110.481 50.2097 110.444 50.3105 110.444C50.4113 110.444 50.5085 110.481 50.5838 110.548C50.659 110.615 50.707 110.707 50.7186 110.807Z" fill="white" stroke="#263238" stroke-linecap="round" stroke-linejoin="round"/>
<path d="M51.7171 111.441C51.944 111.441 52.128 111.267 52.128 111.052C52.128 110.837 51.944 110.663 51.7171 110.663C51.4902 110.663 51.3063 110.837 51.3063 111.052C51.3063 111.267 51.4902 111.441 51.7171 111.441Z" fill="white" stroke="#263238" stroke-linecap="round" stroke-linejoin="round"/>
<path d="M53.4776 111.368C53.482 111.45 53.4616 111.532 53.419 111.602C53.3765 111.673 53.3138 111.729 53.239 111.763C53.1643 111.797 53.0809 111.809 52.9998 111.795C52.9186 111.781 52.8434 111.744 52.7839 111.687C52.7243 111.63 52.6832 111.557 52.6658 111.477C52.6484 111.396 52.6555 111.312 52.6863 111.236C52.7171 111.16 52.7701 111.094 52.8384 111.049C52.9067 111.003 52.9872 110.978 53.0695 110.979C53.1219 110.977 53.1741 110.986 53.223 111.005C53.2719 111.024 53.3166 111.052 53.3546 111.088C53.3925 111.125 53.4229 111.168 53.444 111.216C53.4651 111.264 53.4766 111.316 53.4776 111.368Z" fill="white" stroke="#263238" stroke-linecap="round" stroke-linejoin="round"/>
<path d="M51.0968 109.608C51.1011 109.69 51.0807 109.771 51.0382 109.842C50.9956 109.912 50.9329 109.968 50.8582 110.003C50.7834 110.037 50.7001 110.048 50.6189 110.035C50.5378 110.021 50.4625 109.984 50.403 109.927C50.3434 109.87 50.3023 109.797 50.2849 109.716C50.2675 109.636 50.2747 109.552 50.3055 109.476C50.3362 109.399 50.3892 109.334 50.4575 109.288C50.5258 109.242 50.6064 109.218 50.6886 109.219C50.741 109.217 50.7932 109.226 50.8421 109.245C50.891 109.264 50.9358 109.292 50.9737 109.328C51.0116 109.364 51.042 109.408 51.0632 109.456C51.0843 109.504 51.0957 109.555 51.0968 109.608Z" fill="white" stroke="#263238" stroke-linecap="round" stroke-linejoin="round"/>
<path d="M52.4925 109.852C52.4969 109.935 52.4765 110.016 52.4341 110.086C52.3917 110.157 52.3291 110.213 52.2546 110.247C52.18 110.282 52.0968 110.293 52.0157 110.28C51.9346 110.266 51.8594 110.229 51.7997 110.173C51.7401 110.116 51.6987 110.043 51.681 109.963C51.6633 109.883 51.6701 109.799 51.7005 109.722C51.7308 109.646 51.7834 109.581 51.8513 109.534C51.9193 109.488 51.9995 109.464 52.0817 109.463C52.1342 109.462 52.1865 109.471 52.2356 109.49C52.2847 109.508 52.3296 109.537 52.3677 109.573C52.4059 109.609 52.4365 109.652 52.4579 109.7C52.4794 109.748 52.4911 109.8 52.4925 109.852Z" fill="white" stroke="#263238" stroke-linecap="round" stroke-linejoin="round"/>
<path d="M53.8531 110.176C53.858 110.258 53.8381 110.34 53.7959 110.411C53.7537 110.482 53.6912 110.538 53.6165 110.573C53.5419 110.608 53.4585 110.619 53.3771 110.606C53.2958 110.593 53.2203 110.556 53.1605 110.499C53.1007 110.442 53.0593 110.369 53.0416 110.289C53.024 110.208 53.031 110.124 53.0616 110.048C53.0923 109.971 53.1452 109.906 53.2136 109.86C53.282 109.814 53.3626 109.789 53.4449 109.79C53.5501 109.788 53.6519 109.827 53.7283 109.899C53.8047 109.972 53.8495 110.071 53.8531 110.176Z" fill="white" stroke="#263238" stroke-linecap="round" stroke-linejoin="round"/>
<path d="M51.524 108.424C51.5284 108.505 51.5085 108.585 51.4668 108.654C51.4252 108.723 51.3638 108.778 51.2905 108.812C51.2173 108.845 51.1355 108.856 51.056 108.843C50.9764 108.83 50.9026 108.793 50.8442 108.737C50.7858 108.682 50.7454 108.61 50.7284 108.531C50.7113 108.452 50.7183 108.37 50.7484 108.295C50.7786 108.22 50.8305 108.156 50.8975 108.111C50.9645 108.066 51.0434 108.043 51.1241 108.043C51.2275 108.041 51.3276 108.08 51.4026 108.151C51.4775 108.222 51.5212 108.321 51.524 108.424Z" fill="white" stroke="#263238" stroke-linecap="round" stroke-linejoin="round"/>
<path d="M52.9062 108.663C52.9083 108.743 52.8868 108.822 52.8443 108.889C52.8019 108.956 52.7404 109.01 52.6677 109.042C52.5949 109.074 52.5142 109.085 52.4357 109.071C52.3573 109.058 52.2845 109.021 52.2267 108.967C52.1689 108.912 52.1286 108.841 52.111 108.763C52.0933 108.686 52.0991 108.605 52.1276 108.53C52.156 108.456 52.2059 108.392 52.2709 108.346C52.3358 108.3 52.413 108.274 52.4926 108.272C52.5459 108.269 52.5992 108.277 52.6492 108.295C52.6993 108.313 52.7451 108.342 52.7838 108.378C52.8226 108.415 52.8534 108.459 52.8744 108.508C52.8955 108.557 52.9063 108.61 52.9062 108.663Z" fill="white" stroke="#263238" stroke-linecap="round" stroke-linejoin="round"/>
<path d="M54.234 108.974C54.2383 109.054 54.2185 109.134 54.177 109.203C54.1354 109.272 54.0742 109.327 54.0011 109.361C53.928 109.395 53.8464 109.406 53.7669 109.393C53.6874 109.38 53.6137 109.343 53.5552 109.288C53.4966 109.233 53.4561 109.161 53.4387 109.082C53.4213 109.004 53.4279 108.922 53.4576 108.847C53.4874 108.772 53.5389 108.708 53.6055 108.662C53.6721 108.617 53.7508 108.593 53.8313 108.593C53.8828 108.591 53.934 108.6 53.9821 108.618C54.0302 108.637 54.0742 108.664 54.1116 108.7C54.149 108.735 54.179 108.777 54.2 108.824C54.221 108.871 54.2326 108.922 54.234 108.974Z" fill="white" stroke="#263238" stroke-linecap="round" stroke-linejoin="round"/>
<path d="M51.9891 107.251C51.9941 107.33 51.9753 107.408 51.9352 107.476C51.8951 107.543 51.8356 107.597 51.7644 107.631C51.6932 107.664 51.6136 107.675 51.536 107.663C51.4584 107.65 51.3863 107.615 51.3291 107.561C51.272 107.507 51.2324 107.437 51.2155 107.36C51.1986 107.283 51.2051 107.203 51.2344 107.13C51.2636 107.057 51.3141 106.995 51.3793 106.951C51.4445 106.907 51.5214 106.884 51.6001 106.884C51.7002 106.882 51.7971 106.919 51.87 106.988C51.9428 107.057 51.9856 107.151 51.9891 107.251Z" fill="white" stroke="#263238" stroke-linecap="round" stroke-linejoin="round"/>
<path d="M52.9361 107.855C53.151 107.855 53.3252 107.69 53.3252 107.485C53.3252 107.281 53.151 107.115 52.9361 107.115C52.7212 107.115 52.547 107.281 52.547 107.485C52.547 107.69 52.7212 107.855 52.9361 107.855Z" fill="white" stroke="#263238" stroke-linecap="round" stroke-linejoin="round"/>
<path d="M54.6122 107.785C54.616 107.862 54.5964 107.939 54.5561 108.006C54.5157 108.072 54.4563 108.125 54.3857 108.157C54.315 108.19 54.2362 108.2 54.1595 108.187C54.0829 108.175 54.0118 108.139 53.9554 108.086C53.8991 108.032 53.8601 107.963 53.8435 107.887C53.8268 107.811 53.8334 107.732 53.8622 107.66C53.891 107.587 53.9407 107.525 54.0051 107.482C54.0694 107.438 54.1453 107.415 54.2231 107.415C54.3237 107.412 54.421 107.45 54.4939 107.519C54.5668 107.589 54.6093 107.684 54.6122 107.785Z" fill="white" stroke="#263238" stroke-linecap="round" stroke-linejoin="round"/>
<path d="M51.9647 106.416C52.1811 106.416 52.3565 106.25 52.3565 106.046C52.3565 105.842 52.1811 105.676 51.9647 105.676C51.7483 105.676 51.5729 105.842 51.5729 106.046C51.5729 106.25 51.7483 106.416 51.9647 106.416Z" fill="white" stroke="#263238" stroke-linecap="round" stroke-linejoin="round"/>
<path d="M53.6979 106.283C53.7017 106.361 53.682 106.438 53.6414 106.505C53.6007 106.572 53.5409 106.625 53.4697 106.658C53.3986 106.691 53.3193 106.701 53.242 106.688C53.1648 106.675 53.0933 106.64 53.0365 106.586C52.9798 106.532 52.9406 106.462 52.9238 106.385C52.9071 106.309 52.9137 106.229 52.9427 106.157C52.9717 106.084 53.0218 106.021 53.0866 105.978C53.1514 105.934 53.2279 105.91 53.3061 105.91C53.3564 105.909 53.4064 105.917 53.4534 105.935C53.5003 105.953 53.5432 105.98 53.5797 106.015C53.6161 106.049 53.6453 106.091 53.6656 106.137C53.6859 106.183 53.6969 106.232 53.6979 106.283Z" fill="white" stroke="#263238" stroke-linecap="round" stroke-linejoin="round"/>
<path d="M54.9903 106.582C54.9946 106.66 54.9754 106.738 54.9351 106.805C54.8948 106.872 54.8352 106.926 54.7641 106.959C54.693 106.992 54.6136 107.003 54.5363 106.99C54.4589 106.978 54.3871 106.942 54.3301 106.889C54.2731 106.835 54.2335 106.765 54.2166 106.689C54.1996 106.612 54.206 106.532 54.2349 106.459C54.2638 106.386 54.3139 106.324 54.3787 106.28C54.4435 106.236 54.5201 106.212 54.5985 106.212C54.6993 106.21 54.797 106.247 54.8703 106.317C54.9436 106.386 54.9867 106.481 54.9903 106.582Z" fill="white" stroke="#263238" stroke-linecap="round" stroke-linejoin="round"/>
<path d="M71.3293 82.807L70.7171 98.0439C70.7171 98.0439 59.4636 102.713 59.0228 102.83C58.582 102.947 55.7006 102.83 55.2707 102.83C54.8408 102.83 54.5306 103.26 54.4082 103.627C54.1843 104.339 53.8745 105.02 53.4858 105.657C53.0559 106.272 52.8083 106.579 53.3008 106.704C53.7932 106.83 54.4707 106.397 54.7156 106.212C54.9605 106.027 55.9455 104.675 56.1305 104.612C56.3155 104.55 54.4707 109.964 54.4707 109.964C54.4707 109.964 55.0149 109.716 55.638 109.42C56.2611 109.123 57.0529 108.62 57.0529 108.62C57.6687 108.355 58.2311 107.979 58.7126 107.513C59.4527 106.775 60.073 105.545 60.2526 105.485C60.4322 105.426 74.4583 101.916 74.4583 101.916C74.4583 101.916 75.6283 101.118 75.8732 100.378C76.1181 99.6383 77.8404 84.3878 77.9655 82.8505C78.0907 81.3132 77.5329 78.6087 76.0609 77.991C74.5889 77.3734 72.4313 77.8686 72.4313 77.8686" fill="#D18757"/>
<path d="M71.3293 82.807L70.7171 98.0439C70.7171 98.0439 59.4636 102.713 59.0228 102.83C58.582 102.947 55.7006 102.83 55.2707 102.83C54.8408 102.83 54.5306 103.26 54.4082 103.627C54.1843 104.339 53.8745 105.02 53.4858 105.657C53.0559 106.272 52.8083 106.579 53.3008 106.704C53.7932 106.83 54.4707 106.397 54.7156 106.212C54.9605 106.027 55.9455 104.675 56.1305 104.612C56.3155 104.55 54.4707 109.964 54.4707 109.964C54.4707 109.964 55.0149 109.716 55.638 109.42C56.2611 109.123 57.0529 108.62 57.0529 108.62C57.6687 108.355 58.2311 107.979 58.7126 107.513C59.4527 106.775 60.073 105.545 60.2526 105.485C60.4322 105.426 74.4583 101.916 74.4583 101.916C74.4583 101.916 75.6283 101.118 75.8732 100.378C76.1181 99.6383 77.8404 84.3878 77.9655 82.8505C78.0907 81.3132 77.5329 78.6087 76.0609 77.991C74.5889 77.3734 72.4313 77.8686 72.4313 77.8686" stroke="#263238" stroke-linecap="round" stroke-linejoin="round"/>
<path d="M69.4409 98.569C66.4806 99.7961 59.3736 102.74 59.0335 102.838C58.6009 102.96 55.7113 102.838 55.2814 102.838C54.8515 102.838 54.5413 103.268 54.4189 103.635C54.195 104.347 53.8853 105.028 53.4965 105.665C53.0666 106.28 52.819 106.587 53.3115 106.713C53.804 106.838 54.4815 106.405 54.7264 106.22C54.9712 106.035 55.9562 104.683 56.1412 104.62C56.3262 104.558 54.4815 109.972 54.4815 109.972C54.4815 109.972 55.0257 109.725 55.6487 109.428C56.2718 109.131 57.0636 108.628 57.0636 108.628C57.6794 108.363 58.2418 107.987 58.7233 107.521C59.4634 106.783 60.0838 105.553 60.2634 105.494C60.4048 105.445 68.8477 103.331 72.6488 102.381C71.7291 100.049 70.3143 99.0206 69.4409 98.569Z" fill="white" stroke="#263238" stroke-linecap="round" stroke-linejoin="round"/>
<path d="M57.763 92.5613C57.3658 94.2482 57.0556 95.5542 56.9468 95.9624C56.6175 97.38 56.9631 98.1255 57.2324 98.8465C57.8011 100.367 60.2581 101.638 60.6825 101.067C60.9546 100.708 62.5871 100.25 63.0442 97.048C63.0851 96.7759 63.0851 95.5978 63.0633 94.0224C60.4703 94.5067 58.767 93.5354 57.763 92.5613Z" fill="#D18757" stroke="#263238" stroke-linecap="round" stroke-linejoin="round"/>
</svg>
