<svg width="174" height="174" viewBox="0 0 174 174" fill="none" xmlns="http://www.w3.org/2000/svg">
<circle cx="87" cy="87" r="87" fill="#D0F5FF"/>
<path d="M44.1312 87.6093C44.4909 86.8431 44.9054 86.1039 45.3714 85.3973C45.7854 84.6595 46.2497 83.9511 46.7611 83.2771C46.399 84.042 45.9846 84.7811 45.5209 85.4891C45.1059 86.2263 44.6416 86.9346 44.1312 87.6093Z" fill="#E0E0E0"/>
<path d="M43.0304 65.4184C43.3925 64.6535 43.8069 63.9144 44.2706 63.2065C44.6856 62.4693 45.1499 61.7609 45.6603 61.0862C45.301 61.852 44.8877 62.5912 44.4235 63.2982C44.0081 64.0359 43.5427 64.7443 43.0304 65.4184Z" fill="#E0E0E0"/>
<path d="M45.2933 118.485C45.6555 117.72 46.0698 116.981 46.5335 116.273C46.9485 115.536 47.4128 114.827 47.9232 114.153C47.5635 114.919 47.1491 115.658 46.683 116.365C46.2705 117.103 45.8061 117.812 45.2933 118.485Z" fill="#E0E0E0"/>
<path d="M85.7643 152.143C86.1244 151.378 86.5376 150.639 87.0011 149.931C87.4164 149.194 87.8819 148.485 88.3942 147.811C88.0329 148.577 87.6185 149.316 87.154 150.023C86.74 150.761 86.2757 151.469 85.7643 152.143Z" fill="#E0E0E0"/>
<path d="M22.688 124.173C23.0477 123.407 23.4621 122.667 23.9282 121.961C24.3417 121.223 24.8061 120.514 25.3179 119.841C24.9557 120.605 24.5414 121.345 24.0777 122.053C23.6627 122.79 23.1984 123.498 22.688 124.173Z" fill="#E0E0E0"/>
<path d="M117.49 108.811C117.85 108.046 118.263 107.307 118.726 106.599C119.142 105.862 119.607 105.153 120.119 104.479C119.758 105.245 119.344 105.984 118.879 106.691C118.464 107.428 118 108.137 117.49 108.811Z" fill="#E0E0E0"/>
<path d="M91.1294 141.471C91.4907 140.706 91.9051 139.966 92.3696 139.259C92.7836 138.521 93.2479 137.813 93.7593 137.139C93.3987 137.904 92.9843 138.644 92.5191 139.351C92.1055 140.089 91.6412 140.797 91.1294 141.471Z" fill="#E0E0E0"/>
<path d="M103.521 153.917C103.884 153.152 104.298 152.413 104.761 151.705C105.174 150.966 105.64 150.257 106.154 149.585C105.792 150.35 105.378 151.089 104.914 151.797C104.5 152.535 104.035 153.244 103.521 153.917Z" fill="#E0E0E0"/>
<path d="M132.946 103.287C133.308 102.522 133.722 101.783 134.186 101.075C134.6 100.336 135.065 99.6276 135.579 98.9545C135.218 99.7198 134.803 100.459 134.339 101.166C133.925 101.905 133.459 102.614 132.946 103.287Z" fill="#E0E0E0"/>
<path d="M136.755 82.5976C137.114 81.8319 137.527 81.0927 137.992 80.3857C138.407 79.6479 138.872 78.9395 139.385 78.2654C139.023 79.0304 138.608 79.7694 138.145 80.4774C137.73 81.2146 137.265 81.9229 136.755 82.5976Z" fill="#E0E0E0"/>
<path d="M126.466 53.251C126.828 52.4861 127.243 51.747 127.706 51.039C128.12 50.3004 128.586 49.5919 129.099 48.9188C128.738 49.6842 128.324 50.4233 127.859 51.1308C127.446 51.87 126.981 52.5785 126.466 53.251Z" fill="#E0E0E0"/>
<path d="M110.527 91.425C110.889 90.6601 111.304 89.921 111.768 89.213C112.183 88.4758 112.647 87.7675 113.157 87.0928C112.796 87.8582 112.382 88.5973 111.917 89.3048C111.503 90.0426 111.039 90.751 110.527 91.425Z" fill="#E0E0E0"/>
<path d="M125.447 78.4727C125.808 77.7074 126.222 76.9683 126.687 76.2608C127.101 75.523 127.565 74.8145 128.077 74.1406C127.716 74.9063 127.302 75.6455 126.836 76.3525C126.423 77.0906 125.959 77.799 125.447 78.4727Z" fill="#E0E0E0"/>
<path d="M61.6196 91.425C61.9818 90.6601 62.3961 89.921 62.8598 89.213C63.2748 88.4758 63.7391 87.7675 64.2495 87.0928C63.8898 87.859 63.4754 88.5982 63.0093 89.3048C62.5968 90.0435 62.1324 90.752 61.6196 91.425Z" fill="#E0E0E0"/>
<path d="M32.1915 151.392C32.5508 150.627 32.9641 149.887 33.4283 149.18C33.8417 148.441 34.3072 147.733 34.8214 147.06C34.4593 147.825 34.0449 148.564 33.5812 149.272C33.1662 150.009 32.7019 150.718 32.1915 151.392Z" fill="#E0E0E0"/>
<path d="M62.4928 59.8427C62.8533 59.0769 63.2678 58.3378 63.733 57.6307C64.1465 56.8926 64.6109 56.1842 65.1227 55.5105C64.7614 56.2758 64.347 57.015 63.8825 57.7224C63.4685 58.4603 63.0042 59.1687 62.4928 59.8427Z" fill="#E0E0E0"/>
<path d="M25.3177 102.026C25.6804 101.263 26.0947 100.525 26.5579 99.8175C26.9709 99.0791 27.4353 98.3706 27.9476 97.6973C27.5863 98.4626 27.1719 99.2018 26.7074 99.9093C26.2954 100.647 25.831 101.355 25.3177 102.026Z" fill="#E0E0E0"/>
<path d="M44.1312 103.878C44.4918 103.112 44.9062 102.373 45.3714 101.666C45.7864 100.929 46.2507 100.22 46.7611 99.5457C46.3998 100.311 45.9854 101.05 45.5209 101.758C45.1069 102.495 44.6426 103.204 44.1312 103.878Z" fill="#E0E0E0"/>
<path d="M142.629 28.1957C142.401 27.5821 141.996 27.0498 141.466 26.6658C140.936 26.2819 140.304 26.0635 139.649 26.0382C139.793 25.3366 139.735 24.6087 139.481 23.9389C139.228 23.2691 138.79 22.6848 138.218 22.2538C137.646 21.8228 136.964 21.5626 136.25 21.5036C135.537 21.4445 134.821 21.5889 134.186 21.92C133.775 20.867 133.066 19.9569 132.146 19.3017C131.225 18.6465 130.133 18.2747 129.003 18.2321C127.874 18.1895 126.757 18.4779 125.789 19.0619C124.822 19.6459 124.046 20.5 123.558 21.5191C123.099 21.3968 122.902 21.5837 122.436 21.6686C121.755 21.8075 121.132 22.1482 120.647 22.6463C120.162 23.1445 119.838 23.777 119.718 24.4616C119.178 24.2881 118.61 24.2227 118.045 24.2694C117.48 24.316 116.93 24.4737 116.426 24.7334C115.926 25.0027 115.509 25.4038 115.221 25.8932C114.933 26.3826 114.784 26.9415 114.791 27.5094C114.82 28.076 115.046 28.6149 115.429 29.0334C115.812 29.4519 116.329 29.7239 116.891 29.8029C116.351 30.7256 116.187 31.8208 116.434 32.8611C116.68 33.9014 117.317 34.807 118.214 35.3898C119.11 35.9725 120.196 36.1878 121.247 35.9909C122.298 35.7939 123.232 35.1999 123.857 34.3321C124.219 35.1613 124.826 35.8604 125.595 36.3368C126.365 36.8132 127.261 37.0443 128.165 36.9994C129.065 36.9239 129.923 36.5803 130.626 36.0128C131.329 35.4452 131.846 34.6799 132.11 33.8157C132.416 34.4978 132.959 35.0466 133.637 35.3613C134.316 35.676 135.085 35.7356 135.804 35.5292C136.522 35.3227 137.143 34.8641 137.551 34.2373C137.959 33.6105 138.127 32.8577 138.025 32.1168C138.6 32.4346 139.259 32.5699 139.913 32.5048C140.567 32.4396 141.185 32.1769 141.686 31.7518C142.187 31.3266 142.547 30.7591 142.718 30.1245C142.889 29.49 142.863 28.8184 142.643 28.1991L142.629 28.1957Z" fill="#EBEBEB"/>
<path d="M157.274 46.7918C157.106 46.3429 156.81 45.9535 156.422 45.6724C156.034 45.3913 155.571 45.2311 155.093 45.2118C155.198 44.6974 155.155 44.1637 154.97 43.6725C154.784 43.1814 154.463 42.753 154.043 42.4371C153.624 42.1212 153.123 41.9307 152.6 41.8878C152.077 41.8449 151.552 41.9513 151.087 42.1946C150.786 41.4229 150.267 40.7558 149.592 40.2755C148.918 39.7952 148.117 39.5225 147.29 39.4911C146.462 39.4597 145.644 39.6709 144.934 40.0987C144.225 40.5265 143.657 41.1523 143.299 41.899C142.959 41.8107 142.816 41.9466 142.473 42.0111C141.974 42.1103 141.516 42.358 141.161 42.7218C140.805 43.0856 140.567 43.5485 140.479 44.0498C140.083 43.9222 139.665 43.8742 139.251 43.9086C138.836 43.943 138.432 44.0591 138.063 44.2503C137.696 44.4479 137.39 44.7424 137.178 45.1019C136.967 45.4614 136.858 45.8719 136.863 46.2889C136.886 46.7045 137.052 47.0994 137.334 47.4061C137.615 47.7129 137.994 47.9124 138.406 47.9708C138.062 48.6437 137.98 49.42 138.174 50.1502C138.369 50.8803 138.827 51.5125 139.46 51.9249C140.093 52.3373 140.857 52.5007 141.603 52.3836C142.35 52.2664 143.026 51.877 143.503 51.2905C143.769 51.8973 144.212 52.4093 144.775 52.7587C145.338 53.1081 145.994 53.2786 146.656 53.2476C147.316 53.1919 147.945 52.9394 148.461 52.5227C148.976 52.1059 149.355 51.5441 149.547 50.9099C149.774 51.4082 150.171 51.8086 150.668 52.0379C151.165 52.2671 151.728 52.3101 152.254 52.1588C152.78 52.0076 153.234 51.6722 153.533 51.214C153.832 50.7558 153.956 50.2052 153.883 49.6629C154.305 49.8974 154.788 49.9979 155.269 49.951C155.749 49.9041 156.204 49.7121 156.573 49.4005C156.942 49.0889 157.207 48.6724 157.334 48.2064C157.46 47.7405 157.441 47.2471 157.281 46.7918H157.274Z" fill="#F5F5F5"/>
<path d="M43.6488 21.1624C43.4806 20.7132 43.1836 20.3236 42.7949 20.0426C42.4063 19.7615 41.9433 19.6014 41.464 19.5824C41.569 19.0684 41.5262 18.5353 41.3405 18.0446C41.1549 17.554 40.8341 17.1261 40.4152 16.8103C39.9963 16.4945 39.4965 16.3039 38.9738 16.2605C38.451 16.2172 37.9267 16.3228 37.4615 16.5652C37.1604 15.7936 36.6405 15.1269 35.9656 14.6468C35.2908 14.1667 34.4904 13.8943 33.6628 13.8629C32.8352 13.8315 32.0165 14.0425 31.3072 14.4701C30.598 14.8976 30.029 15.5231 29.6704 16.2696C29.3306 16.1812 29.1913 16.3205 28.8481 16.3817C28.3487 16.4811 27.8908 16.7288 27.5344 17.0926C27.178 17.4563 26.9395 17.919 26.8502 18.4203C26.4544 18.2922 26.0372 18.2437 25.6226 18.2775C25.208 18.3113 24.8042 18.4268 24.4344 18.6174C24.068 18.8158 23.7629 19.1106 23.5521 19.47C23.3412 19.8293 23.2328 20.2395 23.2384 20.6561C23.261 21.0708 23.4268 21.4648 23.7075 21.7709C23.9882 22.077 24.3664 22.2762 24.7776 22.3346C24.4337 23.0074 24.3511 23.7838 24.5457 24.5139C24.7403 25.2441 25.1984 25.8763 25.8315 26.2887C26.4647 26.7011 27.2282 26.8645 27.9747 26.7473C28.7211 26.6302 29.3978 26.2408 29.8742 25.6542C30.1395 26.2621 30.5829 26.7751 31.1458 27.1258C31.7088 27.4764 32.3648 27.6481 33.0274 27.6181C33.6875 27.5652 34.3166 27.3159 34.8337 26.9023C35.3509 26.4887 35.7324 25.9298 35.9291 25.2974C36.1551 25.7964 36.5532 26.1973 37.0506 26.4269C37.5479 26.6564 38.1113 26.6991 38.6376 26.5474C39.1639 26.3956 39.618 26.0593 39.9168 25.6002C40.2155 25.1411 40.339 24.5898 40.2646 24.0471C40.6867 24.2815 41.1701 24.382 41.6506 24.3351C42.1311 24.2883 42.586 24.0962 42.9548 23.7846C43.3236 23.473 43.5888 23.0565 43.7152 22.5906C43.8416 22.1246 43.8232 21.6312 43.6624 21.1759L43.6488 21.1624Z" fill="#F5F5F5"/>
<path d="M80.2837 38.012C79.8865 36.9423 79.1815 36.0143 78.2575 35.3449C77.3336 34.6755 76.232 34.2947 75.0919 34.2506C75.3407 33.0292 75.2384 31.7623 74.7969 30.5966C74.3554 29.4309 73.5928 28.414 72.5973 27.6639C71.6018 26.9137 70.4142 26.4608 69.1719 26.3577C67.9297 26.2546 66.6837 26.5055 65.5781 27.0813C64.8639 25.2461 63.6286 23.6598 62.0243 22.5176C60.4201 21.3754 58.5168 20.7272 56.5489 20.6528C54.581 20.5785 52.6343 21.0811 50.9484 22.0989C49.2625 23.1167 47.911 24.6053 47.0602 26.3814C46.2617 26.1707 45.9186 26.4935 45.1031 26.643C43.9116 26.8788 42.8195 27.4699 41.9704 28.3384C41.1213 29.2069 40.555 30.3121 40.3462 31.5086C38.4571 30.9446 36.33 31.0227 34.6074 31.9809C32.8847 32.9391 31.6513 34.8486 31.7566 36.8193C31.862 38.7901 33.4555 40.6486 35.4194 40.8151C33.5473 43.992 34.621 48.5587 37.7129 50.5667C40.8049 52.5748 45.4123 51.705 47.5665 48.7048C48.1988 50.1479 49.2542 51.3652 50.5931 52.1958C51.9321 53.0263 53.4915 53.431 55.0654 53.3563C56.6354 53.2245 58.1298 52.6251 59.3557 51.6354C60.5816 50.6457 61.4826 49.3113 61.9425 47.8044C62.4763 48.9942 63.4216 49.9514 64.6046 50.5003C65.7875 51.0491 67.1288 51.1527 68.382 50.792C69.6353 50.4313 70.7163 49.6305 71.4264 48.5367C72.1366 47.4429 72.4283 46.1297 72.2479 44.8381C73.2502 45.391 74.397 45.6261 75.5359 45.5122C76.6749 45.3982 77.7524 44.9406 78.6252 44.2001C79.4981 43.4595 80.1252 42.4711 80.4232 41.3659C80.7212 40.2606 80.6761 39.0909 80.2939 38.012H80.2837Z" fill="#EBEBEB"/>
<path d="M27.591 116.497C27.591 116.497 25.3077 116.562 26.0314 121.628C26.7551 126.694 27.5468 129.351 27.5468 129.351C27.5468 129.351 27.591 130.486 26.6974 130.353C25.8038 130.221 24.0471 129.286 23.2996 130.19C22.5521 131.094 22.9598 132.402 24.2476 133.826C25.5353 135.25 28.2094 138.474 28.4472 138.783C28.6851 139.092 28.8244 139.639 28.1992 139.646C27.574 139.653 23.252 138.658 22.9021 140.737C22.5521 142.816 26.7483 146.204 27.2002 146.585C27.6522 146.965 27.7031 147.227 27.5604 147.499C27.4177 147.77 26.0008 147.298 24.7572 147.064C23.5137 146.829 22.039 146.778 21.9371 147.998C21.8352 149.218 23.867 152.537 30.5301 155.575L33.707 156.764L36.3878 154.647C41.8481 149.768 42.7994 145.99 42.3441 144.858C41.8888 143.727 40.489 144.216 39.3711 144.807C38.2532 145.399 37.0368 146.269 36.8228 146.051C36.6087 145.834 36.5781 145.569 36.8975 145.073C37.2169 144.576 40.2137 140.098 39.2759 138.216C38.3382 136.333 34.4919 138.556 33.8939 138.746C33.2959 138.936 33.2585 138.338 33.3978 137.995C33.5371 137.652 35.1375 133.772 35.9291 132.035C36.7208 130.299 36.7514 128.95 35.7525 128.281C34.7535 127.611 33.374 129.045 32.5755 129.439C31.7771 129.833 31.4679 128.736 31.4679 128.736C31.4679 128.736 31.4339 125.963 30.6184 120.921C29.8029 115.879 27.5604 116.504 27.5604 116.504" fill="#EBEBEB"/>
<path d="M33.6185 157.58C33.0341 153.866 32.1065 147.251 31.2843 141.573C30.462 135.895 29.7077 130.764 29.1437 127.047C28.8583 125.196 28.6306 123.694 28.4641 122.651C28.386 122.134 28.3214 121.73 28.2806 121.451C28.2602 121.319 28.2467 121.217 28.2365 121.142C28.2263 121.067 28.2365 121.033 28.2365 121.033C28.2365 121.033 28.2365 121.071 28.2602 121.139L28.3146 121.448L28.5185 122.644C28.6918 123.68 28.933 125.182 29.2218 127.037C29.8062 130.751 30.5809 135.871 31.393 141.559C32.2051 147.247 33.1327 153.852 33.6967 157.566" fill="#E0E0E0"/>
<path d="M25.7188 131.594C25.7921 131.632 25.8606 131.678 25.9226 131.733C26.0483 131.825 26.2284 131.967 26.4459 132.147C26.8876 132.487 27.4652 133.01 28.1244 133.581L29.7689 135.046L30.2718 135.487C30.3357 135.539 30.3948 135.595 30.4485 135.657C30.3756 135.62 30.3072 135.574 30.2446 135.521C30.1189 135.426 29.9388 135.283 29.7213 135.103C29.2864 134.743 28.702 134.227 28.053 133.656L26.3983 132.198L25.892 131.763C25.8293 131.712 25.7713 131.655 25.7188 131.594Z" fill="#E0E0E0"/>
<path d="M30.7372 135.532C30.7169 135.511 31.7056 134.244 32.9526 132.694C34.1996 131.145 35.2291 129.908 35.2495 129.929C35.2699 129.949 34.2811 131.213 33.0341 132.762C31.7872 134.312 30.761 135.549 30.7372 135.532Z" fill="#E0E0E0"/>
<path d="M31.6105 144.301C31.6734 144.245 31.7404 144.194 31.8109 144.148L32.3682 143.758C32.8405 143.418 33.4894 142.969 34.1894 142.436C34.8893 141.902 35.5043 141.416 35.9494 141.036L36.4727 140.598C36.535 140.542 36.6021 140.492 36.6732 140.448C36.6732 140.448 36.6188 140.519 36.4999 140.632C36.381 140.744 36.2145 140.9 35.997 141.09C35.5655 141.474 34.9539 141.987 34.2539 142.521C33.554 143.054 32.8948 143.506 32.4123 143.819C32.1677 143.978 31.9706 144.101 31.8313 144.182C31.7636 144.232 31.6892 144.272 31.6105 144.301Z" fill="#E0E0E0"/>
<path d="M26.2863 141.739C26.3623 141.758 26.4363 141.784 26.5071 141.817L27.0847 142.069C27.5706 142.286 28.24 142.592 28.9773 142.935C29.7146 143.278 30.3772 143.594 30.8563 143.825L31.4203 144.108C31.493 144.138 31.5615 144.178 31.6242 144.226C31.5484 144.206 31.4745 144.178 31.4033 144.145L30.8257 143.893C30.3398 143.679 29.6704 143.374 28.9331 143.03C28.1958 142.687 27.5332 142.371 27.0542 142.137L26.4901 141.841C26.4186 141.815 26.3502 141.781 26.2863 141.739Z" fill="#E0E0E0"/>
<path d="M26.0756 149.581C26.1717 149.607 26.265 149.643 26.3542 149.687L27.0949 150.006C27.7201 150.278 28.5831 150.662 29.5311 151.093C30.4791 151.525 31.3353 151.919 31.9537 152.211L32.6808 152.551C32.7722 152.589 32.8598 152.636 32.9425 152.69C32.8467 152.665 32.7534 152.631 32.6639 152.588L31.9231 152.269C31.2979 151.994 30.4349 151.61 29.4869 151.178C28.539 150.747 27.6827 150.353 27.0643 150.064L26.3372 149.724C26.2452 149.686 26.1575 149.638 26.0756 149.581Z" fill="#E0E0E0"/>
<path d="M32.7997 152.582C32.8765 152.507 32.9595 152.439 33.0477 152.378L33.7273 151.858C34.3117 151.42 35.1136 150.808 35.9834 150.108C36.8532 149.408 37.6211 148.749 38.175 148.28C38.44 148.049 38.6608 147.859 38.8307 147.716C38.9094 147.644 38.9922 147.577 39.0788 147.516C39.0145 147.601 38.9404 147.678 38.8579 147.747C38.7118 147.886 38.4944 148.086 38.2225 148.334C37.6823 148.827 36.9178 149.49 36.048 150.19C35.1781 150.889 34.3491 151.494 33.7714 151.919C33.4724 152.13 33.2312 152.3 33.0613 152.412C32.9784 152.475 32.891 152.532 32.7997 152.582Z" fill="#E0E0E0"/>
<path d="M152.435 138.308C152.872 138.55 153.254 138.878 153.56 139.272C153.866 139.667 154.089 140.119 154.216 140.601C154.463 141.569 154.486 142.579 154.284 143.557C153.944 145.453 152.741 147.312 151.477 148.766C149.958 147.261 149.744 144.791 149.714 143.53C149.666 141.539 150.788 137.907 152.432 138.308" fill="#EBEBEB"/>
<path d="M153.145 152.035C153.07 151.482 153.142 150.919 153.354 150.404C153.567 149.888 153.912 149.438 154.355 149.099C154.803 148.768 155.312 148.529 155.852 148.397C156.393 148.264 156.955 148.241 157.505 148.328C157.761 148.339 158.011 148.405 158.239 148.522C158.466 148.64 158.666 148.805 158.823 149.007C158.933 149.219 158.984 149.457 158.973 149.695C158.962 149.934 158.888 150.165 158.759 150.366C158.488 150.767 158.116 151.089 157.681 151.301C156.234 152.089 154.691 152.585 153.145 152.011" fill="#EBEBEB"/>
<path d="M150.964 156.329C151.024 155.908 151.126 155.493 151.27 155.093C151.409 154.648 151.599 154.222 151.837 153.822C152.112 153.326 152.42 152.85 152.758 152.395C153.381 151.563 154.197 150.896 155.137 150.451C155.424 150.327 155.724 150.231 156.03 150.166C156.141 150.136 156.256 150.124 156.37 150.132C156.37 150.173 155.894 150.247 155.198 150.59C154.304 151.06 153.526 151.722 152.918 152.527C152.587 152.975 152.281 153.44 152 153.92C151.759 154.304 151.56 154.713 151.406 155.14C151.288 155.547 151.14 155.944 150.964 156.329Z" fill="#E0E0E0"/>
<path d="M151.824 141.162C151.853 141.374 151.861 141.59 151.848 141.804C151.848 142.218 151.848 142.823 151.827 143.557C151.8 145.039 151.735 147.081 151.61 149.333C151.484 151.586 151.314 153.628 151.158 155.11C151.083 155.843 151.012 156.438 150.954 156.849C150.936 157.064 150.901 157.276 150.849 157.485C150.836 157.27 150.844 157.055 150.872 156.842C150.906 156.391 150.954 155.803 151.008 155.096C151.124 153.621 151.27 151.583 151.396 149.32C151.521 147.057 151.603 145.062 151.678 143.544C151.712 142.833 151.742 142.246 151.766 141.794C151.768 141.582 151.788 141.37 151.824 141.162Z" fill="#E0E0E0"/>
<path d="M150.675 152.616C150.396 151.477 149.85 150.421 149.082 149.534C148.314 148.648 147.346 147.957 146.258 147.519C145.701 147.301 144.988 147.179 144.576 147.617C144.165 148.056 144.318 148.762 144.576 149.316C145.134 150.432 146.01 151.358 147.093 151.976C148.176 152.595 149.418 152.879 150.662 152.792" fill="#EBEBEB"/>
<path d="M146.751 149.187C146.862 149.214 146.967 149.258 147.063 149.32C147.257 149.415 147.529 149.571 147.862 149.772C148.74 150.297 149.513 150.979 150.145 151.783C150.483 152.238 150.743 152.746 150.916 153.285C151.053 153.726 151.129 154.183 151.141 154.644C151.15 154.953 151.13 155.263 151.083 155.568C151.077 155.685 151.052 155.8 151.008 155.908C150.964 155.908 151.039 155.426 150.988 154.664C150.923 153.67 150.569 152.715 149.968 151.919C149.349 151.137 148.609 150.458 147.777 149.908C147.421 149.687 147.079 149.447 146.751 149.187Z" fill="#E0E0E0"/>
<path d="M51.9092 61.3309C52.2697 60.5651 52.6841 59.826 53.1494 59.1189C53.5644 58.3817 54.0286 57.6734 54.5391 56.9987C54.1778 57.7641 53.7634 58.5032 53.2989 59.2107C52.8849 59.9485 52.4206 60.6569 51.9092 61.3309Z" fill="#263238"/>
<path d="M62.5 70.4879C62.8605 69.7221 63.275 68.983 63.7402 68.2759C64.1537 67.5378 64.6181 66.8294 65.1299 66.1557C64.7686 66.921 64.3542 67.6602 63.8897 68.3677C63.4757 69.1055 63.0114 69.8139 62.5 70.4879Z" fill="#263238"/>
<path d="M51.4028 77.4839C51.7625 76.7177 52.177 75.9785 52.643 75.2719C53.0556 74.5333 53.52 73.8247 54.0327 73.1517C53.6706 73.9166 53.2562 74.6557 52.7925 75.3637C52.3775 76.1009 51.9132 76.8092 51.4028 77.4839Z" fill="#263238"/>
<path d="M36.5206 106.134C36.8828 105.369 37.2971 104.63 37.7608 103.922C38.1758 103.185 38.6401 102.476 39.1505 101.802C38.7892 102.567 38.3748 103.306 37.9103 104.014C37.4963 104.752 37.032 105.46 36.5206 106.134Z" fill="#263238"/>
<path d="M85.3976 152.836C85.7597 152.072 86.1741 151.332 86.6378 150.625C87.0512 149.887 87.5156 149.18 88.0275 148.508C87.6645 149.272 87.2501 150.011 86.7873 150.72C86.3738 151.457 85.9095 152.164 85.3976 152.836Z" fill="#263238"/>
<path d="M113.609 59.0578C113.972 58.2928 114.386 57.5538 114.85 56.8458C115.265 56.1086 115.729 55.4002 116.239 54.7256C115.88 55.4918 115.465 56.231 114.999 56.9375C114.587 57.6762 114.122 58.3847 113.609 59.0578Z" fill="#263238"/>
<path d="M130.829 59.8325C131.191 59.0676 131.606 58.3285 132.069 57.6205C132.483 56.8819 132.949 56.1734 133.462 55.5003C133.101 56.2656 132.687 57.0048 132.222 57.7123C131.808 58.4509 131.343 59.1594 130.829 59.8325Z" fill="#263238"/>
<path d="M116.171 75.9243C116.535 75.1603 116.949 74.4213 117.411 73.7124C117.825 72.9738 118.291 72.2653 118.804 71.5922C118.443 72.3575 118.029 73.0966 117.564 73.8041C117.151 74.5433 116.686 75.2519 116.171 75.9243Z" fill="#263238"/>
<path d="M123.069 95.6654C123.431 94.9005 123.845 94.1614 124.309 93.4535C124.723 92.7149 125.188 92.0064 125.702 91.3333C125.341 92.0986 124.926 92.8377 124.462 93.5452C124.049 94.2844 123.583 94.993 123.069 95.6654Z" fill="#263238"/>
<path d="M124.135 118.485C124.498 117.72 124.912 116.981 125.376 116.273C125.791 115.536 126.255 114.827 126.765 114.153C126.404 114.918 125.99 115.657 125.525 116.365C125.111 117.102 124.647 117.811 124.135 118.485Z" fill="#263238"/>
<path d="M21.4446 148.919C21.8067 148.154 22.2211 147.415 22.6848 146.707C23.0987 145.968 23.5642 145.26 24.0779 144.587C23.7155 145.352 23.2999 146.091 22.8343 146.799C22.4214 147.537 21.957 148.246 21.4446 148.919Z" fill="#263238"/>
<path d="M34.9645 89.9299C35.3258 89.1646 35.7402 88.4255 36.2047 87.718C36.6187 86.9802 37.083 86.2718 37.5944 85.5978C37.2322 86.3627 36.8178 87.1018 36.3542 87.8097C35.9392 88.5469 35.4749 89.2553 34.9645 89.9299Z" fill="#263238"/>
<path d="M53.5366 94.4116C53.8984 93.6472 54.3116 92.9082 54.7734 92.1997C55.1853 91.4599 55.651 90.7512 56.1665 90.0795C55.8035 90.8439 55.3892 91.583 54.9263 92.2914C54.5135 93.0299 54.0491 93.7384 53.5366 94.4116Z" fill="#263238"/>
<path d="M33.9417 126.66C34.3038 125.895 34.7182 125.156 35.1818 124.448C35.5958 123.709 36.0613 123.001 36.5749 122.328C36.212 123.092 35.7977 123.831 35.3347 124.54C34.9204 125.278 34.4549 125.987 33.9417 126.66Z" fill="#263238"/>
<path d="M88.4114 135.216C88.7735 134.451 89.1879 133.712 89.6516 133.004C90.0655 132.265 90.531 131.556 91.0447 130.883C90.6834 131.649 90.269 132.388 89.8045 133.095C89.3915 133.835 88.9259 134.543 88.4114 135.216Z" fill="#263238"/>
<path d="M99.9639 145.341C100.326 144.576 100.74 143.837 101.204 143.129C101.619 142.392 102.083 141.683 102.594 141.009C102.232 141.774 101.818 142.513 101.354 143.221C100.94 143.959 100.475 144.667 99.9639 145.341Z" fill="#263238"/>
<path d="M97.4189 88.0374C97.7802 87.272 98.1946 86.5329 98.6591 85.8254C99.0721 85.0862 99.5377 84.3776 100.052 83.7052C99.6901 84.4701 99.2757 85.2092 98.812 85.9172C98.3981 86.6558 97.9326 87.3643 97.4189 88.0374Z" fill="#263238"/>
<path d="M130.061 32.8609C129.467 31.2702 128.417 29.8903 127.042 28.8942C125.667 27.898 124.028 27.33 122.331 27.2614C122.703 25.4411 122.55 23.5528 121.892 21.8154C121.235 20.078 120.098 18.5627 118.614 17.445C117.13 16.3273 115.359 15.653 113.508 15.5003C111.656 15.3476 109.799 15.7227 108.152 16.5822C107.088 13.8496 105.248 11.4877 102.859 9.78718C100.469 8.08664 97.6353 7.12159 94.7048 7.01075C91.7743 6.89991 88.8753 7.64812 86.3644 9.16333C83.8536 10.6785 81.8404 12.8947 80.5726 15.5391C79.38 15.2231 78.8737 15.7089 77.6539 15.9298C75.8818 16.2842 74.258 17.1659 72.9957 18.4592C71.7333 19.7525 70.8912 21.397 70.5798 23.1773C67.7664 22.338 64.5997 22.4535 62.0309 23.8806C59.4622 25.3077 57.6342 28.1516 57.7871 31.0737C57.94 33.9958 60.3151 36.7786 63.244 37.0266C60.4544 41.7597 62.0547 48.5587 66.6417 51.5487C71.2287 54.5387 78.1092 53.2476 81.2997 48.7795C83.0938 53.0981 87.8031 56.0066 92.4682 55.7042C97.1334 55.4018 101.421 51.9326 102.713 47.4374C104.293 50.9371 108.611 52.935 112.301 51.8715C115.991 50.808 118.584 46.819 118.06 43.0169C119.553 43.8402 121.261 44.1902 122.957 44.0205C124.653 43.8507 126.258 43.1692 127.558 42.0664C128.858 40.9636 129.792 39.4916 130.236 37.8457C130.68 36.1998 130.613 34.4577 130.044 32.8507L130.061 32.8609Z" fill="#455A64"/>
<path d="M94.1671 23.7413C94.1467 23.7413 93.8987 23.4015 93.3176 22.8375C92.4804 22.0789 91.4879 21.5119 90.4092 21.176C89.6668 20.9502 88.895 20.8357 88.119 20.8362C87.2295 20.8263 86.3465 20.9902 85.5197 21.3187C84.5773 21.7084 83.7234 22.2847 83.0093 23.0128C82.2952 23.7409 81.7356 24.6059 81.3643 25.5557C80.9863 26.5044 80.8115 27.5219 80.8512 28.5424V28.6749L80.7255 28.6273C79.1459 28.0373 77.4047 28.0482 75.8327 28.6579C74.5913 29.1472 73.5275 30.0014 72.7815 31.1077C72.2815 31.8449 71.9264 32.6705 71.735 33.5405C71.6805 33.7733 71.6408 34.0094 71.616 34.2472C71.6085 34.3306 71.596 34.4134 71.5787 34.4953C71.5711 34.4127 71.5711 34.3297 71.5787 34.2472C71.5927 34.0064 71.6234 33.7669 71.6704 33.5303C71.8429 32.6432 72.1894 31.799 72.6897 31.0465C73.0378 30.5208 73.4549 30.0442 73.9299 29.6296C74.4862 29.1502 75.119 28.7677 75.8021 28.4982C77.4093 27.8641 79.1941 27.846 80.8138 28.4472L80.6949 28.5356C80.6518 27.4907 80.8301 26.4486 81.2182 25.4776C81.597 24.5053 82.1699 23.6205 82.9018 22.8768C83.6338 22.1332 84.5095 21.5464 85.4756 21.1522C86.3238 20.8208 87.2289 20.6591 88.1394 20.6765C88.9242 20.6882 89.7029 20.8164 90.4499 21.057C91.5397 21.4085 92.537 21.9994 93.3686 22.7865C93.5893 22.9984 93.7948 23.2254 93.9836 23.4661L94.1263 23.6597C94.1432 23.6851 94.1569 23.7125 94.1671 23.7413Z" fill="#263238"/>
<path d="M127.197 139.021L134.061 146.598C134.061 146.598 144.081 142.181 145.484 143.452L131.247 157.288L120.069 145.919L127.197 139.021Z" fill="#D18757"/>
<g opacity="0.3">
<path d="M127.197 139.021L134.061 146.598C134.061 146.598 144.081 142.181 145.484 143.452L131.247 157.288L120.069 145.919L127.197 139.021Z" fill="black"/>
</g>
<path d="M129.059 150.271C128.962 150.446 128.933 150.65 128.978 150.844C129.022 151.038 129.137 151.21 129.3 151.324C129.471 151.427 129.675 151.461 129.87 151.418C130.064 151.375 130.235 151.259 130.347 151.093C130.449 150.908 130.479 150.692 130.431 150.486C130.382 150.28 130.259 150.099 130.085 149.979C129.896 149.89 129.679 149.878 129.481 149.946C129.283 150.013 129.118 150.154 129.022 150.339" fill="#E0E0E0"/>
<path d="M131.247 157.298L130.163 156.112L144.22 143.292C144.22 143.292 145.124 142.952 145.484 143.469L131.247 157.298Z" fill="#263238"/>
<path d="M134.22 146.313C134.285 146.384 133.969 146.754 133.843 147.312C133.717 147.869 133.819 148.331 133.731 148.372C133.643 148.413 133.354 147.903 133.517 147.233C133.68 146.564 134.173 146.235 134.22 146.313Z" fill="#263238"/>
<path d="M136.32 145.48C136.402 145.531 136.215 145.942 136.266 146.466C136.317 146.989 136.548 147.366 136.477 147.431C136.405 147.495 135.977 147.145 135.93 146.493C135.882 145.84 136.249 145.416 136.32 145.48Z" fill="#263238"/>
<path d="M138.899 146.442C138.851 146.52 138.416 146.265 138.219 145.711C138.022 145.157 138.202 144.692 138.291 144.719C138.379 144.746 138.372 145.147 138.535 145.599C138.698 146.051 138.96 146.367 138.899 146.442Z" fill="#263238"/>
<path d="M132.464 144.757C132.498 144.848 132.083 145.062 131.716 145.47C131.349 145.878 131.166 146.303 131.071 146.275C130.975 146.248 131.03 145.718 131.468 145.256C131.906 144.794 132.447 144.668 132.464 144.757Z" fill="#263238"/>
<path d="M125.536 140.723L132.399 148.314C132.399 148.314 142.419 143.897 143.822 145.164L129.586 159L118.407 147.617L125.536 140.723Z" fill="#D18757"/>
<path d="M127.398 151.973C127.301 152.148 127.272 152.353 127.316 152.548C127.361 152.743 127.476 152.915 127.639 153.03C127.81 153.132 128.014 153.164 128.209 153.121C128.403 153.077 128.574 152.961 128.686 152.796C128.788 152.611 128.818 152.394 128.769 152.188C128.721 151.982 128.598 151.801 128.424 151.681C128.234 151.593 128.017 151.582 127.819 151.649C127.621 151.717 127.457 151.859 127.36 152.045" fill="#E0E0E0"/>
<path d="M129.586 159L128.505 157.811L142.558 144.988C142.558 144.988 143.462 144.648 143.822 145.164L129.586 159Z" fill="#263238"/>
<path d="M132.559 148.015C132.623 148.086 132.307 148.457 132.182 149.014C132.056 149.571 132.161 150.033 132.07 150.074C131.978 150.115 131.692 149.605 131.856 148.936C132.019 148.266 132.511 147.937 132.559 148.015Z" fill="#263238"/>
<path d="M134.652 147.182C134.733 147.233 134.55 147.645 134.597 148.168C134.645 148.691 134.883 149.068 134.808 149.133C134.733 149.197 134.312 148.847 134.261 148.195C134.21 147.543 134.587 147.118 134.652 147.182Z" fill="#263238"/>
<path d="M137.237 148.144C137.19 148.222 136.755 147.967 136.558 147.414C136.361 146.86 136.558 146.394 136.629 146.421C136.701 146.449 136.711 146.85 136.874 147.301C137.037 147.753 137.302 148.073 137.237 148.144Z" fill="#263238"/>
<path d="M130.802 146.459C130.836 146.55 130.425 146.765 130.058 147.176C129.691 147.587 129.504 148.005 129.409 147.981C129.314 147.957 129.368 147.42 129.806 146.945C130.245 146.469 130.785 146.37 130.802 146.459Z" fill="#263238"/>
<path d="M110.969 75.6457C110.843 75.4927 110.699 75.3548 110.541 75.2346C110.086 74.7691 110.201 73.9434 109.739 73.4711C109.399 73.1314 108.876 73.077 108.417 72.9343C107.959 72.7916 107.469 72.4008 107.578 71.9319C108.286 71.9766 108.995 71.8544 109.647 71.5752C110.273 71.2354 110.738 70.4913 110.5 69.8253C110.317 69.3021 109.787 68.9997 109.297 68.7414C108.754 68.4492 108.02 68.1808 107.578 68.6123C107.422 68.4582 107.236 68.3377 107.032 68.2582C106.828 68.1788 106.609 68.142 106.39 68.1503C106.171 68.1586 105.956 68.2117 105.758 68.3064C105.561 68.401 105.384 68.5352 105.241 68.7007L103.949 67.7527C104.575 67.5692 105.268 67.6371 105.866 67.3755C106.464 67.1139 106.885 66.261 106.403 65.8193C106.226 65.6596 105.971 65.5951 105.825 65.4082C105.679 65.2213 105.679 65.0684 105.533 64.9869C105.421 64.9301 105.293 64.9099 105.169 64.9291L101.163 65.116L103.015 63.7569C103.586 63.339 104.225 62.6764 103.929 62.0376C103.633 61.3988 102.651 61.4838 102.206 62.0036C102.091 61.8952 101.953 61.8134 101.802 61.7638C101.651 61.7142 101.492 61.698 101.334 61.7165C101.176 61.7349 101.025 61.7875 100.89 61.8705C100.755 61.9536 100.639 62.0651 100.552 62.1973C100.404 62.0066 100.198 61.8693 99.9656 61.8061C99.733 61.743 99.486 61.7575 99.2623 61.8474C99.0386 61.9374 98.8504 62.0978 98.7262 62.3045C98.602 62.5111 98.5486 62.7526 98.5741 62.9924C98.0808 62.7162 97.5219 62.5788 96.9567 62.5948C97.3339 61.9799 96.6509 61.0523 95.9374 61.2357C96.1258 60.958 96.2264 60.6301 96.2262 60.2946C96.1821 59.9548 95.8389 59.6524 95.5263 59.7747C95.6863 59.602 95.7881 59.3834 95.8173 59.1498C95.8466 58.9162 95.8017 58.6792 95.6891 58.4725C95.5765 58.2657 95.4019 58.0994 95.1898 57.9972C94.9777 57.8949 94.7389 57.8618 94.507 57.9025C94.4594 57.6137 94.4152 57.3283 94.3676 57.0429C94.1371 56.8752 93.863 56.778 93.5784 56.7629C93.2937 56.7479 93.0108 56.8156 92.7639 56.9579C92.2984 57.2977 92.2576 58.1268 92.7639 58.3714C92.4241 58.1641 92.1795 58.7554 92.2169 59.1529C92.2678 59.7067 92.3188 60.2572 92.3664 60.811C92.2892 60.5411 92.123 60.3051 91.8947 60.1416C91.6665 59.9782 91.3896 59.8967 91.1092 59.9106C91.0781 59.7842 91.0219 59.6655 90.9438 59.5614C90.8656 59.4574 90.7673 59.3702 90.6546 59.3051C90.5419 59.24 90.4173 59.1984 90.2881 59.1828C90.1589 59.1671 90.0279 59.1778 89.903 59.2141C89.9573 58.5821 88.9584 58.1947 88.5778 58.7078C88.622 58.4326 88.323 58.2389 88.0682 58.1234C87.7218 57.9205 87.3176 57.8392 86.9197 57.8923C86.5324 57.9875 86.2402 58.4903 86.4916 58.7995C86.2945 58.4598 85.7271 58.5651 85.5266 58.8981C85.4434 59.0745 85.3986 59.2666 85.3951 59.4616C85.3916 59.6566 85.4294 59.8502 85.5062 60.0295C85.6607 60.3891 85.7494 60.7735 85.7679 61.1644C85.589 60.8122 85.2883 60.5369 84.9218 60.3897C84.3068 60.0499 83.6612 59.7101 82.9647 59.7101C83.0021 59.4145 82.6759 59.2107 82.3939 59.1121C81.5048 58.8088 80.5456 58.7768 79.6383 59.0204C79.2102 59.1325 78.7345 59.4009 78.7209 59.8393C78.7313 60.0412 78.7946 60.2369 78.9044 60.4067C79.2962 61.1542 79.6892 61.9017 80.0834 62.6492C78.8816 62.3715 77.6229 62.4785 76.4851 62.955C75.9857 62.955 75.5032 62.6968 75.0071 62.7681C74.511 62.8395 74.1237 63.5598 74.5518 63.8113C74.3576 63.8428 74.1786 63.9356 74.041 64.0763C73.9034 64.2169 73.8145 64.3979 73.7873 64.5927C73.77 64.7653 73.8043 64.9391 73.8858 65.0922C73.8925 65.2084 73.9166 65.3229 73.9572 65.432C74.0334 65.6379 74.1488 65.8272 74.297 65.9892C74.3189 66.1726 74.3855 66.3479 74.4909 66.4996C74.5964 66.6512 74.7375 66.7747 74.9018 66.8591C74.3757 66.9471 73.8688 67.1252 73.4034 67.3857C73.0993 67.5527 72.846 67.7987 72.6702 68.0978C72.4944 68.3968 72.4025 68.7377 72.4044 69.0846C72.4044 69.122 72.4044 69.1594 72.4214 69.1967C72.3434 69.4368 72.3629 69.698 72.4758 69.9239C72.3185 70.0177 72.1985 70.1629 72.136 70.335C71.7593 70.2695 71.372 70.3079 71.0155 70.4461C70.6591 70.5843 70.347 70.817 70.1129 71.1192C69.8788 71.4214 69.7315 71.7817 69.6869 72.1614C69.6422 72.5411 69.7019 72.9258 69.8595 73.2741C70.1075 73.8245 70.9332 74.2356 71.2797 73.7396C71.2592 74.007 71.3046 74.2753 71.4118 74.5211C71.519 74.7669 71.6848 74.9827 71.8947 75.1496C71.7102 75.2688 71.5524 75.4251 71.4314 75.6085C71.3104 75.7918 71.2287 75.9983 71.1917 76.2149C71.1546 76.4315 71.163 76.6534 71.2161 76.8665C71.2693 77.0797 71.3662 77.2795 71.5006 77.4533C70.3691 77.63 69.8017 79.2541 70.556 80.107C70.4229 80.2161 70.3129 80.3506 70.2324 80.5026C70.152 80.6547 70.1026 80.8213 70.0872 80.9927C70.0719 81.1641 70.0908 81.3368 70.143 81.5008C70.1952 81.6647 70.2795 81.8166 70.3911 81.9476C70.5027 82.0786 70.6392 82.1861 70.7928 82.2637C70.9464 82.3413 71.1139 82.3875 71.2855 82.3996C71.4571 82.4117 71.6295 82.3895 71.7924 82.3342C71.9554 82.2789 72.1057 82.1917 72.2345 82.0777C72.1585 82.6013 72.2351 83.1358 72.4554 83.6169C72.7204 84.0688 73.383 84.3304 73.7873 83.994C73.7465 84.2536 73.7637 84.519 73.8375 84.7711C73.9114 85.0232 74.0402 85.2559 74.2146 85.4524C74.389 85.6489 74.6047 85.8043 74.8463 85.9076C75.0879 86.0109 75.3494 86.0594 75.6119 86.0497C75.4503 86.2979 75.3909 86.599 75.446 86.8901C75.5012 87.1811 75.6666 87.4395 75.9078 87.6115C76.149 87.7834 76.4474 87.8555 76.7405 87.8126C77.0335 87.7698 77.2988 87.6154 77.4807 87.3816L80.0528 88.8631C80.6116 89.2093 81.2021 89.5017 81.8163 89.7363C82.6126 90.0155 83.4645 90.0994 84.3 89.9809C84.5638 89.9198 84.8381 89.9198 85.1019 89.9809C85.3842 90.111 85.6287 90.3109 85.812 90.5619C86.3788 91.1559 87.0883 91.5949 87.8728 91.837C88.6573 92.079 89.4908 92.1162 90.2937 91.9448C90.5416 91.87 90.7993 91.8334 91.0582 91.8361C91.3504 91.8923 91.628 92.0079 91.8737 92.1759C92.509 92.5358 93.1871 92.8143 93.892 93.0049C94.4968 93.168 95.1831 93.253 95.7098 92.9166C96.2364 92.5802 96.3893 91.6696 95.8423 91.3604C95.9147 91.1695 96.0298 90.9977 96.1788 90.8582C96.3278 90.7186 96.5067 90.6149 96.7019 90.5552C96.8987 90.5037 97.1076 90.5282 97.2871 90.624C97.4666 90.7197 97.6034 90.8795 97.6703 91.0716C97.7654 91.4658 97.3305 91.9109 96.9567 91.7512C97.2965 92.4919 98.5299 92.4579 98.958 91.7512C99.3862 91.0444 99.0328 90.0523 98.3329 89.6446C98.7694 89.221 99.096 88.6973 99.2842 88.1189C99.3411 88.4501 99.5222 88.747 99.7906 88.949C100.059 89.1511 100.394 89.2431 100.728 89.2062C100.734 89.522 100.805 89.8332 100.936 90.1203C101.068 90.4074 101.257 90.6642 101.493 90.8745C101.729 91.0796 102.028 91.197 102.341 91.2069C102.654 91.2168 102.96 91.1186 103.209 90.9289C103.674 90.5144 103.616 89.6174 103.046 89.3659C103.776 88.9854 103.752 87.7248 103.008 87.3748C103.258 87.0567 103.395 86.6649 103.399 86.2604C103.403 85.856 103.273 85.4617 103.029 85.1391C103.101 85.2583 103.198 85.3605 103.313 85.4386C103.429 85.5167 103.56 85.5688 103.698 85.5914C103.835 85.614 103.976 85.6066 104.11 85.5695C104.245 85.5325 104.369 85.4668 104.476 85.3769C104.5 86.0837 105.366 86.4235 106.073 86.4235C106.627 86.4235 107.225 86.3113 107.466 85.625C107.574 85.3003 107.565 84.9477 107.439 84.6294C107.15 83.8751 106.457 83.4334 105.798 83.0223C105.869 81.9843 106.11 80.965 106.511 80.0051C106.818 80.1921 107.171 80.2887 107.531 80.2837C107.596 80.3025 107.663 80.3161 107.731 80.3244C108.55 80.406 109.182 79.4818 109.117 78.6595C109.053 77.8373 108.526 77.1339 108.02 76.485C108.489 76.801 108.716 77.3684 109.094 77.7863C109.471 78.2042 110.225 78.4285 110.565 77.9766C110.661 77.8323 110.723 77.6688 110.748 77.4975C110.826 77.1577 110.905 76.8179 110.979 76.4782C111.085 76.21 111.081 75.9112 110.969 75.6457Z" fill="#263238"/>
<path d="M86.4067 68.5376L97.5854 70.702C100.942 71.8674 101.221 76.818 99.9129 80.107C98.4654 83.78 96.5491 88.2039 94.8774 90.6673C91.5068 95.6315 87.0863 94.3743 87.0863 94.3743C87.0863 94.3743 86.7193 95.1524 85.7849 97.0925L85.1496 98.1492L73.9369 93.0322L83.8142 69.6623C84.0252 69.1827 84.4094 68.8004 84.8901 68.5919C85.3707 68.3834 85.9124 68.364 86.4067 68.5376Z" fill="#AA7D6D"/>
<path d="M87.0863 94.3743C84.5503 93.2281 82.3816 91.4016 80.8208 89.0975C80.8208 89.0975 80.8786 93.6506 86.4679 95.6654L87.0863 94.3743Z" fill="#896255"/>
<path d="M81.4936 75.2448C81.3382 75.3854 81.2316 75.5719 81.1895 75.7773C81.1473 75.9826 81.1717 76.196 81.2591 76.3865C81.3095 76.4664 81.3761 76.535 81.4545 76.5878C81.5329 76.6406 81.6214 76.6765 81.7145 76.6931C81.8075 76.7097 81.903 76.7068 81.9949 76.6844C82.0867 76.662 82.1729 76.6207 82.2479 76.5631C82.3328 76.9879 83.0192 76.9233 83.1415 76.4816C83.3522 76.7806 83.9162 76.5733 83.9977 76.169C84.2696 76.4578 84.7283 76.0127 85.0782 75.7341C85.2735 75.5946 85.4766 75.4664 85.6864 75.3501C86.3459 74.9222 86.8712 74.3169 87.2018 73.6037C87.8814 73.3149 88.3537 72.6047 88.7784 71.9388C89.0468 71.5208 89.3153 71.1063 89.5803 70.6884L89.9778 70.5015C89.9024 70.6503 89.8759 70.8191 89.9022 70.9839C89.9284 71.1486 90.006 71.3009 90.1239 71.4189C90.3544 71.6148 90.634 71.744 90.9326 71.7927L91.799 72.0203L92.2238 72.4043C91.9178 72.7914 91.7503 73.2699 91.7481 73.7634C91.6711 74.0789 91.7097 74.4116 91.8568 74.7012C91.9052 74.758 91.968 74.8009 92.0387 74.8252C92.1093 74.8496 92.1852 74.8545 92.2584 74.8396C92.3316 74.8247 92.3994 74.7904 92.4549 74.7404C92.5104 74.6903 92.5514 74.6263 92.5737 74.5551C92.5995 74.618 92.639 74.6744 92.6892 74.7202C92.7395 74.766 92.7993 74.8 92.8643 74.8199C92.9294 74.8397 92.998 74.8448 93.0653 74.8349C93.1325 74.8249 93.1968 74.8001 93.2533 74.7623C93.5155 74.5839 93.7161 74.3288 93.8275 74.0318C94.142 73.3349 94.2437 72.5607 94.1197 71.8063C94.3711 72.4552 94.6192 73.1076 94.8706 73.76C94.911 73.9035 94.9939 74.0315 95.1085 74.1269C95.0769 74.1772 95.0567 74.2338 95.0495 74.2928C95.0422 74.3517 95.048 74.4116 95.0665 74.468C95.085 74.5244 95.1157 74.5761 95.1564 74.6194C95.1972 74.6626 95.2469 74.6963 95.3021 74.7182C95.5333 74.7608 95.7721 74.7262 95.9817 74.6196C96.488 74.4293 97.1301 74.0012 97.0248 73.461C97.1947 73.5051 97.402 73.2809 97.3646 73.0872C97.7044 73.7362 98.0238 74.3818 98.3499 75.0307C98.2378 74.8643 97.949 75.0307 97.8878 75.2414C97.8474 75.4542 97.8835 75.6745 97.9898 75.8632C97.7448 76.0176 97.5555 76.2461 97.4495 76.5156C97.2932 76.1282 96.6443 76.3899 96.5389 76.8554C96.5023 77.0612 96.5322 77.2734 96.6245 77.461C96.7168 77.6486 96.8666 77.8019 97.052 77.8985C97.1917 77.9981 97.3639 78.0413 97.5341 78.0192C97.7042 77.9971 97.8597 77.9115 97.9694 77.7795C98.2786 78.0174 98.8358 77.7082 98.9004 77.2597C99.0669 77.5451 99.5018 77.2053 99.6785 76.8757C100.001 76.2709 100.205 75.6101 100.28 74.9288C100.229 75.0104 100.28 75.1327 100.375 75.1123C100.396 75.1049 100.415 75.0929 100.43 75.0773C100.446 75.0617 100.458 75.0428 100.465 75.022C100.473 75.0012 100.476 74.979 100.474 74.9571C100.471 74.9351 100.464 74.9138 100.453 74.8948C100.399 75.7511 100.348 76.6107 100.297 77.4669C100.299 78.1643 100.17 78.8558 99.9163 79.5056C99.7974 79.7638 99.6547 80.1274 99.8586 80.2565C99.9175 80.2858 99.9832 80.2987 100.049 80.2939C100.871 80.2385 101.649 79.8999 102.251 79.3357C102.477 79.1518 102.672 78.9327 102.828 78.6868C103.144 78.1601 103.168 77.5179 103.396 76.9471C103.515 76.7044 103.617 76.4534 103.701 76.1962C103.769 75.7872 103.733 75.3677 103.596 74.9764C103.222 73.5935 102.821 72.1562 101.897 71.2388C101.323 70.6646 100.582 70.318 100.005 69.754C99.6613 69.3817 99.3391 68.9903 99.0397 68.5818C97.718 66.9644 95.8866 65.9553 93.9872 65.2316C92.9279 64.788 91.798 64.5372 90.6506 64.4908C89.3276 64.5413 88.0227 64.8147 86.7907 65.2995C84.826 65.9299 82.9863 66.898 81.3543 68.1604C80.0154 69.1898 79.0048 70.5864 78.4458 72.18C77.9463 73.794 78.2011 75.6559 79.3122 76.5733L80.0835 76.2336" fill="#263238"/>
<path d="M82.1594 76.8316C82.1017 76.7637 79.6451 74.4532 78.2486 77.4466C76.8521 80.44 80.1412 81.2215 80.1887 81.14C80.2363 81.0584 82.1594 76.8316 82.1594 76.8316Z" fill="#AA7D6D"/>
<path d="M79.8049 79.5804C79.8049 79.5804 79.7335 79.5804 79.6282 79.5804C79.4791 79.577 79.3373 79.5147 79.234 79.4071C78.9724 79.1455 78.9418 78.5169 79.1797 77.9732C79.2898 77.7121 79.4584 77.4796 79.6724 77.2937C79.7436 77.213 79.8335 77.1511 79.9341 77.1132C80.0348 77.0753 80.1433 77.0626 80.25 77.0762C80.3175 77.0875 80.3788 77.1224 80.423 77.1747C80.4672 77.2269 80.4913 77.2932 80.4912 77.3616C80.4912 77.4636 80.447 77.5145 80.4606 77.5281C80.4742 77.5417 80.5456 77.5077 80.5796 77.3718C80.5995 77.2904 80.5886 77.2045 80.549 77.1306C80.4956 77.0305 80.4055 76.955 80.2975 76.9199C80.1633 76.887 80.0228 76.8892 79.8895 76.926C79.7563 76.9629 79.6347 77.0333 79.5364 77.1306C79.2888 77.3294 79.0939 77.5861 78.969 77.8781C78.704 78.4897 78.7516 79.1964 79.1253 79.5226C79.1943 79.584 79.2764 79.6288 79.3653 79.6535C79.4542 79.6782 79.5476 79.6823 79.6384 79.6653C79.7641 79.6619 79.8117 79.5906 79.8049 79.5804Z" fill="#896255"/>
<path d="M99.7566 80.0016C99.7566 80.0016 99.7804 80.0526 99.8517 80.1239C99.9557 80.2244 100.078 80.304 100.212 80.3584C100.433 80.4421 100.669 80.4752 100.905 80.4552C101.14 80.4352 101.368 80.3627 101.571 80.2429C101.981 79.9999 102.314 79.6467 102.533 79.2235C102.633 79.0588 102.708 78.8802 102.757 78.6935C102.649 78.8498 102.551 79.012 102.461 79.1794C102.231 79.5707 101.905 79.897 101.513 80.1273C101.321 80.2414 101.107 80.3131 100.885 80.3378C100.663 80.3624 100.438 80.3393 100.225 80.27C100.059 80.2 99.9014 80.1099 99.7566 80.0016Z" fill="#455A64"/>
<path d="M106.705 78.7819C106.736 78.7113 106.753 78.6349 106.753 78.5576C106.753 78.4804 106.736 78.404 106.705 78.3334C106.635 78.1666 106.504 78.0329 106.338 77.9596C106.113 77.8692 105.874 77.8175 105.631 77.8067H105.543L105.594 77.732C105.658 77.5985 105.674 77.4469 105.638 77.3031C105.603 77.1593 105.519 77.0323 105.4 76.9437C105.097 76.7454 104.743 76.6403 104.381 76.6413L103.888 76.5971L104.371 76.502C104.437 76.4766 104.497 76.4382 104.547 76.3891C104.598 76.34 104.638 76.2811 104.665 76.216C104.693 76.1509 104.707 76.081 104.706 76.0105C104.706 75.9399 104.691 75.8702 104.663 75.8054C104.588 75.6606 104.484 75.5329 104.357 75.4306C104.23 75.3282 104.083 75.2534 103.926 75.2108H103.882L103.61 75.1089L103.899 75.0681C103.982 75.045 104.06 75.0031 104.125 74.9454C104.19 74.8877 104.24 74.8159 104.273 74.7355C104.306 74.655 104.32 74.5682 104.314 74.4815C104.308 74.3948 104.282 74.3107 104.238 74.2357C104.141 74.0959 104.003 73.9887 103.844 73.9281C103.684 73.8675 103.511 73.8563 103.345 73.8959L102.968 73.9808L103.307 73.7702C103.497 73.6426 103.648 73.4665 103.746 73.2603C103.844 73.0541 103.885 72.8253 103.865 72.5979C103.845 72.4195 103.786 72.2478 103.692 72.0954C103.597 71.943 103.469 71.814 103.318 71.7179C103.114 71.5859 102.88 71.5097 102.638 71.497C102.471 71.497 102.383 71.497 102.38 71.497C102.376 71.497 102.4 71.497 102.444 71.4733C102.508 71.4594 102.573 71.4514 102.638 71.4495C102.889 71.4469 103.136 71.5139 103.351 71.6431C103.52 71.742 103.663 71.8783 103.771 72.0415C103.878 72.2047 103.946 72.3905 103.97 72.5843C103.996 72.836 103.954 73.0902 103.846 73.3194C103.739 73.5487 103.572 73.7445 103.362 73.8857L103.311 73.76C103.504 73.7106 103.708 73.7208 103.895 73.7893C104.083 73.8578 104.245 73.9815 104.361 74.1439C104.416 74.2373 104.45 74.342 104.459 74.4503C104.469 74.5585 104.454 74.6675 104.415 74.7691C104.38 74.8778 104.317 74.9751 104.231 75.0505C104.146 75.126 104.041 75.1767 103.929 75.1972V75.0545H103.973C104.15 75.1037 104.315 75.1896 104.457 75.3067C104.598 75.4238 104.714 75.5694 104.796 75.7341C104.86 75.9072 104.86 76.0978 104.796 76.2709C104.763 76.3551 104.71 76.4301 104.642 76.4893C104.574 76.5485 104.493 76.5902 104.405 76.6107V76.4714C104.793 76.4743 105.171 76.5926 105.492 76.8112C105.631 76.9192 105.728 77.0725 105.766 77.2443C105.803 77.4162 105.78 77.5959 105.699 77.7524L105.662 77.6708C105.916 77.6866 106.165 77.7488 106.396 77.8543C106.571 77.9508 106.701 78.1117 106.759 78.3028C106.802 78.4191 106.802 78.5467 106.759 78.663C106.75 78.7061 106.732 78.7467 106.705 78.7819Z" fill="#455A64"/>
<path d="M106.212 70.1481C106.143 70.1572 106.072 70.1502 106.005 70.1277C105.819 70.0746 105.64 69.9993 105.472 69.9035C105.228 69.7579 104.953 69.6739 104.67 69.6588C104.589 69.6579 104.51 69.6755 104.437 69.7103C104.365 69.745 104.301 69.796 104.252 69.8593C104.194 69.9193 104.157 69.9969 104.148 70.0799C104.139 70.163 104.157 70.2467 104.201 70.318L104.075 70.3384C104.13 70.1549 103.97 69.9442 103.834 69.737C103.697 69.5224 103.529 69.33 103.334 69.1661C103.241 69.088 103.132 69.0294 103.016 68.9938C102.899 68.9582 102.776 68.9463 102.655 68.9589C102.545 68.9661 102.438 69.0039 102.348 69.0682C102.258 69.1324 102.188 69.2204 102.145 69.3224L102.084 69.4991L102.013 69.3292C101.869 68.9993 101.622 68.7251 101.309 68.5478C101.065 68.4049 100.79 68.32 100.507 68.2997C100.254 68.2897 100 68.3207 99.7566 68.3915C99.8131 68.3503 99.8763 68.3193 99.9435 68.2997C100.127 68.2354 100.32 68.2054 100.514 68.2114C100.813 68.2207 101.106 68.301 101.367 68.4458C101.71 68.6291 101.982 68.9206 102.142 69.2749H102.003C102.053 69.1468 102.138 69.0355 102.249 68.9532C102.359 68.871 102.491 68.8212 102.628 68.8094C102.769 68.7932 102.912 68.8057 103.049 68.846C103.186 68.8862 103.313 68.9535 103.423 69.0438C103.628 69.2188 103.806 69.4238 103.949 69.652C104.025 69.7608 104.093 69.8743 104.153 69.9918C104.221 70.1128 104.24 70.2547 104.208 70.3894L104.163 70.5253L104.085 70.4097C104.026 70.3138 103.999 70.2009 104.01 70.0885C104.021 69.976 104.069 69.8704 104.147 69.7879C104.209 69.7125 104.287 69.652 104.376 69.6109C104.465 69.5697 104.562 69.549 104.66 69.5501C104.963 69.5706 105.256 69.6702 105.509 69.8389C105.669 69.9395 105.839 70.0248 106.015 70.0937C106.082 70.1079 106.148 70.126 106.212 70.1481Z" fill="#455A64"/>
<path d="M100.793 64.4058C100.674 64.3502 100.548 64.3102 100.419 64.2869C100.271 64.2686 100.121 64.2861 99.9809 64.3379C99.8029 64.3993 99.6508 64.519 99.5494 64.6776L99.5086 64.7456L99.4542 64.6912C99.3615 64.6244 99.2484 64.592 99.1343 64.5994C99.0203 64.6069 98.9123 64.6537 98.829 64.732C98.6378 64.9343 98.5071 65.1862 98.4519 65.4591L98.3669 65.7411L98.3058 65.4489V65.4014C98.2795 65.3091 98.2325 65.2241 98.1683 65.1529C98.1041 65.0816 98.0244 65.026 97.9354 64.9902C97.7656 64.9207 97.5752 64.9207 97.4054 64.9902C97.2564 65.0484 97.1215 65.1375 97.0096 65.2517C96.8978 65.366 96.8114 65.5027 96.7564 65.6528C96.6807 65.8624 96.6383 66.0825 96.6307 66.3052C96.634 66.3882 96.6283 66.4714 96.6137 66.5532C96.5834 66.4742 96.5695 66.3898 96.5729 66.3052C96.5586 66.0753 96.5874 65.8448 96.6579 65.6256C96.712 65.4553 96.8032 65.2991 96.9248 65.1681C97.0464 65.0371 97.1954 64.9346 97.3612 64.8679C97.4671 64.8269 97.5803 64.8082 97.6938 64.8127C97.8073 64.8173 97.9186 64.8452 98.0208 64.8945C98.1231 64.9439 98.2141 65.0138 98.2883 65.0998C98.3624 65.1858 98.4181 65.2861 98.4519 65.3946V65.4557H98.3092C98.3732 65.1546 98.5231 64.8784 98.7407 64.6606C98.8499 64.5634 98.99 64.508 99.1362 64.5042C99.2824 64.5005 99.4252 64.5487 99.5392 64.6403H99.444C99.5599 64.4565 99.7386 64.3212 99.9469 64.2597C100.103 64.2096 100.269 64.2002 100.429 64.2325C100.531 64.2514 100.628 64.2907 100.715 64.348C100.773 64.3718 100.796 64.4024 100.793 64.4058Z" fill="#455A64"/>
<path d="M76.9779 69.3837C76.9641 69.3453 76.9549 69.3053 76.9507 69.2647C76.9337 69.1522 76.9246 69.0387 76.9235 68.925C76.9176 68.7355 76.9622 68.5479 77.0526 68.3813C77.1131 68.2764 77.1983 68.1878 77.3006 68.1231C77.4191 68.043 77.5643 68.0125 77.705 68.0381L77.6404 68.0959C77.6082 67.9536 77.6226 67.8047 77.6816 67.6712C77.7405 67.5378 77.8409 67.4268 77.9678 67.3548C78.0946 67.2828 78.2414 67.2535 78.3862 67.2713C78.531 67.2891 78.6662 67.3531 78.7719 67.4537L78.6631 67.5183C78.6456 67.4006 78.6657 67.2803 78.7206 67.1747C78.7756 67.0692 78.8625 66.9837 78.9689 66.9305C79.0791 66.8794 79.1991 66.8529 79.3206 66.8529C79.4421 66.8529 79.5621 66.8794 79.6723 66.9305C79.7691 66.9837 79.869 67.0314 79.9713 67.0732C80.0179 67.0842 80.0666 67.0834 80.1128 67.071C80.1591 67.0585 80.2015 67.0348 80.2363 67.0018C80.3286 66.9163 80.4342 66.8463 80.5489 66.7946C80.6755 66.7445 80.8148 66.7361 80.9465 66.7708C81.2006 66.857 81.4444 66.9709 81.6736 67.1105C81.7708 67.1714 81.8791 67.2123 81.9923 67.231C82.1054 67.2497 82.2211 67.2457 82.3327 67.2193C82.4313 67.1819 82.5264 67.1072 82.6385 67.0494C82.7544 66.9919 82.8831 66.965 83.0123 66.9712C83.1338 66.9759 83.2524 67.0091 83.3586 67.0682C83.4649 67.1272 83.5558 67.2104 83.6239 67.311L83.505 67.3552C83.498 67.2313 83.53 67.1084 83.5964 67.0036C83.6628 66.8988 83.7603 66.8174 83.8753 66.7708C84.075 66.6912 84.2975 66.6912 84.4971 66.7708C84.8039 66.8927 85.0842 67.0727 85.3228 67.3008C85.4813 67.4394 85.6248 67.5943 85.7509 67.7629C85.7983 67.82 85.8382 67.8827 85.8698 67.9498C85.6813 67.7421 85.4816 67.5448 85.2718 67.3586C85.0344 67.1483 84.7603 66.9836 84.4632 66.8727C84.291 66.8032 84.0985 66.8032 83.9263 66.8727C83.8363 66.9097 83.7599 66.9737 83.7075 67.0558C83.6552 67.1379 83.6296 67.2342 83.6341 67.3314L83.6749 67.61L83.5152 67.3756C83.4566 67.2946 83.3802 67.2283 83.2918 67.1817C83.2033 67.1352 83.1054 67.1096 83.0055 67.1072C82.9005 67.1028 82.7962 67.1263 82.7031 67.1751C82.6 67.2399 82.4934 67.2989 82.3837 67.3518C82.2534 67.3953 82.1139 67.4035 81.9794 67.3756C81.851 67.3452 81.7266 67.2995 81.609 67.2397C81.3934 67.1133 81.1657 67.0086 80.9295 66.9271C80.826 66.9 80.7168 66.906 80.6169 66.9441C80.5137 66.9914 80.4186 67.0544 80.3349 67.1309C80.283 67.1773 80.2206 67.2102 80.153 67.2268C80.0855 67.2434 80.0149 67.2431 79.9475 67.2261C79.8377 67.1825 79.7309 67.1314 79.6281 67.0732C79.5373 67.0302 79.4381 67.0079 79.3376 67.0079C79.2371 67.0079 79.1379 67.0302 79.0471 67.0732C78.9659 67.1104 78.8989 67.1728 78.856 67.2512C78.8131 67.3295 78.7967 67.4196 78.8093 67.5081L78.8466 67.695L78.7005 67.5726C78.6051 67.4967 78.4885 67.4523 78.3667 67.4456C78.2449 67.4389 78.1241 67.4702 78.021 67.5353C77.9316 67.5968 77.8607 67.6815 77.8158 67.7803C77.7709 67.879 77.7538 67.9881 77.7661 68.0959V68.1707H77.6914C77.5806 68.1569 77.4682 68.1768 77.3689 68.2277C77.2695 68.2786 77.1878 68.3582 77.1341 68.4561C77.0451 68.6078 76.996 68.7797 76.9914 68.9555C76.9711 69.2172 76.9948 69.3837 76.9779 69.3837Z" fill="#455A64"/>
<path d="M73.2947 77.6742C73.2947 77.6742 73.2472 77.647 73.1826 77.5689C73.0923 77.4548 73.0274 77.3227 72.9923 77.1815C72.9327 76.956 72.9495 76.717 73.0399 76.502C73.0977 76.3613 73.1835 76.234 73.2922 76.1276C73.4008 76.0213 73.53 75.9383 73.6719 75.8836L73.6345 75.9515C73.5656 75.6782 73.5551 75.3933 73.6039 75.1157C73.6402 74.9577 73.7217 74.8137 73.8384 74.7011C73.9002 74.6379 73.9752 74.589 74.0579 74.5579C74.1407 74.5268 74.2293 74.5142 74.3175 74.5211L74.2461 74.6332C74.1717 74.5015 74.1326 74.3529 74.1326 74.2017C74.1326 74.0504 74.1717 73.9018 74.2461 73.7702C74.3262 73.619 74.4431 73.4905 74.5859 73.3964C74.7301 73.3105 74.8978 73.2724 75.065 73.2877C75.2213 73.2877 75.3096 73.2605 75.3742 73.1314C75.4455 73.002 75.5399 72.8868 75.6528 72.7916C75.8734 72.6248 76.1354 72.5214 76.4105 72.4926L77.0901 72.3737C77.4262 72.3036 77.7732 72.3036 78.1094 72.3737C78.1984 72.3981 78.2849 72.4311 78.3676 72.4722C78.422 72.5028 78.4492 72.5232 78.4458 72.5266C78.4424 72.53 78.3268 72.4722 78.106 72.4314C77.7812 72.3848 77.4506 72.3986 77.1308 72.4722L76.4513 72.6081C76.2031 72.6379 75.968 72.7354 75.7717 72.8901C75.6697 72.9778 75.5864 73.0853 75.5271 73.2061C75.4873 73.2863 75.4231 73.3518 75.3436 73.393C75.2638 73.4251 75.1781 73.4402 75.0922 73.4372C74.949 73.4275 74.8062 73.4609 74.6821 73.5329C74.558 73.6049 74.4582 73.7124 74.3956 73.8415C74.3337 73.9508 74.3011 74.0743 74.3011 74.2C74.3011 74.3256 74.3337 74.4491 74.3956 74.5584L74.4772 74.6842H74.3243C74.1891 74.6874 74.0592 74.7372 73.9565 74.8251C73.8537 74.913 73.7844 75.0336 73.7602 75.1666C73.7159 75.426 73.7228 75.6915 73.7806 75.9481V75.9991H73.7331C73.6041 76.0457 73.4858 76.1179 73.3854 76.2113C73.285 76.3047 73.2045 76.4175 73.1486 76.5427C73.0621 76.7368 73.0383 76.953 73.0807 77.1611C73.1175 77.3446 73.1902 77.519 73.2947 77.6742Z" fill="#455A64"/>
<path d="M79.1728 76.1894C79.1105 76.1574 79.0542 76.1149 79.0063 76.0637C78.6423 75.7032 78.4306 75.2166 78.4151 74.7046C78.3955 74.5047 78.4512 74.3048 78.5714 74.1439C78.6109 74.0997 78.6597 74.0648 78.7144 74.0419C78.7691 74.019 78.8282 74.0085 78.8874 74.0114C78.9538 74.0112 79.0186 74.0318 79.0728 74.0701C79.127 74.1085 79.1679 74.1628 79.1898 74.2255H79.0607C79.0562 74.0277 79.1093 73.8329 79.2136 73.6648C79.2843 73.575 79.3839 73.5126 79.4956 73.4882C79.5565 73.4781 79.619 73.4824 79.6779 73.5007C79.7369 73.519 79.7908 73.5508 79.8354 73.5935C79.9169 73.6547 79.9951 73.7294 80.0528 73.7362C80.1106 73.743 80.148 73.6852 80.1921 73.5833C80.293 73.3707 80.4719 73.2052 80.6916 73.1212C80.8633 73.0494 81.0519 73.0279 81.2354 73.0592C81.4189 73.0905 81.5897 73.1732 81.7279 73.2979L81.6056 73.3353C81.6215 73.1889 81.6753 73.0493 81.7617 72.9301C81.8482 72.8109 81.9642 72.7163 82.0983 72.6557C82.1686 72.6349 82.2425 72.6292 82.3152 72.6392C82.3878 72.6492 82.4575 72.6745 82.5196 72.7135C82.5831 72.7494 82.635 72.8027 82.6693 72.8671C82.7036 72.9315 82.7189 73.0043 82.7133 73.077L82.5876 73.0464C82.7338 72.6961 82.9765 72.3944 83.2875 72.1766C83.5231 72.0108 83.7903 71.8951 84.0724 71.8368C84.2531 71.7978 84.4387 71.7863 84.6228 71.8029C84.688 71.804 84.7524 71.8167 84.8131 71.8402C84.5699 71.8338 84.3267 71.8577 84.0894 71.9116C83.8211 71.9833 83.5695 72.1068 83.3487 72.2752C83.0633 72.4887 82.8423 72.7767 82.7099 73.1076L82.5094 73.6105L82.5842 73.077C82.6114 72.8901 82.3395 72.7372 82.1425 72.8018C82.0336 72.8556 81.9403 72.9362 81.8714 73.0361C81.8024 73.136 81.76 73.2518 81.7483 73.3726L81.7245 73.5051L81.626 73.41C81.5077 73.3056 81.3623 73.2368 81.2066 73.2115C81.0509 73.1863 80.8912 73.2056 80.746 73.2673C80.5624 73.3366 80.4127 73.4742 80.3281 73.6513C80.3057 73.706 80.276 73.7574 80.2397 73.8042C80.2151 73.8328 80.1842 73.8554 80.1495 73.8702C80.1147 73.8849 80.077 73.8914 80.0392 73.8891C79.9275 73.8581 79.8264 73.797 79.747 73.7124C79.72 73.6836 79.6865 73.6618 79.6492 73.6487C79.6119 73.6357 79.572 73.6319 79.533 73.6377C79.4537 73.6533 79.3827 73.6967 79.3325 73.76C79.2447 73.9053 79.1999 74.0727 79.2034 74.2425L79.1694 74.6298L79.0709 74.2561C79.0335 74.11 78.7685 74.0964 78.6733 74.2221C78.5699 74.3579 78.5214 74.5278 78.5374 74.6978C78.5375 74.9919 78.6036 75.2822 78.7311 75.5472C78.8479 75.7807 78.9966 75.9968 79.1728 76.1894Z" fill="#455A64"/>
<path d="M89.8725 71.1199C89.8725 71.1199 89.723 71.0111 89.5497 70.7801C89.4466 70.6345 89.3748 70.469 89.339 70.2942C89.3177 70.1816 89.32 70.0658 89.3457 69.9541C89.3715 69.8423 89.4201 69.7372 89.4885 69.6452C89.5234 69.6019 89.5646 69.564 89.6108 69.5331V69.6384C89.5478 69.5532 89.5044 69.4551 89.4839 69.3511C89.4633 69.2471 89.466 69.1398 89.4919 69.037C89.535 68.8711 89.641 68.7285 89.7875 68.6395C90.0356 68.4968 90.2224 68.5579 90.2122 68.5715C90.0813 68.602 89.9562 68.6536 89.8419 68.7244C89.7292 68.8069 89.6506 68.9278 89.621 69.0642C89.604 69.1472 89.6049 69.2329 89.6236 69.3155C89.6424 69.3981 89.6786 69.4758 89.7298 69.5433L89.7739 69.6011L89.7128 69.652C89.6782 69.6757 89.6473 69.7044 89.621 69.737C89.5096 69.8909 89.4632 70.0826 89.4919 70.2704C89.5191 70.429 89.5756 70.581 89.6584 70.7189C89.7441 70.8444 89.8159 70.9789 89.8725 71.1199Z" fill="#455A64"/>
<path d="M93.6916 71.1675C93.8512 71.0596 93.9707 70.9019 94.0313 70.719C94.0614 70.6217 94.0665 70.5186 94.0463 70.4188C94.0262 70.3191 93.9813 70.226 93.9158 70.1481C93.8327 70.0543 93.7252 69.9852 93.6053 69.9486C93.4853 69.912 93.3576 69.9094 93.2363 69.9409L93.1139 69.9783L93.1479 69.8559C93.1894 69.7022 93.2021 69.542 93.1853 69.3836C93.1779 69.3057 93.1544 69.2302 93.1164 69.1618C93.0784 69.0934 93.0267 69.0336 92.9644 68.9861C92.764 68.8536 92.4276 68.9351 92.4004 69.1424L92.2611 69.1084C92.3544 68.8307 92.3373 68.5278 92.2135 68.2624C92.1139 68.0503 91.9481 67.8763 91.7412 67.7663C91.5495 67.6726 91.3422 67.6151 91.1296 67.5964C91.1858 67.5745 91.2464 67.5663 91.3063 67.5726C91.4723 67.5743 91.6359 67.6126 91.7854 67.6848C92.0178 67.7942 92.2069 67.9784 92.3223 68.208C92.3968 68.3532 92.4418 68.5118 92.4547 68.6745C92.4675 68.8372 92.4479 69.0009 92.397 69.156L92.2577 69.1186C92.272 69.037 92.3098 68.9613 92.3666 68.901C92.4233 68.8406 92.4965 68.7981 92.5771 68.7788C92.655 68.7574 92.7365 68.7521 92.8165 68.7632C92.8965 68.7743 92.9735 68.8016 93.0426 68.8434C93.1241 68.9031 93.1919 68.9794 93.2417 69.0672C93.2915 69.1551 93.3221 69.2525 93.3314 69.3531C93.3506 69.5289 93.3345 69.7068 93.2838 69.8763L93.1683 69.8084C93.3166 69.7676 93.4736 69.7714 93.6197 69.8191C93.7659 69.8668 93.8949 69.9564 93.9906 70.0768C94.0657 70.1711 94.1152 70.2832 94.1342 70.4023C94.1533 70.5213 94.1412 70.6433 94.0993 70.7563C94.0494 70.9005 93.9556 71.0253 93.8309 71.1131C93.7896 71.1424 93.7418 71.161 93.6916 71.1675Z" fill="#455A64"/>
<path d="M95.8254 66.8557C95.8254 66.8557 95.9104 66.8149 96.0803 66.7639C96.3214 66.6944 96.5764 66.6873 96.821 66.7436C97.0062 66.782 97.1813 66.8587 97.3352 66.9686C97.4891 67.0786 97.6183 67.2195 97.7146 67.3823C97.8301 67.5893 97.8929 67.8215 97.8977 68.0585C97.9024 68.2955 97.8489 68.53 97.7418 68.7414L97.6874 68.8434L97.8029 68.823C98.1241 68.7701 98.4532 68.8444 98.7203 69.0303C98.8639 69.1262 98.984 69.2534 99.0717 69.4022C99.1593 69.5511 99.2123 69.7178 99.2266 69.8899C99.2435 70.0612 99.2248 70.2342 99.1716 70.3979C99.1184 70.5617 99.0318 70.7126 98.9174 70.8413L98.8291 70.9364H98.9446C99.1193 70.9442 99.2863 71.0109 99.4183 71.1256C99.5504 71.2404 99.6397 71.3964 99.6717 71.5684C99.6939 71.7252 99.6681 71.8851 99.5978 72.027C99.5275 72.1689 99.4158 72.2862 99.2776 72.3635L99.1247 72.445H99.298C99.468 72.4606 99.6332 72.5102 99.7838 72.5907C99.9343 72.6712 100.067 72.7811 100.175 72.9139C100.348 73.117 100.465 73.3618 100.514 73.624C100.55 73.8515 100.532 74.084 100.463 74.3036C100.497 74.251 100.522 74.1937 100.538 74.1337C100.586 73.9624 100.597 73.7831 100.572 73.6071C100.529 73.3306 100.412 73.071 100.232 72.8562C100.12 72.7118 99.9795 72.5917 99.8195 72.503C99.6596 72.4142 99.4833 72.3587 99.3014 72.3397V72.4348C99.4722 72.3473 99.6091 72.2053 99.6902 72.0312C99.7713 71.8572 99.792 71.6611 99.7491 71.4739C99.7062 71.2868 99.6022 71.1193 99.4534 70.9979C99.3046 70.8766 99.1196 70.8083 98.9276 70.8039L98.9684 70.9024C99.0932 70.7609 99.1877 70.5954 99.2461 70.416C99.3046 70.2366 99.3257 70.0472 99.3082 69.8593C99.2917 69.6702 99.2331 69.4873 99.1367 69.3238C99.0403 69.1604 98.9084 69.0206 98.7509 68.9147C98.6039 68.8126 98.4382 68.7405 98.2633 68.7026C98.0884 68.6647 97.9077 68.6618 97.7316 68.6939L97.7894 68.7754C97.9068 68.5451 97.964 68.2887 97.9557 68.0303C97.9473 67.7719 97.8738 67.5197 97.7418 67.2974C97.6378 67.126 97.4986 66.9786 97.3334 66.865C97.1683 66.7513 96.9809 66.674 96.7836 66.6382C96.5272 66.5898 96.2627 66.6085 96.0157 66.6926C95.9454 66.7384 95.8815 66.7932 95.8254 66.8557Z" fill="#455A64"/>
<path d="M102.556 79.2134C103.657 76.835 103.467 73.9707 102.295 71.6296C101.061 69.2957 99.0796 67.4435 96.6679 66.3698C94.2634 65.3095 91.6533 64.7965 89.0263 64.868C87.3003 64.868 85.5266 65.1059 84.0248 65.9553C82.523 66.8047 81.4153 68.2182 80.4096 69.6317C79.6932 70.5601 79.1205 71.591 78.7107 72.6897C78.5098 73.244 78.422 73.8329 78.4523 74.4217C78.4827 75.0105 78.6306 75.5873 78.8874 76.1181C78.0889 75.9855 77.7015 75.0749 77.552 74.2799C76.9846 71.2219 78.6801 68.2624 80.8037 65.9893C82.5026 64.1511 84.8301 63.2507 86.5222 62.8633C88.972 62.3027 91.6528 62.8124 94.0211 63.655C96.6544 64.5928 99.1619 65.6121 100.908 67.7935C102.655 69.9749 105.128 74.6978 102.563 79.1998" fill="#D18757"/>
<path d="M89.6992 81.4627C89.4029 81.7245 89.027 81.8789 88.6323 81.901C88.2454 81.9809 87.8428 81.927 87.4906 81.7481C87.4906 81.6972 88.0003 81.8093 88.6119 81.7244C89.2235 81.6394 89.672 81.4152 89.6992 81.4627Z" fill="#896255"/>
<path d="M94.8673 85.2105C94.6256 84.9649 94.4378 84.6715 94.3161 84.3491C94.1944 84.0267 94.1414 83.6824 94.1605 83.3383C94.2837 83.6484 94.3903 83.9649 94.4799 84.2863C94.6634 84.7994 94.9013 85.1799 94.8673 85.2105Z" fill="#896255"/>
<path d="M85.8563 80.7866C85.7296 80.8388 85.6142 80.9149 85.5165 81.0108C85.4312 81.1164 85.3866 81.249 85.3908 81.3846C85.393 81.4695 85.4186 81.5522 85.4647 81.6235C85.5109 81.6949 85.5758 81.7521 85.6524 81.7889C85.931 81.9588 86.2062 81.755 86.4645 81.4967C86.7302 81.2023 86.9028 80.8358 86.9605 80.4434C86.577 80.5003 86.2045 80.616 85.8563 80.7866Z" fill="#F5F5F5"/>
<path d="M96.4947 85.2954C96.4678 85.388 96.4574 85.4846 96.4641 85.5808C96.4836 85.6747 96.5353 85.7588 96.6102 85.8187C96.6582 85.8549 96.7149 85.8778 96.7746 85.885C96.8343 85.8921 96.8948 85.8833 96.95 85.8594C97.1675 85.7847 97.1811 85.54 97.1573 85.2818C97.1193 85.0048 97.0012 84.745 96.8175 84.5343C96.6709 84.7697 96.562 85.0265 96.4947 85.2954Z" fill="#F5F5F5"/>
<path d="M86.8077 79.6993L86.0873 79.7468C86.042 79.7433 85.9965 79.75 85.9541 79.7665C85.9118 79.783 85.8737 79.8088 85.8427 79.842C85.8199 79.8847 85.8143 79.9344 85.8269 79.9812C85.8395 80.0279 85.8695 80.068 85.9106 80.0934C85.9524 80.1174 85.9986 80.1328 86.0465 80.1387C86.0944 80.1445 86.1429 80.1407 86.1893 80.1274C86.424 80.0579 86.637 79.9292 86.8077 79.7536" fill="#F5F5F5"/>
<path d="M88.7886 82.183C88.5211 82.3508 88.2063 82.4271 87.8916 82.4005C87.578 82.4314 87.2629 82.3586 86.9946 82.1932C87.294 82.1868 87.5934 82.197 87.8916 82.2238C88.1897 82.1948 88.4891 82.1812 88.7886 82.183Z" fill="#896255"/>
<path d="M94.6566 85.8799C94.2456 85.4317 93.9967 84.8586 93.9498 84.2523C94.1091 84.5025 94.2358 84.772 94.327 85.0542C94.4711 85.3145 94.5819 85.5919 94.6566 85.8799Z" fill="#896255"/>
<path d="M85.9718 85.9885C85.9277 85.9885 85.8427 85.7133 85.9718 85.3769C86.1009 85.0406 86.3116 84.8605 86.3524 84.8945C86.3932 84.9284 86.2335 85.1391 86.1383 85.4313C86.0432 85.7235 86.033 85.9817 85.9718 85.9885Z" fill="#896255"/>
<path d="M96.7598 83.4606C96.6768 83.64 96.5271 83.7801 96.3425 83.8511C96.158 83.9222 95.953 83.9186 95.7711 83.8411C95.6806 83.807 95.5978 83.7551 95.5277 83.6884C95.4575 83.6218 95.4015 83.5417 95.3629 83.453C95.3242 83.3643 95.3037 83.2688 95.3027 83.172C95.3016 83.0753 95.3199 82.9793 95.3566 82.8898C95.439 82.7106 95.588 82.5706 95.772 82.4995C95.956 82.4284 96.1604 82.4319 96.3419 82.5092C96.4325 82.5434 96.5153 82.5953 96.5855 82.6619C96.6557 82.7285 96.7119 82.8084 96.7509 82.8971C96.7898 82.9857 96.8106 83.0811 96.8122 83.1779C96.8137 83.2747 96.7959 83.3708 96.7598 83.4606Z" fill="#263238"/>
<path d="M97.8946 81.935C97.7689 81.9826 97.4291 81.354 96.6884 81.0108C95.9477 80.6677 95.2375 80.7798 95.2002 80.6507C95.1764 80.5929 95.3395 80.4706 95.6555 80.4094C96.0794 80.3389 96.5148 80.4006 96.9024 80.5861C97.2873 80.7658 97.6051 81.0633 97.8096 81.4355C97.9557 81.7006 97.9557 81.9112 97.8946 81.935Z" fill="#263238"/>
<path d="M89.8352 80.3414C89.7521 80.5209 89.6024 80.661 89.4179 80.732C89.2333 80.803 89.0284 80.7994 88.8464 80.722C88.7562 80.6875 88.6737 80.6353 88.6039 80.5686C88.534 80.5019 88.4781 80.4219 88.4396 80.3333C88.401 80.2447 88.3804 80.1493 88.3791 80.0527C88.3778 79.9561 88.3957 79.8602 88.4319 79.7706C88.5136 79.5908 88.6626 79.4502 88.8469 79.3791C89.0311 79.3079 89.2359 79.3119 89.4173 79.3901C89.5078 79.4242 89.5906 79.4762 89.6608 79.5428C89.7311 79.6094 89.7873 79.6893 89.8262 79.7779C89.8651 79.8665 89.886 79.962 89.8875 80.0588C89.8891 80.1555 89.8713 80.2516 89.8352 80.3414Z" fill="#263238"/>
<path d="M90.5723 78.663C90.4466 78.7105 90.1068 78.0819 89.3661 77.7388C88.6254 77.3956 87.9153 77.5077 87.8745 77.382C87.8541 77.3208 88.0172 77.2019 88.3332 77.1407C88.7571 77.0686 89.193 77.1304 89.5802 77.3174C89.9655 77.4948 90.2836 77.7915 90.4874 78.1635C90.6335 78.4421 90.6335 78.6426 90.5723 78.663Z" fill="#263238"/>
<path d="M90.6812 85.3973C90.6981 85.3531 91.1942 85.489 91.9825 85.7371C92.1796 85.805 92.3766 85.8526 92.4684 85.7371C92.5767 85.55 92.6242 85.3339 92.6043 85.1187C92.6417 84.5818 92.679 84.0144 92.7198 83.4198C92.9067 81.0108 93.1344 79.0672 93.2329 79.0774C93.3314 79.0876 93.2567 81.0413 93.0732 83.4504C93.0222 84.0416 92.9747 84.6056 92.9271 85.1493C92.9399 85.432 92.852 85.7101 92.679 85.9341C92.6206 85.9886 92.5502 86.0286 92.4735 86.051C92.3968 86.0734 92.3159 86.0776 92.2373 86.0633C92.1195 86.045 92.005 86.0095 91.8976 85.9579C91.4703 85.8226 91.0616 85.6342 90.6812 85.3973Z" fill="#263238"/>
<path d="M88.8939 85.3192C88.6888 85.2184 88.4601 85.1758 88.2325 85.196C88.0049 85.2161 87.7871 85.2982 87.6029 85.4334C87.4187 85.5686 87.275 85.7517 87.1876 85.9628C87.1001 86.1738 87.0721 86.4049 87.1067 86.6307C87.1534 86.8839 87.2758 87.1169 87.4578 87.2989C87.6399 87.4809 87.8729 87.6034 88.126 87.6501C88.4952 87.7672 88.8917 87.7672 89.2609 87.6501L89.3118 87.5991C89.472 87.4385 89.5914 87.2419 89.66 87.0257C89.7286 86.8095 89.7445 86.5801 89.7062 86.3565C89.6679 86.133 89.5767 85.9218 89.4401 85.7407C89.3035 85.5597 89.1256 85.414 88.9211 85.3158L88.8939 85.3192Z" fill="#896255"/>
<path d="M89.2778 87.9763C89.1453 87.9763 89.2201 87.0929 88.5201 86.3997C87.8202 85.7066 86.8722 85.7202 86.8756 85.5978C86.8756 85.5435 87.0999 85.4449 87.4974 85.4687C88.0144 85.5072 88.5015 85.7261 88.8735 86.0871C89.2309 86.4342 89.4383 86.9074 89.4511 87.4055C89.4545 87.7792 89.3356 87.9865 89.2778 87.9763Z" fill="#263238"/>
<path d="M88.0716 75.7714C88.2075 75.5778 88.9652 75.8971 89.9166 76.0399C90.8679 76.1826 91.6868 76.1384 91.7548 76.3796C91.7853 76.485 91.5985 76.6515 91.2417 76.7738C90.7703 76.9169 90.2725 76.9506 89.7862 76.8723C89.2998 76.794 88.8378 76.6057 88.4351 76.3219C88.1158 76.0772 87.9934 75.8632 88.0716 75.7714Z" fill="#263238"/>
<path d="M98.6284 79.6619C98.4178 79.7672 97.993 79.3561 97.3848 79.0605C96.7766 78.7649 96.2024 78.6426 96.165 78.4115C96.165 78.3028 96.3145 78.1703 96.6135 78.1193C97.0081 78.0735 97.4073 78.146 97.7606 78.3275C98.1139 78.509 98.4053 78.7913 98.5978 79.1386C98.7338 79.4071 98.7236 79.6143 98.6284 79.6619Z" fill="#263238"/>
<path d="M90.7457 99.2841C90.7457 99.2841 102.488 105.237 102.713 104.843C102.937 104.449 102.257 96.8819 101.958 95.0878C101.659 93.2938 100.039 86.4337 100.039 86.4337L104.004 84.6227C104.004 84.6227 107.949 95.3189 109.817 101.747C111.686 108.176 111.221 114.384 110.592 115.06C109.964 115.736 87.827 107.133 87.827 107.133L90.7457 99.2841Z" fill="#AA7D6D"/>
<path d="M104.041 109.328C103.81 109.222 103.607 109.063 103.45 108.862C103.058 108.391 102.799 107.823 102.702 107.218C102.595 106.624 102.57 106.018 102.628 105.417C102.633 105.166 102.676 104.917 102.757 104.68C102.779 104.927 102.779 105.176 102.757 105.424C102.737 106.013 102.778 106.603 102.879 107.184C102.976 107.764 103.209 108.312 103.559 108.784C103.814 109.138 104.041 109.301 104.041 109.328Z" fill="#896255"/>
<path d="M104.068 85.1629L104.721 78.4489L101.799 70.2603C101.799 70.2603 101.119 70.3316 101.275 71.5446L100.032 70.6272C100.032 70.6272 99.692 71.4597 99.9061 71.9455C100.31 72.5791 100.765 73.1791 101.265 73.7396L99.3251 73.1552C99.3251 73.1552 98.8528 73.9095 99.8789 74.3376L101.238 75.5336L101.771 78.1669C101.771 78.1669 100.412 82.1763 100.015 83.4708C99.6173 84.7654 100.059 86.4337 100.059 86.4337L104.068 85.1629Z" fill="#AA7D6D"/>
<path d="M103.073 77.5247C102.995 77.3053 102.945 77.077 102.923 76.8452C102.838 76.3064 102.697 75.778 102.502 75.2686C102.301 74.7669 101.982 74.3214 101.571 73.9706C101.252 73.7056 101 73.6309 101.014 73.5901C101.253 73.6257 101.478 73.7282 101.663 73.8857C102.119 74.2251 102.472 74.6852 102.682 75.2142C102.886 75.7361 103.015 76.284 103.066 76.8418C103.1 77.068 103.102 77.2978 103.073 77.5247Z" fill="#896255"/>
<path d="M102.957 73.9197C102.607 73.5136 102.285 73.0845 101.992 72.6353C101.654 72.2204 101.344 71.7834 101.065 71.3271C101.481 71.672 101.842 72.0789 102.135 72.5334C102.477 72.9516 102.754 73.4189 102.957 73.9197Z" fill="#896255"/>
<path d="M90.6606 106.637C90.6606 106.637 95.7403 103.579 98.292 104.452C100.844 105.325 131.93 143.652 131.93 143.652L125.889 149.428L98.4008 126.29L91.347 119.032L90.6606 106.637Z" fill="#263238"/>
<path d="M42.0045 142.385C42.0045 142.385 43.3636 147.821 46.2483 151.654C48.3618 154.484 51.5353 156.955 56.197 157.002C67.1956 157.118 73.5597 147.974 75.9925 144.964C78.4253 141.953 91.5033 124.822 92.4309 124.706C93.3585 124.591 93.9361 127.829 97.9863 132.691C102.036 137.553 122.729 152.354 122.729 152.354L129.562 145.987L106.24 118.981C106.24 118.981 96.1209 107.388 92.5329 106.725C88.9448 106.063 84.6126 109.583 82.4245 111.57C80.2363 113.558 42.0045 142.385 42.0045 142.385Z" fill="#263238"/>
<path d="M127.567 147.855C127.567 147.855 127.5 147.794 127.374 147.662L126.806 147.081L124.673 144.831L116.858 136.537L111.455 130.805C109.478 128.767 107.313 126.667 105.044 124.434C102.774 122.202 100.372 119.881 97.8471 117.51C96.5831 116.324 95.292 115.131 93.9397 113.959C93.5999 113.67 93.2601 113.382 92.9203 113.103C92.7437 112.967 92.5806 112.824 92.3835 112.699C92.2918 112.634 92.2 112.569 92.1049 112.515L91.9622 112.434C91.9181 112.412 91.8727 112.394 91.8263 112.379C91.388 112.326 90.9435 112.371 90.5249 112.512C90.0878 112.635 89.6597 112.788 89.244 112.97C88.4354 113.318 87.65 113.718 86.8927 114.166L72.3536 127.601L66.0405 133.432C64.2894 135.206 62.416 136.856 60.4342 138.369C58.7899 139.609 56.9534 140.571 54.9978 141.216C53.5184 141.692 51.9669 141.903 50.4142 141.841C49.4384 141.802 48.4735 141.621 47.5498 141.304C47.309 141.224 47.073 141.13 46.8431 141.022C46.6868 140.954 46.6086 140.914 46.6086 140.914L46.8499 141.005C47.0096 141.067 47.2406 141.175 47.56 141.27C48.4837 141.574 49.4458 141.744 50.4175 141.777C51.9595 141.823 53.4977 141.601 54.9638 141.121C56.9052 140.471 58.7269 139.507 60.356 138.267C62.3267 136.75 64.1909 135.099 65.9352 133.326C67.9059 131.498 70.0125 129.541 72.2381 127.482C76.6858 123.361 81.5922 118.821 86.767 114.034C87.5332 113.58 88.3277 113.176 89.1454 112.824C89.569 112.639 90.0049 112.483 90.4502 112.359C90.8962 112.21 91.37 112.163 91.8364 112.223L92.0165 112.291L92.166 112.383C92.2666 112.439 92.3631 112.503 92.4548 112.573C92.6451 112.702 92.8218 112.841 93.0019 112.981C93.3417 113.263 93.7018 113.551 94.0416 113.844C95.4007 115.016 96.6885 116.222 97.9524 117.401C100.477 119.78 102.872 122.104 105.146 124.336C107.419 126.568 109.563 128.688 111.547 130.72C113.531 132.752 115.285 134.709 116.932 136.469L124.724 144.801L126.834 147.074L127.381 147.668C127.51 147.784 127.567 147.855 127.567 147.855Z" fill="#455A64"/>
<path d="M59.9516 156.669C59.9572 156.606 59.9674 156.544 59.9822 156.482C60.0162 156.346 60.0536 156.17 60.1045 155.952C60.2235 155.47 60.3865 154.804 60.587 153.978V154.036L56.8121 150.791L56.8868 150.808C55.791 151.041 54.6623 151.078 53.5536 150.917C52.151 150.723 50.7729 150.381 49.4423 149.897C48.3466 149.515 47.2773 149.061 46.2416 148.538L46.3367 148.484C46.3367 149.503 46.313 150.359 46.3062 150.968C46.3062 151.246 46.3062 151.47 46.2892 151.647C46.2964 151.725 46.2964 151.804 46.2892 151.882C46.2738 151.804 46.2669 151.726 46.2688 151.647C46.2688 151.474 46.2688 151.25 46.2518 150.968C46.2518 150.359 46.2518 149.517 46.2246 148.484V148.382L46.3164 148.426C47.354 148.93 48.4218 149.369 49.5137 149.741C50.8352 150.211 52.2015 150.543 53.591 150.733C54.6803 150.89 55.7885 150.857 56.8665 150.635H56.9072L56.9412 150.662C58.4158 151.953 59.7172 153.084 60.7059 153.947L60.7331 153.971V154.009C60.5089 154.827 60.3288 155.49 60.1997 155.969C60.1385 156.183 60.0875 156.356 60.0502 156.492C60.0263 156.556 59.9931 156.615 59.9516 156.669Z" fill="#455A64"/>
<path d="M129.576 145.986C129.538 146.017 124.873 140.676 119.158 134.057C113.443 127.438 108.836 122.042 108.873 122.012C108.91 121.981 113.572 127.319 119.291 133.941C125.009 140.564 129.61 145.956 129.576 145.986Z" fill="#455A64"/>
<path d="M94.6769 101.068L87.3275 96.5625L86.1723 95.8557L85.8834 96.08C83.2706 96.5081 80.3621 94.8704 74.9256 90.7319C74.9256 90.7319 68.232 89.9334 62.7684 96.5625C58.9425 101.207 55.1404 111.822 51.3179 117.269C49.7039 119.569 40.975 128.78 41.1653 139.609L41.624 142.446L50.0369 139.286C51.9573 138.419 53.7398 137.274 55.3272 135.888L65.2487 127.193L82.9172 111.173C83.257 111.363 86.016 107.656 87.0319 103.871L88.8667 104.87L94.6769 101.068Z" fill="#D18757"/>
<path opacity="0.3" d="M70.6717 104.805L68.9728 104.649C70.4916 107.062 72.0648 109.539 74.3752 111.214C75.2791 111.866 76.3018 112.41 76.9508 113.314C77.4027 113.949 77.8274 114.839 78.6055 114.802C78.9453 114.802 79.4074 114.343 79.6248 114.122C80.8072 112.936 82.7881 111.207 82.7881 111.207C78.9518 108.71 74.8963 106.567 70.6717 104.805Z" fill="black"/>
<path d="M58.8509 133.051C58.8152 133.092 58.774 133.127 58.7286 133.156C58.63 133.235 58.5077 133.326 58.3582 133.435C58.2087 133.544 57.998 133.704 57.7534 133.856C57.5088 134.009 57.2437 134.196 56.9277 134.373C56.1992 134.802 55.4445 135.186 54.6682 135.521C52.7556 136.349 50.7294 136.885 48.6575 137.111C47.8172 137.206 46.9718 137.248 46.1262 137.237C45.766 137.237 45.4466 137.213 45.151 137.196C44.9066 137.187 44.6628 137.166 44.4205 137.132L43.9584 137.074C43.9052 137.071 43.8526 137.061 43.8021 137.044C43.8548 137.033 43.9091 137.033 43.9618 137.044L44.4273 137.067C44.6278 137.084 44.8724 137.098 45.1578 137.101C45.4432 137.105 45.766 137.128 46.1262 137.101C46.9666 137.094 47.806 137.04 48.6406 136.942C49.6608 136.811 50.6719 136.617 51.668 136.361C52.6602 136.091 53.634 135.757 54.5833 135.362C55.358 135.036 56.1135 134.666 56.8462 134.254C57.1656 134.087 57.4374 133.914 57.682 133.761C57.9267 133.608 58.134 133.483 58.3004 133.371L58.6878 133.119C58.7829 133.072 58.8305 133.044 58.8509 133.051Z" fill="#263238"/>
<path opacity="0.3" d="M50.6145 134.883C49.0311 134.923 47.2167 134.883 46.1973 136.106C46.0983 136.195 46.0285 136.311 45.997 136.44C45.9654 136.569 45.9737 136.705 46.0207 136.829C46.1498 137.04 46.4352 137.067 46.7002 137.071C50.8883 137.085 54.9846 135.844 58.4599 133.506L58.6978 133.167C56.133 134.235 53.392 134.817 50.6145 134.883Z" fill="black"/>
<path d="M87.5553 102.427C87.4962 102.128 87.4588 101.825 87.4432 101.52C87.382 100.959 87.2665 100.191 87.1034 99.3486C86.9403 98.506 86.7636 97.7483 86.6413 97.1945C86.5594 96.8991 86.5071 96.5963 86.485 96.2906C86.6058 96.5721 86.6991 96.8645 86.7636 97.1639C86.9097 97.7109 87.1034 98.4686 87.2767 99.3147C87.4245 100.039 87.5221 100.772 87.5689 101.51C87.6051 101.815 87.6005 102.123 87.5553 102.427Z" fill="#263238"/>
<path d="M75.7581 92.9404C75.7581 92.9404 69.1868 93.321 67.7224 97.609C67.1312 99.3418 66.805 101.377 67.9059 103.259C68.8335 104.843 73.0025 108.411 73.0025 108.411L85.5743 100.881C85.5743 100.881 78.3642 93.2123 75.7581 92.9404Z" fill="#D18757"/>
<path d="M68.3646 104.034C68.3646 104.034 68.3986 104.055 68.453 104.106L68.7044 104.323L69.6422 105.186C70.4644 105.947 71.6333 107.031 73.0638 108.363H72.9822L83.1008 102.267L84.4599 101.445L85.1395 101.041L85.4622 100.84L85.6219 100.738L85.7001 100.687L85.7375 100.664H85.7544C85.747 100.677 85.7431 100.692 85.7431 100.708C85.7431 100.723 85.747 100.738 85.7544 100.752C85.763 100.763 85.7738 100.772 85.7861 100.778C85.7984 100.785 85.8119 100.788 85.8258 100.789L85.7646 100.762L81.6058 96.4707C80.9704 95.8251 80.3894 95.1863 79.8185 94.6427C79.2757 94.1475 78.6784 93.7155 78.0381 93.3549C77.1184 92.8362 76.1334 92.443 75.1092 92.1861C74.749 92.091 74.4704 92.0332 74.2768 91.9992L74.0627 91.9551C74.0368 91.9527 74.0115 91.9458 73.9879 91.9347C74.0128 91.9317 74.0379 91.9317 74.0627 91.9347L74.2836 91.9619C74.4772 91.989 74.7626 92.0366 75.1228 92.1216C76.1609 92.3573 77.1607 92.7382 78.0925 93.253C78.7445 93.6102 79.3533 94.0412 79.9069 94.5374C80.4981 95.0912 81.0791 95.7198 81.7179 96.362L85.887 100.636L85.8292 100.609C85.8434 100.61 85.8572 100.614 85.8695 100.621C85.8819 100.629 85.8925 100.638 85.9006 100.65C85.909 100.663 85.9136 100.678 85.9136 100.694C85.9136 100.71 85.909 100.725 85.9006 100.738L85.8802 100.755L85.8394 100.782L85.7578 100.833L85.5948 100.935L85.255 101.139L84.5924 101.544L83.2333 102.369L77.7187 105.675L75.2689 107.136L74.1442 107.816L73.6108 108.132L73.3492 108.285L73.22 108.363L73.1589 108.4L73.1249 108.417H73.0536L69.6558 105.2L68.7418 104.313L68.5039 104.078C68.3646 104.065 68.3646 104.038 68.3646 104.034Z" fill="#263238"/>
<path d="M66.2273 101.911C66.1487 101.815 66.0846 101.709 66.037 101.595C65.8855 101.295 65.7604 100.982 65.6633 100.66C65.3325 99.5893 65.273 98.4531 65.49 97.3535C65.7071 96.2539 66.1939 95.2256 66.9068 94.3607C67.1208 94.1004 67.356 93.8583 67.6102 93.637C67.699 93.5511 67.7983 93.4769 67.9058 93.4161C67.9296 93.4399 67.5184 93.7559 67.0054 94.4355C66.3354 95.3005 65.8761 96.3097 65.6638 97.383C65.4514 98.4564 65.492 99.5644 65.7822 100.619C66.003 101.435 66.2579 101.897 66.2273 101.911Z" fill="#263238"/>
<path d="M73.9506 107.863C74.1137 108.027 97.8607 120.435 103.671 122.161C109.481 123.887 113.185 118.848 113.185 118.848L111.486 114.234C111.486 114.234 110.045 113.714 106.963 112.797C103.882 111.88 102.111 112.457 102.111 112.457L85.2448 101.099L73.9506 107.863Z" fill="#AA7D6D"/>
<path d="M106.759 119.416C106.743 119.583 106.685 119.743 106.589 119.881C106.389 120.231 106.119 120.536 105.798 120.778C105.478 121.023 105.111 121.199 104.721 121.295C104.561 121.35 104.391 121.364 104.225 121.336C104.756 121.207 105.256 120.97 105.692 120.639C106.128 120.309 106.491 119.893 106.759 119.416Z" fill="#896255"/>
<path d="M110.432 113.663C110.432 113.663 112.491 112.963 112.994 113.663C113.497 114.363 114.775 116.837 114.849 117.649C114.924 118.461 114.153 118.539 113.806 119.198C113.512 119.844 113.265 120.511 113.069 121.193L111.516 119.321L110.86 117.398L110.432 113.663Z" fill="#AA7D6D"/>
<path d="M85.248 101.092C85.3245 101.13 85.3983 101.173 85.4689 101.221L86.0805 101.615C86.6275 101.972 87.3886 102.475 88.3196 103.09L95.669 108.01L99.7022 110.728L101.462 111.924C101.734 112.114 102.006 112.287 102.261 112.461C102.507 112.63 102.744 112.812 102.971 113.008C103.657 113.59 104.253 114.271 104.738 115.029C104.904 115.298 105.023 115.515 105.098 115.665C105.142 115.739 105.177 115.817 105.203 115.899C105.153 115.83 105.107 115.757 105.067 115.682C104.982 115.539 104.857 115.342 104.68 115.067C104.178 114.332 103.575 113.67 102.889 113.103C102.665 112.913 102.43 112.736 102.186 112.573C101.931 112.403 101.656 112.233 101.381 112.046L99.6138 110.864L95.5705 108.145L88.2517 103.178L86.0431 101.656L85.4485 101.234C85.3762 101.195 85.3089 101.147 85.248 101.092Z" fill="#896255"/>
<path d="M111.533 114.109C111.404 114.111 111.275 114.099 111.149 114.071C110.901 114.034 110.548 113.962 110.13 113.854C109.26 113.64 108.091 113.218 106.81 112.834C105.712 112.484 104.565 112.31 103.412 112.318C102.937 112.347 102.464 112.405 101.996 112.491C102.112 112.432 102.235 112.389 102.363 112.362C102.705 112.27 103.055 112.213 103.409 112.192C104.577 112.147 105.745 112.307 106.858 112.665C108.163 113.055 109.308 113.494 110.157 113.735C110.582 113.861 110.932 113.949 111.176 114.007C111.299 114.026 111.419 114.061 111.533 114.109Z" fill="#896255"/>
<path d="M113.484 118.352C113.504 118.352 113.484 118.502 113.378 118.716C113.24 118.986 113.06 119.232 112.845 119.446C112.558 119.769 112.212 120.033 111.825 120.225C112.09 119.9 112.382 119.598 112.699 119.324C112.98 119.017 113.242 118.692 113.484 118.352Z" fill="#896255"/>
<path d="M112.831 113.514C112.695 113.503 112.56 113.481 112.427 113.449C112.105 113.417 111.78 113.433 111.462 113.497C110.708 113.643 110.103 113.874 110.103 113.82C110.507 113.56 110.963 113.39 111.438 113.324C111.774 113.253 112.122 113.253 112.458 113.324C112.709 113.392 112.842 113.497 112.831 113.514Z" fill="#896255"/>
<path d="M159.442 157.58C159.442 157.627 126.878 157.668 86.7294 157.668C46.5813 157.668 14 157.627 14 157.58C14 157.532 46.5575 157.491 86.7328 157.491C126.908 157.491 159.442 157.529 159.442 157.58Z" fill="#263238"/>
</svg>
