<svg width="174" height="174" viewBox="0 0 174 174" fill="none" xmlns="http://www.w3.org/2000/svg">
<circle cx="87.0002" cy="87" r="87" fill="#D0F5FF"/>
<path d="M37.315 112.499C37.3108 112.466 37.3108 112.433 37.315 112.399V112.121C37.315 111.865 37.315 111.517 37.315 111.049C37.315 110.106 37.2969 108.752 37.2817 107.047L37.3452 107.11L16.7329 107.15L16.8386 107.047V112.487L16.7359 112.384L31.4244 112.43L35.7585 112.46L36.9312 112.475H37.2334C37.2695 112.471 37.306 112.471 37.3422 112.475H37.2455H36.9432L35.7917 112.49L31.4819 112.517L16.7208 112.566H16.615V112.463C16.615 111.586 16.615 110.692 16.615 109.779V107.014L16.7208 106.908L37.3331 106.95H37.3966V107.014C37.3966 108.736 37.3694 110.103 37.3603 111.052C37.3603 111.505 37.3603 111.858 37.3603 112.109C37.3603 112.221 37.3603 112.309 37.3603 112.378C37.3603 112.448 37.315 112.502 37.315 112.499Z" fill="#E0E0E0"/>
<path d="M40.1076 107.047C40.1076 107.047 40.1076 107.008 40.1076 106.941C40.1076 106.875 40.1076 106.769 40.1076 106.639C40.1076 106.37 40.1076 106.004 40.0895 105.545C40.0895 104.59 40.0653 103.239 40.0472 101.579L40.1227 101.652L27.7311 101.682C27.6375 101.776 27.8581 101.555 27.8369 101.579V104.384C27.8369 105.291 27.8369 106.179 27.8369 107.029L27.7372 106.929L36.5957 106.974L39.1767 107.005H39.8719C39.9543 106.998 40.0372 106.998 40.1197 107.005C40.0452 107.008 39.9706 107.008 39.8961 107.005H39.2221L36.6622 107.032L27.7372 107.08H27.6375V106.98C27.6375 106.131 27.6375 105.249 27.6375 104.336V101.531L27.7432 101.425L40.1348 101.456H40.1892V101.531C40.1892 103.209 40.159 104.575 40.1499 105.542C40.1499 105.995 40.1499 106.355 40.1318 106.618C40.1351 106.761 40.127 106.905 40.1076 107.047Z" fill="#E0E0E0"/>
<path d="M67.4356 30.2765C67.4333 30.2433 67.4333 30.21 67.4356 30.1768V29.8957C67.4356 29.6418 67.4356 29.2912 67.4205 28.8228C67.4205 27.8828 67.3993 26.5288 67.3842 24.8242L67.4477 24.8877L46.8384 24.927L46.9411 24.8242V27.5897C46.9411 28.4964 46.9411 29.4031 46.9411 30.2735L46.8384 30.1738L61.5269 30.2191L65.864 30.2493H67.0366H67.3389C67.375 30.2451 67.4115 30.2451 67.4477 30.2493C67.4165 30.2523 67.3852 30.2523 67.354 30.2493H67.0518H65.9033L61.5904 30.2765L46.8384 30.3793H46.7356V27.5927C46.7356 27.1393 46.7356 26.686 46.7356 26.2175V24.8272C46.9472 24.6157 46.796 24.7668 46.8444 24.7215L67.4537 24.7608H67.5172V24.8272C67.5021 26.55 67.49 27.9161 67.484 28.8651C67.484 29.3184 67.484 29.6721 67.4658 29.9229C67.4658 30.0347 67.4658 30.1224 67.4658 30.1919C67.4606 30.2216 67.4504 30.2502 67.4356 30.2765Z" fill="#E0E0E0"/>
<path d="M70.2314 24.8242C70.228 24.789 70.228 24.7536 70.2314 24.7184C70.2314 24.6398 70.2314 24.5461 70.2314 24.4313C70.2314 24.1623 70.2314 23.7966 70.2102 23.3372C70.2102 22.3821 70.1891 21.0311 70.171 19.3688L70.2465 19.4444L57.8549 19.4746C57.7612 19.5683 57.9819 19.3477 57.9607 19.3719V20.7893C57.9607 21.2578 57.9607 21.7202 57.9607 22.1766C57.9607 23.0893 57.9607 23.9709 57.9607 24.8211L57.861 24.7184L66.7194 24.7667L69.3005 24.7939H69.9987C70.0812 24.7882 70.164 24.7882 70.2465 24.7939C70.2465 24.7939 70.174 24.7939 70.0198 24.7939H69.3459L66.789 24.8211L57.861 24.8695H57.7612V24.8242C57.7612 23.9749 57.7612 23.0924 57.7612 22.1796V20.7924C57.7612 20.5566 57.7612 20.3209 57.7612 20.0851V19.3749L57.867 19.2691L70.2586 19.2963H70.3342V19.3719C70.316 21.0523 70.3039 22.4184 70.2918 23.3855C70.2918 23.8389 70.2918 24.1985 70.2737 24.4615C70.2664 24.5831 70.2523 24.7042 70.2314 24.8242Z" fill="#E0E0E0"/>
<path d="M155.645 44.3182H135.888V49.5439H155.645V44.3182Z" fill="#E0E0E0"/>
<path d="M147.633 54.8814C147.633 54.8814 147.633 54.8481 147.633 54.7846C147.633 54.7212 147.633 54.6275 147.633 54.5187C147.633 54.2708 147.633 53.9142 147.633 53.4881C147.633 52.5814 147.615 51.2908 147.6 49.6527L147.661 49.7162L127.907 49.7555C127.949 49.7101 127.804 49.8552 128.003 49.6527V54.8723L127.903 54.7726L141.985 54.8179L146.14 54.8451L147.265 54.8602H147.567C147.601 54.8557 147.635 54.8557 147.67 54.8602C147.639 54.8633 147.609 54.8633 147.579 54.8602H147.298H146.195L142.042 54.9267L127.891 54.969H127.795V54.8723C127.795 54.0321 127.795 53.1747 127.795 52.3003V49.6527C127.994 49.4532 127.852 49.5983 127.897 49.553L147.651 49.5923H147.715V49.6527C147.715 51.3059 147.688 52.6146 147.679 53.5243C147.679 53.9595 147.679 54.298 147.679 54.5398C147.679 54.6456 147.679 54.7302 147.679 54.7967C147.669 54.8276 147.654 54.8563 147.633 54.8814Z" fill="#E0E0E0"/>
<path d="M73.181 143.971C73.1767 143.939 73.1767 143.906 73.181 143.874C73.181 143.805 73.181 143.717 73.181 143.608C73.181 143.36 73.181 143.019 73.1659 142.578C73.1659 141.671 73.1447 140.38 73.1296 138.742L73.1931 138.806L53.436 138.845C53.4814 138.8 53.3333 138.945 53.5358 138.745V141.396C53.5358 142.268 53.5358 143.126 53.5358 143.968L53.436 143.868L67.5171 143.913L71.6728 143.941L72.7971 143.956H73.0994C73.1345 143.952 73.17 143.952 73.2052 143.956H73.1115H72.8304H71.7272L67.5957 143.986L53.4451 144.028H53.3484V143.929C53.3484 143.088 53.3484 142.23 53.3484 141.357V138.706L53.4512 138.603L73.2082 138.642H73.2686V138.703C73.2535 140.356 73.2414 141.665 73.2354 142.575C73.2354 143.01 73.2354 143.348 73.2203 143.59C73.2203 143.696 73.2203 143.78 73.2203 143.847C73.2203 143.913 73.181 143.974 73.181 143.971Z" fill="#E0E0E0"/>
<path d="M126.504 20.2302C126.5 20.1991 126.5 20.1676 126.504 20.1365C126.504 20.067 126.504 19.9793 126.504 19.8675C126.504 19.6227 126.504 19.2631 126.489 18.8399C126.489 17.9332 126.468 16.6397 126.453 15.0046L126.516 15.065L106.759 15.1043C106.804 15.059 106.656 15.2041 106.859 15.0046V17.6612C106.859 18.5316 106.859 19.39 106.859 20.2302L106.759 20.1335L120.825 20.1698L124.981 20.197H126.105H126.407H126.513C126.482 20.201 126.45 20.201 126.419 20.197H126.138H125.035L120.885 20.2846L106.735 20.3299H106.638V20.2302C106.638 19.39 106.638 18.5316 106.638 17.6612V15.0076C106.841 14.8051 106.696 14.9532 106.741 14.9079L126.498 14.9472H126.558V15.0076C126.543 16.6578 126.531 17.9695 126.525 18.8792C126.525 19.3144 126.525 19.6499 126.51 19.8947C126.51 20.0005 126.51 20.0851 126.51 20.1516C126.51 20.2181 126.504 20.2332 126.504 20.2302Z" fill="#E0E0E0"/>
<path d="M152.46 88.668C152.456 88.6359 152.456 88.6034 152.46 88.5713C152.46 88.5018 152.46 88.4142 152.46 88.3023C152.46 88.0575 152.46 87.716 152.445 87.2747C152.445 86.368 152.424 85.0745 152.409 83.4394L152.472 83.4998L132.715 83.5421C132.76 83.4968 132.612 83.6419 132.815 83.4394V86.087C132.815 86.9594 132.815 87.8167 132.815 88.659L132.715 88.5592L146.796 88.6046L150.952 88.6318H152.076H152.378C152.414 88.6276 152.449 88.6276 152.484 88.6318H152.391H152.109H151.006L146.875 88.659L132.724 88.7043H132.627V88.6076C132.627 87.7674 132.627 86.91 132.627 86.0356V83.388L132.73 83.2883L152.487 83.3276H152.548V83.388C152.533 85.0412 152.52 86.3499 152.514 87.2596C152.514 87.6948 152.514 88.0333 152.499 88.2751C152.499 88.3809 152.499 88.4655 152.499 88.532C152.499 88.5985 152.46 88.668 152.46 88.668Z" fill="#E0E0E0"/>
<path d="M128.451 30.6694H35.269V135.33H128.451V30.6694Z" fill="#455A64"/>
<path d="M35.4202 30.6331C35.6632 30.7892 35.8891 30.9706 36.0941 31.1741C36.4931 31.5277 37.0341 32.0294 37.6053 32.6037C38.1765 33.1779 38.6903 33.7189 39.0439 34.1149C39.2457 34.3203 39.4269 34.545 39.5849 34.7858C39.359 34.6021 39.1488 34.3999 38.9563 34.1813L37.4905 32.7034L36.0186 31.2557C35.8019 31.0654 35.6017 30.8571 35.4202 30.6331Z" fill="#263238"/>
<path d="M128.442 30.6694C127.82 31.393 127.159 32.0822 126.462 32.7336C125.805 33.4194 125.111 34.0682 124.383 34.677C125.005 33.9527 125.666 33.2626 126.362 32.6097C127.019 31.9253 127.713 31.2775 128.442 30.6694Z" fill="#263238"/>
<path d="M39.6212 130.742C39.6544 130.772 38.6812 131.894 37.4481 133.245C36.215 134.595 35.1874 135.662 35.1572 135.641C35.127 135.62 36.0971 134.493 37.3302 133.139C38.5634 131.785 39.5849 130.712 39.6212 130.742Z" fill="#263238"/>
<path d="M124.383 34.6891H39.3401V131.307H124.383V34.6891Z" fill="#EBEBEB"/>
<path d="M124.534 131.458H39.189V34.538H124.534V131.458ZM39.4912 131.156H124.232V34.8402H39.4912V131.156Z" fill="#263238"/>
<g opacity="0.6">
<path d="M123.264 65.5865C123.11 63.6401 122.962 61.6574 122.279 59.844C121.596 58.0306 120.342 56.3653 118.61 55.7518C117.344 55.3045 115.968 55.4495 114.645 55.6309C112.015 55.9875 109.359 56.4741 106.959 57.6831C102.462 59.9498 100.446 65.4082 99.3183 70.5854C98.191 75.7627 99.4785 80.946 101.528 85.7908C103.577 90.6356 105.154 94.4649 108.83 98.0494C107.787 99.7252 107.128 101.611 106.901 103.572C106.673 105.533 106.883 107.519 107.515 109.389C107.841 110.332 108.286 111.293 108.168 112.294C107.962 114.065 106.164 115.068 105.366 116.634C104.659 118.018 104.798 119.692 104.798 121.267C104.798 122.842 104.541 124.61 103.359 125.55C102.585 126.154 101.576 126.29 100.639 126.574C99.7021 126.858 98.732 127.451 98.5234 128.46L99.2155 130.981L113.118 130.606L120.414 121.418L124.703 100.213L123.264 65.5865Z" fill="white"/>
</g>
<path d="M76.131 112.705C76.1008 112.675 77.8235 111.036 79.9754 109.051C82.1273 107.065 83.9045 105.478 83.9286 105.512C83.9528 105.545 82.2361 107.18 80.0842 109.166C77.9323 111.151 76.1552 112.738 76.131 112.705Z" fill="#E0E0E0"/>
<path d="M98.6442 105.487C98.614 105.457 100.337 103.819 102.489 101.833C104.641 99.8477 106.418 98.261 106.442 98.2942C106.466 98.3275 104.749 99.9625 102.594 101.948C100.439 103.934 98.6714 105.521 98.6442 105.487Z" fill="#E0E0E0"/>
<path d="M101.485 118.063C101.455 118.033 103.178 116.395 105.33 114.409C107.482 112.424 109.259 110.837 109.283 110.87C109.307 110.903 107.59 112.539 105.435 114.524C103.281 116.51 101.512 118.094 101.485 118.063Z" fill="#E0E0E0"/>
<path d="M90.8405 92.5366C90.8103 92.5064 92.533 90.8683 94.6879 88.8826C96.8428 86.897 98.617 85.3102 98.6381 85.3405C98.6593 85.3707 96.9456 87.0118 94.7937 88.9975C92.6418 90.9832 90.8707 92.5699 90.8405 92.5366Z" fill="#E0E0E0"/>
<path d="M112.78 105.648C112.749 105.614 114.472 103.979 116.624 101.99C118.776 100.002 120.547 98.4181 120.583 98.4483C120.62 98.4785 118.891 100.117 116.736 102.105C114.581 104.094 112.81 105.678 112.78 105.648Z" fill="#E0E0E0"/>
<path d="M45.2608 90.288C45.2336 90.2548 46.9533 88.6197 49.1083 86.631C51.2632 84.6423 53.0373 83.0616 53.0585 83.0919C53.0796 83.1221 51.369 84.7602 49.214 86.7489C47.0591 88.7376 45.291 90.3243 45.2608 90.288Z" fill="#E0E0E0"/>
<path d="M47.4428 46.9628C47.4126 46.9326 49.1353 45.2945 51.2872 43.3088C53.4391 41.3231 55.2162 39.7364 55.2404 39.7696C55.2646 39.8029 53.5479 41.4379 51.396 43.4236C49.2441 45.4093 47.47 46.996 47.4428 46.9628Z" fill="#E0E0E0"/>
<path d="M64.9723 95.7282C64.9421 95.698 66.6648 94.0599 68.8167 92.0742C70.9686 90.0885 72.7458 88.5018 72.77 88.5351C72.7941 88.5683 71.0774 90.2034 68.9225 92.1891C66.7676 94.1747 64.9935 95.7554 64.9723 95.7282Z" fill="#E0E0E0"/>
<path d="M59.3842 126.042C59.354 126.009 61.0767 124.374 63.2286 122.385C65.3805 120.397 67.1576 118.816 67.1818 118.846C67.206 118.876 65.4893 120.514 63.3344 122.503C61.1795 124.492 59.4114 126.072 59.3842 126.042Z" fill="#E0E0E0"/>
<path d="M85.775 125.045C85.7448 125.015 87.4676 123.377 89.6195 121.391C91.7714 119.405 93.5485 117.819 93.5727 117.849C93.5969 117.879 91.8802 119.517 89.7252 121.506C87.5703 123.494 85.8023 125.087 85.775 125.045Z" fill="#E0E0E0"/>
<path d="M88.9667 60.9109C88.9365 60.8807 90.6592 59.2426 92.8111 57.2569C94.963 55.2712 96.7402 53.6845 96.7643 53.7147C96.7885 53.7449 95.0718 55.383 92.9199 57.3717C90.768 59.3604 88.9969 60.9442 88.9667 60.9109Z" fill="#E0E0E0"/>
<path d="M104.997 48.6069C104.967 48.5767 106.69 46.9386 108.842 44.9529C110.994 42.9673 112.771 41.3805 112.795 41.4138C112.819 41.447 111.102 43.0821 108.947 45.0678C106.792 47.0535 105.024 48.6402 104.997 48.6069Z" fill="white"/>
<path d="M51.3388 68.6813C51.3085 68.6511 53.0313 67.013 55.1832 65.0273C57.3351 63.0417 59.1122 61.4549 59.1364 61.4882C59.1606 61.5214 57.4439 63.1565 55.292 65.1422C53.1401 67.1279 51.372 68.7146 51.3388 68.6813Z" fill="white"/>
<path d="M46.119 105.886C46.0888 105.853 47.8116 104.218 49.9635 102.229C52.1154 100.241 53.8925 98.6568 53.9167 98.6901C53.9409 98.7233 52.2242 100.358 50.0723 102.344C47.9204 104.33 46.1493 105.917 46.119 105.886Z" fill="white"/>
<path d="M65.7733 114.228C65.7431 114.198 67.4659 112.56 69.6178 110.574C71.7697 108.588 73.5468 107.002 73.571 107.035C73.5952 107.068 71.8785 108.703 69.7266 110.689C67.5747 112.674 65.8036 114.261 65.7733 114.228Z" fill="white"/>
<path d="M100.219 63.2079C100.189 63.1747 101.911 61.5396 104.063 59.5509C106.215 57.5622 107.992 55.9815 108.017 56.0117C108.041 56.0419 106.324 57.6801 104.169 59.6687C102.014 61.6574 100.246 63.2381 100.219 63.2079Z" fill="white"/>
<path d="M85.068 82.8803C85.0378 82.8471 86.7605 81.2089 88.9124 79.2233C91.0643 77.2376 92.8415 75.6509 92.8657 75.6841C92.8898 75.7174 91.1731 77.3524 89.0212 79.3381C86.8693 81.3238 85.0982 82.9105 85.068 82.8803Z" fill="white"/>
<path d="M104.997 91.4033C104.967 91.3731 106.69 89.7349 108.842 87.7493C110.994 85.7636 112.771 84.1769 112.795 84.2071C112.819 84.2373 111.102 85.8754 108.947 87.8641C106.792 89.8528 105.024 91.4365 104.997 91.4033Z" fill="white"/>
<path d="M72.1353 126.456C72.1081 126.426 73.8278 124.788 75.9828 122.802C78.1377 120.817 79.9118 119.23 79.933 119.26C79.9541 119.29 78.2435 120.929 76.0885 122.917C73.9336 124.906 72.1656 126.49 72.1353 126.456Z" fill="white"/>
<path d="M102.045 74.7381C102.017 74.7079 103.737 73.0698 105.892 71.0841C108.047 69.0984 109.821 67.5117 109.842 67.5419C109.863 67.5722 108.153 69.2103 105.998 71.199C103.843 73.1877 102.075 74.7714 102.045 74.7381Z" fill="#E0E0E0"/>
<path d="M66.3295 48.6069C66.2993 48.5767 68.022 46.9386 70.1739 44.9529C72.3258 42.9673 74.1029 41.3805 74.1271 41.4138C74.1513 41.447 72.4346 43.0821 70.2797 45.0678C68.1248 47.0535 66.3597 48.6402 66.3295 48.6069Z" fill="#E0E0E0"/>
<path d="M94.7394 45.0104C94.7092 44.9772 96.4319 43.3421 98.5868 41.3534C100.742 39.3647 102.516 37.784 102.537 37.8142C102.558 37.8444 100.845 39.4825 98.6926 41.4712C96.5407 43.4599 94.7696 45.0406 94.7394 45.0104Z" fill="#E0E0E0"/>
<path d="M73.3896 59.6083C73.3593 59.5781 75.0821 57.94 77.234 55.9543C79.3859 53.9686 81.163 52.3819 81.1872 52.4151C81.2114 52.4484 79.4947 54.0835 77.3397 56.0691C75.1848 58.0548 73.4349 59.6415 73.3896 59.6083Z" fill="#E0E0E0"/>
<path d="M79.0536 45.9111C79.0234 45.8809 80.7461 44.2428 82.898 42.2571C85.0499 40.2714 86.8271 38.6847 86.8512 38.7179C86.8754 38.7512 85.1587 40.3863 83.0038 42.3719C80.8489 44.3576 79.0808 45.9443 79.0536 45.9111Z" fill="#E0E0E0"/>
<path d="M47.4428 118.846C47.4126 118.816 49.1353 117.178 51.2872 115.192C53.4391 113.206 55.2162 111.62 55.2404 111.65C55.2646 111.68 53.5479 113.318 51.396 115.307C49.2441 117.296 47.47 118.879 47.4428 118.846Z" fill="#E0E0E0"/>
<path d="M52.9343 52.7143C52.9615 52.7476 51.2962 54.2497 49.2138 56.0721C47.1314 57.8946 45.4147 59.3423 45.3875 59.3091C45.3603 59.2758 47.0256 57.7737 49.108 55.9512C51.1904 54.1288 52.9071 52.6811 52.9343 52.7143Z" fill="#E0E0E0"/>
<path d="M41.0598 129.578L122.699 129.204L122.633 129.27C122.633 102.559 122.633 70.6368 122.633 36.3846L122.711 36.4632H122.572H41.081L41.1505 36.3937C41.1082 92.0047 41.081 128.968 41.081 129.572C41.081 128.968 41.0508 91.9926 41.0115 36.3937V36.3242H41.081H122.572H122.79V36.4027C122.79 70.6428 122.79 102.592 122.79 129.288V129.355H122.699L41.0598 129.578Z" fill="white"/>
<path d="M81.958 130.984C81.9126 130.984 81.8794 109.432 81.8794 82.8531C81.8794 56.2746 81.9126 34.7163 81.958 34.7163C82.0033 34.7163 82.0366 56.2626 82.0366 82.8531C82.0366 109.444 82.0003 130.984 81.958 130.984Z" fill="#263238"/>
<path d="M125.392 79.2807C125.392 79.326 106.082 79.3592 82.2692 79.3592C58.4561 79.3592 39.1404 79.326 39.1404 79.2807C39.1404 79.2353 58.4471 79.2021 82.2692 79.2021C106.091 79.2021 125.392 79.2384 125.392 79.2807Z" fill="#263238"/>
<g opacity="0.7">
<path d="M64.4464 74.2968C65.5676 74.1185 66.3323 72.9459 67.4475 72.7192C69.6841 72.2658 71.5549 74.5084 73.7945 74.9406C75.5081 75.2731 77.2309 74.5054 78.7722 73.6833C80.3136 72.8612 81.9034 71.9394 83.6503 71.9273C85.3972 71.9152 87.2922 73.239 87.1713 74.9829C87.0686 76.4699 85.6602 77.4612 84.5812 78.4828C83.5022 79.5043 82.6318 81.2936 83.6443 82.3876C84.551 83.3729 86.4157 83.0284 86.8238 84.7813C86.9033 85.1605 86.9072 85.5518 86.8351 85.9325C86.763 86.3132 86.6164 86.6759 86.4037 86.9997C85.5483 88.3447 84.0583 89.0579 83.0065 90.2155C82.0998 91.2219 81.577 92.8691 82.4504 93.9148C82.7134 94.2322 83.073 94.4528 83.3571 94.743C84.5661 95.9519 84.3333 98.0464 83.3571 99.4487C82.3809 100.851 80.8697 101.755 79.4885 102.758C78.1073 103.762 76.7533 105.013 76.3846 106.687C75.9343 108.733 77.0858 110.819 76.9407 112.91C76.7261 116.02 73.0872 118.372 70.1616 117.293C69.1733 116.927 68.2998 116.253 67.2692 116.026C65.6341 115.664 64.0021 116.492 62.4667 117.163C60.9314 117.834 59.0666 118.347 57.6521 117.447C55.34 115.978 55.9898 111.934 53.6657 110.48C51.7404 109.271 48.6728 110.517 47.2644 108.736C46.5783 107.875 46.6387 106.636 46.9289 105.572C47.219 104.508 47.7026 103.484 47.763 102.383C47.9414 99.0982 44.3871 96.5654 44.3508 93.2741C44.3297 91.1978 45.7351 89.3844 47.2704 87.982C48.8058 86.5796 50.5708 85.3707 51.68 83.6117C52.8224 81.7983 53.1549 79.5678 54.2732 77.7363C54.9775 76.6273 55.9427 75.7076 57.0843 75.0575C58.226 74.4074 59.5094 74.0466 60.8226 74.0067C61.4433 73.9994 62.0623 74.0746 62.6632 74.2303C63.2469 74.3733 63.8536 74.3959 64.4464 74.2968Z" fill="white"/>
</g>
<path d="M59.3358 90.4211C59.0857 90.4774 58.8579 90.6066 58.6813 90.7924C58.5046 90.9781 58.387 91.212 58.3432 91.4646C58.2995 91.7172 58.3316 91.977 58.4355 92.2114C58.5394 92.4457 58.7104 92.644 58.9269 92.7812C59.1434 92.9184 59.3958 92.9883 59.652 92.9821C59.9083 92.9759 60.157 92.8939 60.3667 92.7465C60.5763 92.599 60.7376 92.3927 60.8301 92.1537C60.9225 91.9146 60.9421 91.6535 60.8862 91.4033C60.8494 91.2367 60.78 91.0791 60.6821 90.9394C60.5841 90.7998 60.4595 90.6809 60.3154 90.5896C60.1713 90.4983 60.0105 90.4364 59.8424 90.4075C59.6743 90.3785 59.5021 90.3832 59.3358 90.4211Z" fill="#EBEBEB"/>
<path d="M67.8617 91.1736C68.1121 91.1178 68.3402 90.989 68.5173 90.8035C68.6945 90.618 68.8126 90.3841 68.8567 90.1314C68.9009 89.8788 68.8692 89.6187 68.7655 89.3841C68.6619 89.1495 68.4909 88.9509 68.2744 88.8134C68.0579 88.676 67.8054 88.6058 67.549 88.6119C67.2926 88.6179 67.0437 88.6999 66.8339 88.8474C66.6241 88.9949 66.4627 89.2013 66.3702 89.4405C66.2777 89.6798 66.2582 89.941 66.3143 90.1913C66.3894 90.5267 66.5945 90.8186 66.8847 91.0028C67.1748 91.1869 67.5263 91.2484 67.8617 91.1736Z" fill="#EBEBEB"/>
<path d="M63.2226 96.23C63.7547 95.7952 64.3885 95.5026 65.0646 95.3794C65.7406 95.2562 66.4369 95.3066 67.0882 95.5258C67.379 95.6151 67.6612 95.7304 67.9314 95.8703C68.1643 95.9979 68.3875 96.1423 68.5993 96.3025C69.3942 96.907 69.7236 97.4782 69.8566 97.4117C69.914 97.3845 69.905 97.2062 69.7931 96.91C69.6201 96.4944 69.3675 96.1166 69.0496 95.7978C68.8314 95.5732 68.5915 95.3707 68.3334 95.1933C68.0318 94.993 67.7096 94.8258 67.3723 94.6946C66.5844 94.376 65.7222 94.2881 64.8863 94.4412C64.0503 94.5942 63.2752 94.9819 62.6514 95.559C62.3809 95.7999 62.1386 96.0706 61.929 96.366C61.7511 96.6238 61.5982 96.8981 61.4726 97.185C61.2893 97.5969 61.1867 98.0402 61.1704 98.4907C61.1704 98.7929 61.2248 98.9773 61.2883 98.9833C61.305 98.9827 61.3211 98.9763 61.3336 98.9652C61.4967 99.6038 61.7235 100.225 62.0106 100.818C62.065 100.936 62.1527 101.069 62.2826 101.066C62.333 101.06 62.3801 101.037 62.417 101.003C62.454 100.968 62.4789 100.922 62.4882 100.872C62.5042 100.772 62.4991 100.669 62.473 100.57L62.0922 98.7174C62.1199 98.8292 62.1738 98.9328 62.2494 99.0196C62.288 99.0594 62.3391 99.0847 62.3941 99.0913C62.4491 99.0979 62.5047 99.0854 62.5516 99.0559C62.5861 99.0144 62.6107 98.9657 62.6238 98.9134C62.6369 98.861 62.638 98.8065 62.6272 98.7536L62.5305 96.9704C62.5314 96.9437 62.524 96.9173 62.5093 96.8949L62.5426 96.8556C62.7504 96.6275 62.978 96.4182 63.2226 96.23Z" fill="#EBEBEB"/>
<path d="M77.0616 91.3247C76.4571 88.6348 74.7555 86.1263 72.2591 84.2645C70.8738 83.2372 69.3232 82.4543 67.6742 81.9494C65.563 81.283 63.3157 81.1717 61.149 81.626C59.6007 81.9707 58.1465 82.6498 56.8883 83.6156C55.6301 84.5815 54.5983 85.8107 53.8651 87.2173C52.7336 89.364 52.211 91.7795 52.354 94.2019C52.0628 94.715 51.9561 95.3123 52.0517 95.8945C52.179 96.5675 52.4019 97.2188 52.7136 97.8288L54.0797 100.851C54.3785 101.618 54.79 102.336 55.3007 102.982C55.9596 103.719 56.8542 104.191 57.7186 104.65C58.5962 105.166 59.5469 105.546 60.5385 105.778C60.7066 106.349 60.9084 106.91 61.1429 107.458C61.2517 107.712 61.418 107.996 61.693 108.011C62.0496 108.032 62.234 107.603 62.3156 107.252C63.594 108.513 63.1316 110.782 64.2166 112.212C64.259 112.288 64.3208 112.351 64.3957 112.395C64.4706 112.439 64.5559 112.463 64.6428 112.463C64.9057 112.418 64.945 112.055 64.9027 111.789C64.6549 109.923 64.4091 108.056 64.1653 106.189C64.3013 106.189 64.4403 106.189 64.5793 106.189C65.4864 106.188 66.3906 106.087 67.2752 105.886C68.1056 105.705 68.9156 105.441 69.6931 105.097C69.7825 105.057 69.8523 104.983 69.8871 104.892C69.922 104.8 69.9191 104.699 69.879 104.609C69.8389 104.52 69.765 104.45 69.6734 104.415C69.5819 104.38 69.4803 104.383 69.3909 104.423C68.6614 104.745 67.9022 104.994 67.1241 105.167C64.1407 105.834 61.0145 105.288 58.4334 103.65C55.8522 102.012 54.0274 99.4158 53.3604 96.4324C51.9671 90.1973 55.0076 84.3189 60.345 82.5811L60.7621 82.4783C60.9075 82.4195 61.0701 82.4195 61.2155 82.4783C61.2909 82.5383 61.3518 82.6146 61.3937 82.7015C61.4356 82.7884 61.4573 82.8836 61.4572 82.98L61.7021 84.6816C61.7383 84.9385 61.8411 85.2588 62.098 85.2679C62.3549 85.277 62.4909 84.9657 62.5211 84.6937C62.569 84.2921 62.569 83.8863 62.5211 83.4847C62.4848 83.1583 62.4607 82.7412 62.7568 82.5962C62.9624 82.4964 63.2042 82.5962 63.4339 82.5962C63.6006 82.5974 63.7637 82.5473 63.901 82.4527C64.0383 82.3581 64.1433 82.2235 64.2015 82.0673C65.2955 82.1189 66.3788 82.3067 67.4264 82.6264C69.0018 83.1103 70.4822 83.8618 71.8027 84.8478C74.1571 86.6008 75.765 88.9582 76.3362 91.4758C76.3452 91.5246 76.3639 91.571 76.3912 91.6124C76.4185 91.6538 76.4539 91.6892 76.4953 91.7166C76.5366 91.7439 76.583 91.7627 76.6318 91.7717C76.6805 91.7807 76.7306 91.7798 76.779 91.7691C76.8274 91.7583 76.8731 91.7378 76.9135 91.709C76.9538 91.6801 76.9879 91.6435 77.0137 91.6011C77.0395 91.5588 77.0565 91.5117 77.0637 91.4626C77.0709 91.4136 77.0681 91.3636 77.0555 91.3156L77.0616 91.3247Z" fill="#EBEBEB"/>
<path d="M41.0958 36.3846C40.774 36.1753 40.4813 35.9243 40.2254 35.6381C39.9346 35.3868 39.6794 35.097 39.4668 34.7767C39.7886 34.986 40.0813 35.2371 40.3372 35.5233C40.6271 35.7755 40.8822 36.0652 41.0958 36.3846Z" fill="white"/>
<g opacity="0.6">
<path d="M75.4447 129.001C75.4144 127.188 72.9875 126.453 71.1922 126.175C69.397 125.897 67.4747 126.094 65.8548 125.269C64.8453 124.761 64.0595 123.909 63.1105 123.295C61.7337 122.412 60.0798 122.068 58.4652 122.328C57.5373 122.479 56.555 122.827 55.6846 122.458C54.6449 122.017 54.2611 120.777 53.8289 119.738C51.7979 114.842 46.6539 112.143 41.5793 113.678L41.7849 128.998L75.4447 129.001Z" fill="white"/>
</g>
<g opacity="0.6">
<path d="M91.4572 37.3488C91.8018 38.5366 90.2483 39.5823 89.1361 40.1112C88.0238 40.6401 86.7182 40.5887 85.5093 40.4437C84.3003 40.2986 83.037 40.0749 81.819 40.2895C80.2323 40.5706 78.8601 41.571 77.3036 42.0032C74.8857 42.6681 72.344 41.8974 69.917 41.2899C67.4901 40.6824 64.7609 40.2714 62.603 41.5408C60.6535 42.6862 59.4688 45.0497 57.2867 45.6481C56.0777 45.9745 54.7539 45.7025 53.6236 46.2133C52.1124 46.8963 51.508 48.7097 51.1755 50.3448C50.843 51.9799 50.5861 53.7843 49.344 54.8783C48.3919 55.7276 47.0379 55.9936 46.0557 56.8036C44.5445 58.0518 44.2422 60.2369 44.2422 62.1954C44.2422 65.4868 44.6744 68.769 44.608 72.0603C44.5415 75.3517 43.9068 78.7488 41.9785 81.4145L42.2807 37.2883L91.4572 37.3488Z" fill="white"/>
</g>
<path d="M140.277 89.0096C139.929 87.2234 139.192 85.5399 138.672 83.796C138.152 82.0522 138.2 80.1692 137.895 78.2621L132.259 94.2805C132.329 96.4566 132.398 98.6337 132.464 100.812C132.464 101.277 132.525 101.806 132.896 102.084C133.353 102.423 133.999 102.175 134.489 101.885C138.805 99.3278 141.232 93.9299 140.277 89.0096Z" fill="#263238"/>
<path d="M125.271 67.1702L114.569 64.8188L111.994 65.5532C106.091 66.5415 103.084 73.7135 103.833 78.513C104.662 83.8353 105.88 90.3001 107.367 94.0781C110.353 101.679 116.612 101.35 116.612 101.35C116.612 101.35 116.914 103.514 117.283 106.167C117.448 107.297 117.84 108.381 118.435 109.355C119.03 110.329 119.816 111.173 120.745 111.835C121.675 112.497 122.729 112.965 123.843 113.209C124.958 113.454 126.111 113.47 127.232 113.258C129.397 112.844 131.315 111.602 132.579 109.796C133.842 107.99 134.35 105.762 133.996 103.586L128.369 69.4339C128.231 68.7367 127.836 68.1168 127.262 67.6975C126.688 67.2781 125.977 67.0899 125.271 67.1702Z" fill="#9E5F58"/>
<path d="M107.022 83.8716C107.077 84.1376 107.235 84.3711 107.462 84.5216C107.688 84.672 107.964 84.7273 108.231 84.6756C108.362 84.6575 108.488 84.6135 108.601 84.5461C108.715 84.4788 108.814 84.3894 108.892 84.2832C108.971 84.1771 109.027 84.0563 109.059 83.928C109.09 83.7997 109.095 83.6665 109.074 83.5361C109.018 83.2705 108.86 83.0375 108.634 82.8872C108.408 82.7369 108.132 82.6812 107.865 82.7322C107.734 82.7494 107.608 82.7929 107.494 82.8601C107.38 82.9272 107.281 83.0166 107.202 83.1229C107.123 83.2293 107.067 83.3504 107.036 83.479C107.005 83.6076 107 83.7411 107.022 83.8716Z" fill="#263238"/>
<path d="M105.858 81.2694C106.012 81.3721 106.653 80.6377 107.741 80.3989C108.829 80.1602 109.745 80.5319 109.833 80.3717C109.878 80.2992 109.697 80.0906 109.295 79.9153C108.753 79.6918 108.155 79.6421 107.584 79.7733C107.018 79.8968 106.506 80.1962 106.121 80.6286C105.846 80.9611 105.774 81.221 105.858 81.2694Z" fill="#263238"/>
<path d="M114.518 88.3235C114.518 88.2601 113.81 88.2933 112.683 88.393C112.399 88.4263 112.124 88.4293 112.036 88.251C111.949 87.9695 111.949 87.6681 112.036 87.3866C112.151 86.6592 112.27 85.8946 112.393 85.0926C112.867 81.8315 113.148 79.1749 113.015 79.1568C112.882 79.1386 112.393 81.7681 111.915 85.0292C111.806 85.8301 111.698 86.5948 111.598 87.3262C111.562 87.6647 111.462 88.0636 111.695 88.4474C111.757 88.5359 111.839 88.609 111.933 88.6614C112.028 88.7137 112.134 88.7439 112.242 88.7497C112.404 88.7583 112.567 88.7451 112.725 88.7104C113.844 88.5321 114.539 88.384 114.518 88.3235Z" fill="#263238"/>
<path d="M116.606 101.35C120.326 100.588 123.761 98.8094 126.531 96.2119C126.531 96.2119 124.926 102.287 116.881 103.284L116.606 101.35Z" fill="#794742"/>
<path d="M118.437 89.5143C118.235 89.3426 117.995 89.2219 117.737 89.1625C117.479 89.103 117.21 89.1066 116.953 89.1727C116.699 89.2444 116.468 89.3831 116.285 89.5745C116.102 89.7659 115.974 90.0029 115.914 90.2608C115.79 90.8501 116.062 91.4425 116.322 91.9835L116.276 92.0379C116.897 92.2286 117.558 92.2432 118.186 92.0802C118.397 92.0373 118.594 91.944 118.761 91.8082C118.875 91.6884 118.963 91.5456 119.019 91.3894C119.075 91.2332 119.097 91.0669 119.084 90.9015C119.079 90.6379 119.019 90.3782 118.908 90.1392C118.797 89.9002 118.636 89.6873 118.437 89.5143Z" fill="#794742"/>
<path d="M115.772 92.579C115.947 92.6152 116.116 91.4184 117.259 90.7112C118.401 90.0039 119.658 90.3122 119.676 90.149C119.704 90.0735 119.426 89.877 118.891 89.7863C118.191 89.68 117.477 89.8222 116.872 90.1883C116.291 90.5419 115.87 91.1077 115.699 91.766C115.596 92.2586 115.687 92.576 115.772 92.579Z" fill="#263238"/>
<path d="M108.243 76.5122C107.941 76.4094 107.448 77.0532 106.686 77.573C105.925 78.0929 105.175 78.377 105.175 78.6943C105.175 78.8454 105.423 78.9966 105.84 78.9966C106.381 78.9827 106.905 78.8079 107.346 78.4946C107.787 78.1813 108.125 77.7436 108.316 77.2376C108.439 76.8416 108.382 76.5666 108.243 76.5122Z" fill="#263238"/>
<path d="M119.238 81.2482C119.29 81.5137 119.236 81.7889 119.088 82.0149C118.939 82.241 118.708 82.3997 118.444 82.4572C118.317 82.4901 118.184 82.4974 118.054 82.4787C117.924 82.4599 117.8 82.4155 117.687 82.348C117.574 82.2804 117.476 82.1912 117.399 82.0854C117.321 81.9796 117.265 81.8594 117.235 81.7318C117.184 81.4665 117.239 81.192 117.387 80.9664C117.536 80.7407 117.766 80.5817 118.029 80.5229C118.157 80.4903 118.289 80.4833 118.418 80.5023C118.548 80.5212 118.673 80.5657 118.785 80.6332C118.898 80.7006 118.996 80.7897 119.074 80.8953C119.151 81.0009 119.207 81.1208 119.238 81.2482Z" fill="#263238"/>
<path d="M120.39 78.2773C120.287 78.4344 119.413 78.0023 118.319 78.2048C117.225 78.4072 116.521 79.1115 116.379 78.9875C116.31 78.9392 116.394 78.6853 116.696 78.3589C117.111 77.9436 117.644 77.667 118.223 77.567C118.791 77.4613 119.379 77.5397 119.9 77.7907C120.281 77.9871 120.441 78.1987 120.39 78.2773Z" fill="#263238"/>
<path d="M116.098 74.1246C116.322 73.8737 117.189 74.1246 118.238 74.1548C119.287 74.185 120.172 73.9946 120.375 74.2606C120.462 74.3875 120.323 74.6414 119.933 74.8801C119.402 75.1734 118.799 75.3136 118.192 75.2851C117.587 75.2773 116.996 75.0981 116.488 74.7683C116.119 74.5084 115.998 74.2485 116.098 74.1246Z" fill="#263238"/>
<path d="M113.236 61.7028C98.9854 62.0866 103.304 79.6645 103.304 79.6645C108.642 74.3059 113.329 64.9941 113.329 64.9941L115.46 64.2536L113.236 61.7028Z" fill="#263238"/>
<path d="M129.046 83.1191C128.916 82.5297 129.291 81.0034 129.85 80.7798C131.343 80.1995 134.157 79.7068 135.051 83.6298C136.26 88.9915 130.636 89.1093 130.59 88.9582C130.545 88.8071 129.49 85.1501 129.046 83.1191Z" fill="#9E5F58"/>
<path d="M131.766 86.5554C131.787 86.5313 131.875 86.5977 132.05 86.634C132.293 86.6787 132.544 86.6278 132.751 86.492C133.271 86.1535 133.543 85.147 133.356 84.1738C133.264 83.7105 133.07 83.2736 132.787 82.8954C132.699 82.7395 132.575 82.6074 132.424 82.5105C132.273 82.4136 132.101 82.3548 131.923 82.3393C131.809 82.3346 131.697 82.3702 131.607 82.4398C131.517 82.5095 131.455 82.6088 131.43 82.7201C131.391 82.8863 131.452 82.986 131.43 83.0012C131.409 83.0163 131.294 82.9377 131.288 82.6989C131.286 82.5584 131.333 82.4216 131.421 82.3121C131.545 82.168 131.719 82.0771 131.908 82.0582C132.137 82.0519 132.364 82.104 132.568 82.2098C132.772 82.3155 132.945 82.4714 133.072 82.6627C133.407 83.0742 133.635 83.5622 133.736 84.0832C133.948 85.1712 133.625 86.3076 132.899 86.7096C132.765 86.7844 132.616 86.8278 132.462 86.8367C132.309 86.8456 132.156 86.8197 132.014 86.7609C131.808 86.6824 131.766 86.5675 131.766 86.5554Z" fill="#794742"/>
<path d="M138.415 82.7322C138.113 74.0097 133.099 63.4164 128.36 61.7058C123.621 59.9951 113.248 57.4383 112.441 63.9363C111.927 68.086 117.491 70.7396 121.269 72.5379C122.515 73.1423 123.881 73.6259 124.772 74.6777C126.078 76.213 123.467 82.7473 129.025 85.6034C129.025 85.6034 129.04 81.49 129.239 81.215C129.777 80.4775 131.443 79.9547 133.15 80.674C135.081 81.49 137.106 87.1176 131.585 88.931L132.763 96.0849C132.763 96.0849 138.717 91.4517 138.415 82.7322Z" fill="#263238"/>
<path d="M120.807 82.8107C120.807 82.8591 120.163 82.8954 119.392 83.0767C118.622 83.258 118.023 83.5059 118.005 83.4605C118.852 82.9648 119.829 82.7382 120.807 82.8107Z" fill="#794742"/>
<path d="M109.379 85.7273C109.379 85.7727 108.739 85.6548 107.965 85.7273C107.191 85.7999 106.593 86.0295 106.578 85.9903C107.002 85.7587 107.47 85.6157 107.951 85.57C108.433 85.5243 108.919 85.5768 109.379 85.7243V85.7273Z" fill="#794742"/>
<path d="M120.913 90.6295C120.87 90.6144 120.97 90.2971 120.913 89.9102C120.855 89.5234 120.674 89.2483 120.71 89.2211C120.816 89.2984 120.904 89.3986 120.966 89.5142C121.028 89.6298 121.064 89.7579 121.07 89.8891C121.101 90.0163 121.104 90.1491 121.076 90.2774C121.049 90.4056 120.993 90.526 120.913 90.6295Z" fill="#794742"/>
<path d="M137.457 77.2738C137.344 76.9193 137.193 76.5778 137.007 76.2553C136.433 75.4143 135.665 74.7247 134.767 74.2454C134.214 73.919 133.582 73.6077 132.893 73.2874L130.699 72.2567L125.676 69.8842L120.656 67.4996L118.468 66.4569C117.785 66.1305 117.144 65.8282 116.573 65.52C115.652 65.065 114.822 64.4453 114.125 63.6914C113.87 63.4138 113.657 63.1001 113.493 62.7606C113.697 63.0723 113.924 63.3693 114.17 63.6491C114.879 64.3791 115.71 64.9786 116.627 65.4202C117.195 65.7225 117.836 66.0247 118.525 66.3269L120.719 67.3575L125.742 69.7361L130.76 72.1177L132.948 73.1634C133.59 73.4573 134.217 73.7852 134.825 74.1457C135.33 74.441 135.8 74.7918 136.227 75.1914C136.551 75.4941 136.831 75.8399 137.061 76.219C137.199 76.461 137.309 76.7174 137.391 76.9837L137.445 77.1952C137.452 77.2209 137.456 77.2473 137.457 77.2738Z" fill="#455A64"/>
<path d="M135.568 70.4433C135.494 70.406 135.423 70.3625 135.356 70.3134C135.22 70.2288 135.03 70.0867 134.767 69.9295C134.036 69.4742 133.275 69.0702 132.488 68.7206C131.319 68.2001 130.117 67.7589 128.889 67.3998C127.507 66.9828 125.966 66.5959 124.355 66.1909C122.744 65.7859 121.203 65.3356 119.84 64.8399C118.627 64.4117 117.455 63.8767 116.337 63.2411C115.588 62.8101 114.88 62.3124 114.221 61.7541C113.983 61.5637 113.819 61.3884 113.698 61.2796C113.637 61.2248 113.58 61.1663 113.526 61.1043C113.595 61.1487 113.66 61.1993 113.72 61.2554C113.846 61.3552 114.022 61.5244 114.261 61.7088C114.934 62.2459 115.651 62.7261 116.403 63.1444C117.521 63.7629 118.69 64.2847 119.897 64.7039C121.257 65.1905 122.787 65.6106 124.404 66.0368C126.02 66.4629 127.562 66.8437 128.937 67.2699C130.168 67.6393 131.371 68.0927 132.54 68.6269C133.326 68.9908 134.083 69.4131 134.806 69.8902C135.066 70.0565 135.251 70.2076 135.381 70.3013C135.447 70.3429 135.51 70.3904 135.568 70.4433Z" fill="#455A64"/>
<path d="M141.906 97.6293C143.441 97.6488 144.948 98.0411 146.298 98.7724C147.648 99.5037 148.8 100.552 149.655 101.827C151.426 104.523 151.674 107.899 152.263 111.07C152.853 114.24 154.077 117.646 156.903 119.191C157.235 119.375 157.622 119.568 157.719 119.937C157.83 120.378 157.416 120.817 156.963 120.898C156.505 120.936 156.045 120.848 155.633 120.644C156.537 121.863 157.012 123.348 156.984 124.865C156.955 126.382 156.425 127.848 155.476 129.032C154.527 130.216 153.213 131.053 151.738 131.412C150.263 131.77 148.712 131.63 147.325 131.014L137.998 103.559L141.906 97.6293Z" fill="#263238"/>
<path d="M141.208 95.1691C140.286 94.6613 139.14 95.3051 138.433 96.0758C137.421 97.182 136.777 98.5692 136.151 99.9293C136.453 100.757 135.834 101.761 136.39 102.444C136.946 103.127 137.801 103.635 138.678 103.541C139.847 103.417 140.657 102.317 141.141 101.244C141.632 100.156 141.95 98.9971 142.084 97.8106C142.196 96.8344 142.072 95.6466 141.208 95.1691Z" fill="#455A64"/>
<path d="M80.7973 108.555C80.7973 108.555 88.5617 118.976 91.5719 122.76C94.827 126.855 100.131 133.314 100.131 133.314L98.7802 148.184C98.7802 148.184 90.3992 144.11 88.069 139.604C85.7388 135.097 74.8433 114.769 74.8433 114.769L80.7973 108.555Z" fill="#9E5F58"/>
<path d="M133.277 96.2088C133.277 96.2088 127.474 99.8356 125.419 101.307C124.425 102.018 117.144 108.259 117.144 108.259L117.649 110.202C117.649 110.202 114.647 120.318 114.076 122.76C113.62 124.703 112.181 145.47 111.924 148.909H149.737C149.737 148.909 149.794 122.975 148.147 118.139C145.765 111.157 137.134 100.464 137.134 100.464L134.265 99.7782L133.277 96.2088Z" fill="#D18757"/>
<path d="M120.281 115.848C119.764 116.15 108.44 127.635 108.44 127.635C108.44 127.635 105.656 128.279 105.284 130.37L102.047 131.392C101.793 130.688 99.1731 130.286 98.6865 131.957C98.4658 132.719 95.4042 144.37 95.2531 146.147C95.1141 147.749 100.131 148.9 100.131 148.9L104.628 147.691C104.628 147.691 112.417 147.135 113.532 146.857C114.647 146.579 129.309 141.752 133.576 137.207C137.844 132.661 142.58 127.741 142.58 127.741C142.58 127.741 128.529 111.209 120.281 115.848Z" fill="#D18757"/>
<path d="M98.6863 131.969C98.688 131.944 98.6931 131.92 98.7014 131.897C98.72 131.827 98.7453 131.759 98.777 131.694C98.9062 131.442 99.1202 131.243 99.3814 131.132C100.055 130.83 101.162 130.875 102.404 131.244H102.367L105.048 130.382L105.012 130.41L105.348 129.863C105.593 129.265 106.004 128.75 106.532 128.379C107.096 127.977 107.737 127.698 108.415 127.559L108.376 127.581L110.546 125.362L117.815 117.976C118.743 117.042 119.498 116.286 120.03 115.748L120.635 115.144C120.701 115.083 120.752 115.032 120.795 114.99C120.813 114.971 120.833 114.955 120.855 114.941C120.837 114.96 120.817 114.976 120.795 114.99C120.755 115.035 120.707 115.089 120.647 115.153L120.057 115.775L117.878 118.036L110.646 125.453L108.47 127.671H108.451H108.427C107.088 127.943 105.892 128.768 105.459 129.875L105.121 130.419V130.44H105.097L102.407 131.28H102.374C101.165 130.902 100.064 130.833 99.4086 131.117C99.1537 131.217 98.9405 131.402 98.8042 131.64C98.7135 131.872 98.6984 131.972 98.6863 131.969Z" fill="#263238"/>
<g opacity="0.3">
<path d="M113.145 146.969C119.114 146.522 125.15 145.322 130.324 142.315C135.498 139.307 139.724 134.275 140.682 128.37C134.229 137.799 124.944 143.871 113.145 146.969Z" fill="black"/>
</g>
<path d="M140.389 128.496C140.372 128.529 140.353 128.561 140.331 128.59L140.15 128.862L139.437 129.89L138.92 130.633C138.723 130.899 138.491 131.174 138.252 131.476C137.759 132.081 137.236 132.782 136.556 133.48L135.523 134.602C135.16 134.988 134.743 135.354 134.335 135.753L133.703 136.358C133.489 136.571 133.264 136.773 133.029 136.962L131.591 138.171C127.218 141.668 122.211 144.288 116.845 145.887L115.031 146.383L114.593 146.5C114.448 146.537 114.291 146.564 114.158 146.594L113.302 146.769C112.74 146.878 112.202 147.011 111.679 147.09L110.168 147.298C109.21 147.459 108.328 147.486 107.557 147.549C107.173 147.573 106.813 147.61 106.484 147.619H104.003C103.966 147.623 103.928 147.623 103.891 147.619H104.003H104.326L105.577 147.592L106.484 147.573C106.813 147.558 107.17 147.519 107.554 147.492C108.322 147.419 109.201 147.386 110.156 147.22L111.667 146.999C112.19 146.921 112.725 146.785 113.284 146.673L114.137 146.494C114.279 146.461 114.439 146.437 114.572 146.398L115.007 146.277L116.82 145.778C122.161 144.155 127.143 141.529 131.5 138.041L132.939 136.832C133.174 136.639 133.404 136.445 133.613 136.228L134.244 135.623C134.655 135.227 135.072 134.864 135.435 134.481L136.475 133.368C137.158 132.676 137.684 131.975 138.182 131.383C138.424 131.081 138.66 130.815 138.859 130.552L139.388 129.817L140.123 128.808L140.319 128.545C140.361 128.524 140.386 128.493 140.389 128.496Z" fill="#263238"/>
<path d="M141.709 122.162C141.689 122.086 141.674 122.009 141.664 121.932C141.634 121.784 141.61 121.563 141.549 121.282C141.38 120.491 141.123 119.72 140.784 118.985C140.279 117.897 139.605 116.895 138.787 116.017C137.777 114.949 136.562 114.097 135.214 113.512C133.852 112.96 132.398 112.669 130.929 112.653C129.728 112.628 128.527 112.7 127.338 112.871C126.317 113.004 125.497 113.149 124.92 113.246L124.264 113.354C124.189 113.372 124.112 113.381 124.035 113.382C124.107 113.356 124.182 113.337 124.258 113.324L124.908 113.185C125.47 113.07 126.289 112.907 127.308 112.759C128.508 112.574 129.721 112.49 130.935 112.508C132.424 112.518 133.898 112.815 135.275 113.382C136.647 113.971 137.882 114.839 138.902 115.93C139.724 116.823 140.398 117.844 140.896 118.952C141.229 119.697 141.471 120.479 141.619 121.282C141.67 121.566 141.682 121.79 141.703 121.941C141.712 122.014 141.714 122.088 141.709 122.162Z" fill="#263238"/>
<path d="M134.226 100.473C134.171 100.531 134.113 100.584 134.051 100.634L133.528 101.066L131.584 102.64L125.135 107.778L119.498 112.23L119.438 112.279L119.404 112.212C118.779 111.003 118.265 110.012 117.893 109.305C117.721 108.969 117.591 108.7 117.488 108.504L117.385 108.292C117.372 108.268 117.362 108.243 117.355 108.217C117.373 108.237 117.388 108.259 117.401 108.283C117.434 108.337 117.473 108.404 117.518 108.486C117.627 108.682 117.772 108.942 117.954 109.274C118.331 109.973 118.86 110.955 119.504 112.155L119.413 112.134L125.029 107.657L131.506 102.553L133.479 101.017L134.02 100.606C134.085 100.556 134.153 100.511 134.226 100.473Z" fill="#263238"/>
<path d="M131.72 103.586C131.757 103.61 130.657 105.518 129.26 107.848C127.864 110.178 126.703 112.049 126.667 112.049C126.631 112.049 127.731 110.121 129.127 107.787C130.524 105.454 131.684 103.586 131.72 103.586Z" fill="#263238"/>
<path d="M135.568 148.976C135.523 148.976 135.807 145.555 136.197 141.344C136.587 137.134 136.943 133.725 136.985 133.728C137.028 133.731 136.747 137.134 136.354 141.366C135.961 145.597 135.61 148.979 135.568 148.976Z" fill="#263238"/>
<g opacity="0.3">
<path d="M117.485 108.44L117.516 108.555L119.142 114.225L131.721 102.459L119.997 111.868" fill="black"/>
</g>
<path d="M100.155 148.976C100.158 148.915 100.168 148.856 100.185 148.797C100.219 148.668 100.258 148.495 100.306 148.302C100.418 147.87 100.566 147.244 100.738 146.467C101.639 142.422 102.065 138.286 102.008 134.142C102.008 133.347 101.981 132.704 101.959 132.259C101.959 132.051 101.959 131.881 101.944 131.748C101.937 131.688 101.937 131.627 101.944 131.567C101.961 131.625 101.97 131.685 101.971 131.745C101.971 131.878 101.999 132.048 102.017 132.256C102.056 132.701 102.092 133.344 102.117 134.139C102.239 138.298 101.812 142.456 100.847 146.504C100.663 147.28 100.497 147.903 100.367 148.317C100.306 148.516 100.255 148.68 100.215 148.807C100.203 148.865 100.182 148.922 100.155 148.976Z" fill="#263238"/>
<path d="M103.571 140.93C103.551 140.806 103.545 140.681 103.552 140.556C103.552 140.314 103.552 139.966 103.552 139.537C103.524 138.417 103.429 137.3 103.268 136.191C103.099 135.082 102.862 133.983 102.558 132.903C102.446 132.489 102.347 132.153 102.277 131.924C102.234 131.805 102.202 131.683 102.183 131.558C102.246 131.667 102.297 131.782 102.334 131.903C102.422 132.129 102.537 132.459 102.667 132.87C102.997 133.948 103.246 135.049 103.413 136.164C103.577 137.279 103.657 138.404 103.652 139.531C103.652 139.963 103.634 140.314 103.616 140.556C103.616 140.682 103.601 140.808 103.571 140.93Z" fill="#263238"/>
<path d="M107.388 141.254C107.366 141.107 107.358 140.958 107.364 140.809C107.364 140.525 107.348 140.111 107.327 139.6C107.266 138.277 107.124 136.959 106.901 135.653C106.67 134.349 106.358 133.06 105.967 131.794C105.816 131.31 105.689 130.917 105.595 130.648C105.541 130.51 105.498 130.368 105.469 130.222C105.541 130.352 105.603 130.487 105.653 130.627C105.765 130.89 105.907 131.277 106.073 131.761C106.926 134.288 107.385 136.931 107.436 139.597C107.436 140.108 107.436 140.522 107.436 140.806C107.435 140.957 107.419 141.107 107.388 141.254Z" fill="#263238"/>
<path d="M69.9018 103.242C69.9018 103.242 68.6535 102.142 67.9251 102.232C67.0184 102.344 67.0668 103.725 67.0668 103.725C66.8945 104.475 68.859 106.503 69.6086 107.6C70.3581 108.697 75.3813 115.392 75.3813 115.392L82.0757 110.601L81.7735 108.812C81.4713 107.023 78.4248 100.673 78.4248 100.673C78.4248 100.673 74.8614 94.8427 74.3416 94.2171C73.8217 93.5914 70.1284 91.7992 69.9562 91.7357C69.9562 91.7357 68.8953 92.9447 69.8534 93.7546C70.346 94.1747 72.3801 95.6013 72.3801 95.6013L74.1693 98.7778L74.1542 99.0347L72.1504 96.1514C72.1504 96.1514 71.3283 95.4079 70.5818 95.296C69.8353 95.1842 68.6233 95.5983 68.6233 95.5983C68.4304 95.7577 68.29 95.9716 68.2204 96.2121C68.1509 96.4526 68.1554 96.7084 68.2334 96.9462L68.6052 97.3935L69.4635 97.6383L70.887 99.9081C70.887 99.9081 69.6116 99.1767 69.0978 99.6301C68.8824 99.813 68.717 100.048 68.6171 100.312C68.5172 100.576 68.486 100.862 68.5266 101.141C68.5991 101.697 69.9018 103.242 69.9018 103.242Z" fill="#9E5F58"/>
<path d="M76.2031 98.9742C75.9949 99.0371 75.7927 99.118 75.5986 99.216C75.2964 99.4095 75.1604 99.6935 75.118 99.6754C75.0757 99.6573 75.118 99.5847 75.1634 99.4638C75.2451 99.3086 75.3658 99.1774 75.5137 99.0831C75.6615 98.9887 75.8314 98.9346 76.0066 98.9259C76.1245 98.9228 76.2031 98.9531 76.2031 98.9742Z" fill="#794742"/>
<path d="M72.0928 101.604C71.7886 101.336 71.5195 101.032 71.2919 100.697C71.0244 100.39 70.7978 100.05 70.6179 99.6844C70.9213 99.9525 71.1903 100.257 71.4188 100.591C71.6876 100.897 71.9143 101.238 72.0928 101.604Z" fill="#794742"/>
<path d="M70.6543 104.514C70.4038 104.295 70.1887 104.038 70.0165 103.753C69.8049 103.495 69.6336 103.206 69.5088 102.897C69.9735 103.372 70.3601 103.918 70.6543 104.514Z" fill="#794742"/>
<path d="M117.642 110.205C117.612 110.361 117.567 110.514 117.509 110.662C117.416 110.964 117.286 111.381 117.138 111.907C116.835 112.962 116.452 114.427 116.007 116.041C115.563 117.655 115.134 119.112 114.777 120.155C114.602 120.672 114.451 121.092 114.333 121.364C114.28 121.514 114.216 121.661 114.143 121.802C114.171 121.645 114.216 121.491 114.276 121.343C114.375 121.04 114.508 120.629 114.671 120.106C114.998 119.061 115.415 117.604 115.856 115.987C116.298 114.37 116.702 112.91 117.029 111.862C117.195 111.339 117.331 110.919 117.449 110.631C117.502 110.484 117.567 110.342 117.642 110.205Z" fill="#263238"/>
<path d="M153.086 148.921C153.086 148.967 123.376 149 86.7363 149C50.0965 149 20.3809 148.958 20.3809 148.921C20.3809 148.885 50.0844 148.843 86.7363 148.843C123.388 148.843 153.086 148.87 153.086 148.921Z" fill="#263238"/>
<path d="M26.0388 75.3003C26.0459 75.2404 26.056 75.1808 26.069 75.122C26.0962 74.995 26.1325 74.8197 26.1778 74.6021L26.6191 72.6164C27.009 70.8816 27.5742 68.3852 28.2723 65.3054C29.6928 59.1247 31.6513 50.5896 33.8183 41.1267L33.9181 40.6975L34.0148 41.1267C34.0541 41.2959 34.0934 41.4773 34.1357 41.6616C36.2936 51.2485 38.246 59.9256 39.6635 66.2151C40.3587 69.3523 40.9238 71.8941 41.3167 73.6622C41.5072 74.5356 41.6522 75.2156 41.755 75.6871L41.8668 76.216C41.888 76.3339 41.897 76.3974 41.897 76.3974C41.897 76.3974 41.8759 76.3369 41.8457 76.2191C41.8154 76.1012 41.7731 75.9168 41.7157 75.6962C41.6069 75.2247 41.4467 74.5477 41.2412 73.6773C40.8332 71.9152 40.2499 69.3795 39.5275 66.2453C38.0949 59.971 36.1213 51.2999 33.9422 41.7191L33.8183 41.1811H34.0148C31.8206 50.6289 29.8439 59.158 28.4023 65.3356C27.6799 68.4124 27.0936 70.9028 26.6856 72.6315C26.4831 73.4838 26.3229 74.1427 26.2111 74.6112C26.1567 74.8318 26.1144 75.0011 26.0811 75.125C26.0479 75.2489 26.0388 75.3003 26.0388 75.3003Z" fill="#263238"/>
<path d="M26.0325 82.4753V76.4095H42.2201V82.4753C42.2201 84.3486 41.476 86.1451 40.1514 87.4698C38.8267 88.7944 37.0302 89.5385 35.1569 89.5385H33.0957C31.2224 89.5385 29.4258 88.7944 28.1012 87.4698C26.7766 86.1451 26.0325 84.3486 26.0325 82.4753Z" fill="#263238"/>
<path d="M26.0325 76.4095C26.1008 76.4889 26.1625 76.5738 26.2168 76.6634L26.7095 77.4159L28.4957 80.1995L34.3167 89.4207L34.359 89.4871H34.1867L39.8355 80.2146L41.5643 77.4189L42.0418 76.6664C42.0941 76.576 42.1537 76.4901 42.2201 76.4095C42.1813 76.5063 42.1338 76.5994 42.0781 76.6875C41.9662 76.8779 41.8151 77.1379 41.6308 77.4613L39.9564 80.2871L34.359 89.5899L34.2744 89.7289L34.1898 89.5929L34.1475 89.5264L28.3748 80.2751L26.646 77.4582L26.1836 76.6875C26.126 76.5989 26.0755 76.506 26.0325 76.4095Z" fill="#263238"/>
<path d="M35.7344 41.0844C35.7344 41.434 35.6307 41.7759 35.4364 42.0666C35.2421 42.3574 34.966 42.584 34.6429 42.7178C34.3198 42.8517 33.9643 42.8867 33.6214 42.8184C33.2784 42.7502 32.9634 42.5818 32.7161 42.3346C32.4688 42.0873 32.3004 41.7723 32.2322 41.4293C32.164 41.0863 32.199 40.7308 32.3328 40.4077C32.4666 40.0847 32.6933 39.8085 32.984 39.6143C33.2748 39.42 33.6166 39.3163 33.9663 39.3163C34.4352 39.3163 34.8849 39.5026 35.2165 39.8341C35.5481 40.1657 35.7344 40.6154 35.7344 41.0844Z" fill="#263238"/>
<path d="M33.9662 11C34.0206 11 34.0659 17.8093 34.0659 26.2054C34.0659 34.6014 34.0206 41.4138 33.9662 41.4138C33.9118 41.4138 33.8665 34.6075 33.8665 26.2145C33.8665 17.8214 33.9118 11 33.9662 11Z" fill="#263238"/>
<path d="M34.8851 90.1974C34.8857 90.3475 34.8417 90.4945 34.7588 90.6196C34.6758 90.7448 34.5575 90.8425 34.4189 90.9004C34.2804 90.9582 34.1277 90.9737 33.9804 90.9448C33.833 90.9158 33.6976 90.8438 33.5912 90.7379C33.4848 90.6319 33.4122 90.4967 33.3827 90.3495C33.3532 90.2023 33.368 90.0496 33.4254 89.9108C33.4827 89.772 33.5799 89.6533 33.7047 89.5698C33.8296 89.4863 33.9764 89.4418 34.1265 89.4418C34.3272 89.4418 34.5197 89.5213 34.6619 89.6629C34.8041 89.8045 34.8843 89.9967 34.8851 90.1974Z" fill="#263238"/>
<path d="M33.7909 90.4815L33.9148 90.421C33.7005 90.5576 33.5202 90.7413 33.3877 90.9581C33.2551 91.175 33.1739 91.4192 33.1502 91.6723C33.1056 92.1797 33.1496 92.691 33.2801 93.1834C33.3134 93.3406 33.395 93.537 33.5552 93.528C33.7154 93.5189 33.7698 93.3466 33.7939 93.2016C33.8458 92.9021 33.8539 92.5967 33.8181 92.2949C33.8008 92.6823 33.9255 93.0627 34.1687 93.3648C34.2171 93.4252 34.2835 93.4826 34.3561 93.4645C34.4286 93.4464 34.4558 93.3678 34.474 93.2983C34.5409 93.0444 34.5794 92.7839 34.5888 92.5215C34.6068 92.7505 34.6896 92.9696 34.8276 93.1532C34.864 93.1964 34.9089 93.2319 34.9594 93.2574C35.0099 93.2829 35.065 93.2979 35.1214 93.3016C35.1779 93.3052 35.2345 93.2975 35.2879 93.2787C35.3412 93.26 35.3903 93.2306 35.432 93.1925C35.5108 93.0596 35.5336 92.9009 35.4955 92.7512C35.367 91.8437 35.0022 90.9859 34.4377 90.2639" fill="#263238"/>
<path d="M27.0511 76.4095C27.0511 76.4095 19.7794 68.0255 20.5893 67.7233C21.3993 67.421 27.8611 72.0664 27.8611 72.0664C27.8611 72.0664 22.306 59.6446 23.4152 58.7348C24.5244 57.8251 30.3847 69.7362 30.3847 69.7362C30.3847 69.7362 29.478 52.3638 30.3847 52.1643C31.2914 51.9648 34.616 69.5367 34.616 69.5367C34.616 69.5367 39.5847 53.482 40.9901 53.482C42.3955 53.482 39.479 68.9352 39.479 68.9352C39.479 68.9352 45.3272 59.0371 46.2339 60.3488C47.1406 61.6605 42.0933 72.3686 42.0933 72.3686C42.0933 72.3686 49.4648 66.2091 49.77 67.0161C50.0753 67.823 41.791 76.4095 41.791 76.4095H27.0511Z" fill="#D18757"/>
<path d="M26.0386 63.7851C26.087 63.761 27.3775 66.5264 28.9189 69.9598C30.4603 73.3931 31.6692 76.1949 31.6179 76.219C31.5665 76.2432 30.279 73.4747 28.7376 70.0414C27.1962 66.608 25.9842 63.8063 26.0386 63.7851Z" fill="#263238"/>
<path d="M31.914 65.3296C31.9684 65.3296 32.183 67.7626 32.3915 70.7698C32.6 73.777 32.727 76.21 32.6696 76.2281C32.6121 76.2463 32.4006 73.7952 32.192 70.7879C31.9835 67.7807 31.8566 65.3326 31.914 65.3296Z" fill="#263238"/>
<path d="M40.0168 57.55C40.0103 57.6169 39.9961 57.6829 39.9745 57.7465C39.9292 57.8946 39.8778 58.0759 39.8143 58.2996C39.6602 58.8043 39.4547 59.4874 39.2099 60.3215C38.6961 62.0322 38.0009 64.3956 37.3028 67.0251C36.6046 69.6545 36.0213 72.0512 35.6163 73.7891L35.1327 75.8473L34.9967 76.4064C34.9851 76.4723 34.9648 76.5363 34.9363 76.5968C34.9346 76.5297 34.9417 76.4626 34.9574 76.3974C34.9846 76.2462 35.0179 76.0589 35.0572 75.8322C35.1479 75.3395 35.2899 74.6232 35.4773 73.7589C35.849 72.0119 36.4082 69.6092 37.1124 66.9737C37.8166 64.3382 38.5268 61.9808 39.0739 60.2792C39.3459 59.4299 39.5756 58.7439 39.7418 58.2754C39.8204 58.0578 39.8869 57.8795 39.9383 57.7344C39.9551 57.6694 39.9816 57.6072 40.0168 57.55Z" fill="#263238"/>
<path d="M43.5138 66.5022C43.5591 66.5355 42.1386 68.6511 40.3433 71.2292C38.5481 73.8072 37.055 75.8745 37.0188 75.8443C36.9825 75.814 38.3909 73.6954 40.1892 71.1173C41.9875 68.5393 43.4745 66.472 43.5138 66.5022Z" fill="#263238"/>
<path d="M29.5082 76.2312C29.2745 76.1124 29.0596 75.9596 28.8705 75.7778C28.39 75.3761 27.931 74.9494 27.4954 74.4994C27.0559 74.0508 26.6412 73.5787 26.2532 73.0849C26.0763 72.8908 25.9287 72.6719 25.8149 72.4351C25.8603 72.3989 26.6159 73.3146 27.6283 74.3604C28.6408 75.4061 29.5445 76.1859 29.5082 76.2312Z" fill="#263238"/>
<path d="M33.9239 72.9005C33.9783 72.9005 34.0932 73.6712 34.1808 74.6293C34.2685 75.5874 34.2957 76.3732 34.2413 76.3762C34.1869 76.3792 34.069 75.6085 33.9814 74.6474C33.8937 73.6863 33.8695 72.9066 33.9239 72.9005Z" fill="#263238"/>
<path d="M42.2202 80.1904C42.0151 80.2488 41.806 80.2923 41.5945 80.3203C41.1896 80.3899 40.6032 80.4836 39.8748 80.5833C37.9748 80.8516 36.0621 81.0211 34.1445 81.091C32.227 81.1622 30.307 81.0824 28.402 80.8523C27.6737 80.7586 27.0873 80.6619 26.6823 80.5772C26.4725 80.5429 26.2654 80.4934 26.0627 80.4292C26.2759 80.4342 26.4882 80.4574 26.6974 80.4987C27.1024 80.5621 27.6918 80.6347 28.4202 80.7133C30.3191 80.9008 32.2285 80.9603 34.1354 80.8916C36.3719 80.816 38.3878 80.6075 39.8446 80.4443L41.5734 80.2418C41.7871 80.2062 42.0035 80.189 42.2202 80.1904Z" fill="white"/>
<path d="M42.2202 81.9948C42.016 82.0569 41.8066 82.1004 41.5945 82.1247C41.1896 82.1973 40.6032 82.2879 39.8748 82.3907C37.9744 82.6559 36.0619 82.8254 34.1445 82.8984C32.227 82.9696 30.307 82.8898 28.402 82.6597C27.6737 82.5629 27.0873 82.4693 26.6823 82.3816C26.4718 82.351 26.2644 82.3015 26.0627 82.2335C26.2759 82.2408 26.4881 82.265 26.6974 82.3061C27.1024 82.3665 27.6918 82.4421 28.4202 82.5176C30.319 82.7063 32.2284 82.7669 34.1354 82.699C36.3719 82.6204 38.3878 82.4149 39.8446 82.2486L41.5734 82.0492C41.7872 82.0139 42.0035 81.9957 42.2202 81.9948Z" fill="white"/>
</svg>
