<svg width="105" height="22" viewBox="0 0 105 22" fill="none" xmlns="http://www.w3.org/2000/svg">
<path d="M0.9015 21H5.1255V13.352C5.1255 11.304 4.7415 8.264 4.5175 6.248H4.6455L6.3095 11.208L9.2855 19.176H11.8775L14.8535 11.208L16.5495 6.248H16.6775C16.4535 8.264 16.0695 11.304 16.0695 13.352V21H20.3575V0.136H15.2375L11.9415 9.416C11.5255 10.632 11.1735 11.976 10.7575 13.256H10.6295C10.2135 11.976 9.8295 10.632 9.4135 9.416L6.0535 0.136H0.9015V21ZM25.2765 21H38.6525V17.032H29.9805V12.232H37.0845V8.296H29.9805V4.104H38.3325V0.136H25.2765V21ZM42.8078 21H56.1838V17.032H47.5118V12.232H54.6158V8.296H47.5118V4.104H55.8638V0.136H42.8078V21ZM64.403 21H69.139V4.104H74.867V0.136H58.675V4.104H64.403V21Z" fill="#007C82"/>
<path d="M80.4563 21.384C82.0883 21.384 83.3043 20.104 83.3043 18.44C83.3043 16.744 82.0883 15.464 80.4563 15.464C78.8243 15.464 77.6083 16.744 77.6083 18.44C77.6083 20.104 78.8243 21.384 80.4563 21.384ZM87.714 21H93.858C99.97 21 104.066 17.64 104.066 10.472C104.066 3.304 99.97 0.136 93.602 0.136H87.714V21ZM92.418 17.192V3.944H93.314C96.866 3.944 99.234 5.48 99.234 10.472C99.234 15.464 96.866 17.192 93.314 17.192H92.418Z" fill="#FF7C1D"/>
</svg>
